<?xml version="1.0" encoding="utf-8" ?>
<svg xmlns="http://www.w3.org/2000/svg" xmlns:xlink="http://www.w3.org/1999/xlink" width="300" height="300">
	<path fill="#FEFEFE" transform="scale(0.292969 0.292969)" d="M0 0L1024 0L1024 1024L0 1024L0 0Z"/>
	<path fill="#051937" transform="scale(0.292969 0.292969)" d="M235.328 438.799C236.829 438.854 238.044 438.762 239.297 439.716C240.254 441.311 239.969 443.285 239.925 445.087C238.189 445.313 237.467 445.458 235.916 444.586C234.998 442.849 235.295 440.714 235.328 438.799Z"/>
	<path fill="#051937" transform="scale(0.292969 0.292969)" d="M263.345 296.241C265.199 296.844 267.262 297.363 268.522 298.92C268.917 300.727 268.572 301.321 268.014 303.048C266.029 302.374 263.663 301.775 262.42 300.002C262.224 298.289 262.635 297.777 263.345 296.241Z"/>
	<path fill="#051937" transform="scale(0.292969 0.292969)" d="M359.576 348.262C361.782 348.448 365.166 348.747 366.699 350.552C367.798 351.845 367.561 352.819 367.558 354.383C365.792 354.548 363.616 354.069 362.144 353.038C360.264 351.721 359.905 350.417 359.576 348.262Z"/>
	<path fill="#051937" transform="scale(0.292969 0.292969)" d="M233.514 400.653C235.303 400.935 236.041 400.902 237.48 402.052C238.446 404.009 238.054 406.413 237.982 408.545C236.176 408.501 235.457 408.555 233.986 407.466C232.977 405.453 233.425 402.856 233.514 400.653Z"/>
	<path fill="#051937" transform="scale(0.292969 0.292969)" d="M370.794 353.154C372.991 353.651 375.713 354.242 377.077 356.213C377.913 357.422 377.644 358.638 377.428 359.98C375.021 359.359 372.206 358.992 370.539 357.009C370.08 355.312 370.34 354.812 370.794 353.154Z"/>
	<path fill="#051937" transform="scale(0.292969 0.292969)" d="M234.164 413.255C236.069 413.402 236.933 413.49 238.315 414.823C239.165 417.029 238.63 419.526 238.409 421.835C237.431 421.655 236.009 421.517 235.294 420.808C233.453 418.981 234.079 415.639 234.164 413.255Z"/>
	<path fill="#051937" transform="scale(0.292969 0.292969)" d="M422.945 380.704C425.077 381.501 427.469 382.215 428.861 384.094C429.278 385.842 428.939 386.23 428.307 387.865C426.085 387.044 423.212 386.393 421.843 384.34C421.729 382.602 422.126 382.198 422.945 380.704Z"/>
	<path fill="#051937" transform="scale(0.292969 0.292969)" d="M443.145 391.693C445.247 392.462 447.859 393.079 449.319 394.844C449.847 396.728 449.487 397.36 448.967 399.208C447.264 398.504 444.05 397.584 443.135 395.918C442.3 394.397 442.818 393.259 443.145 391.693Z"/>
	<path fill="#051937" transform="scale(0.292969 0.292969)" d="M331.496 332.759C333.489 333.285 336.955 333.944 337.965 336.001C338.648 337.393 338.082 338.486 337.715 339.867C335.488 339.137 332.819 338.383 331.279 336.548C330.703 334.786 330.964 334.476 331.496 332.759Z"/>
	<path fill="#051937" transform="scale(0.292969 0.292969)" d="M233.609 348.175C234.241 348.401 234.633 348.684 235.177 349.067C235.515 349.892 235.888 350.712 235.96 351.612C236.15 354.001 235.303 356.072 233.755 357.833C233.158 357.588 232.771 357.529 232.348 357.003C231.345 355.756 231.078 354.104 231.237 352.545C231.453 350.421 232.008 349.559 233.609 348.175Z"/>
	<path fill="#051937" transform="scale(0.292969 0.292969)" d="M230.227 323.319C231.487 323.406 232.935 323.482 233.84 324.463C235.526 326.289 234.976 329.258 234.872 331.558C232.993 331.481 232.165 331.372 230.745 330.136C229.763 328.006 230.132 325.612 230.227 323.319Z"/>
	<path fill="#051937" transform="scale(0.292969 0.292969)" d="M340.157 338.457L340.746 338.465C342.937 338.512 345.723 338.547 347.225 340.424C348.201 341.645 347.95 342.943 347.771 344.367C346.001 344.611 343.654 344.19 342.244 343.013C340.528 341.579 340.369 340.556 340.157 338.457Z"/>
	<path fill="#051937" transform="scale(0.292969 0.292969)" d="M235.066 425.66C236.17 425.917 237.64 426.104 238.478 426.921C240.222 428.62 239.517 432.605 239.416 434.819C237.841 434.528 236.481 434.39 235.494 432.97C234.352 431.326 234.97 427.6 235.066 425.66Z"/>
	<path fill="#051937" transform="scale(0.292969 0.292969)" d="M380.693 358.13C382.479 358.488 385.217 359.369 386.478 360.71C388.126 362.464 388.157 363.672 388.054 365.962C385.736 365.208 382.677 364.421 381.183 362.373C380.205 361.031 380.5 359.661 380.693 358.13Z"/>
	<path fill="#051937" transform="scale(0.292969 0.292969)" d="M230.526 336.327C232.356 336.379 233.508 336.388 235.04 337.478C236.016 339.458 235.565 341.878 235.442 344.03C233.536 343.981 232.503 343.928 230.963 342.733C230.06 340.771 230.442 338.44 230.526 336.327Z"/>
	<path fill="#051937" transform="scale(0.292969 0.292969)" d="M300.268 316.749C302.591 317.025 305.93 317.593 307.513 319.482C308.609 320.79 308.388 321.66 308.358 323.219C308.099 323.267 307.843 323.333 307.581 323.364C305.805 323.572 303.952 323.289 302.556 322.095C300.829 320.617 300.521 318.91 300.268 316.749Z"/>
	<path fill="#051937" transform="scale(0.292969 0.292969)" d="M390.983 364.139C391.272 364.184 391.563 364.218 391.851 364.273C393.773 364.642 396.942 365.76 397.859 367.643C398.6 369.163 397.845 369.928 397.18 371.265C394.74 370.293 391.793 369.524 390.137 367.38C389.819 365.662 390.114 365.58 390.983 364.139Z"/>
	<path fill="#051937" transform="scale(0.292969 0.292969)" d="M272.353 301.022C274.772 302.057 277.152 303.34 279.523 304.491L276.885 308.149C274.416 307.221 272.133 305.893 269.816 304.644L272.353 301.022Z"/>
	<path fill="#051937" transform="scale(0.292969 0.292969)" d="M280.264 306.157C282.525 306.5 285.64 307.369 287.291 309.013C288.744 310.459 288.571 311.585 288.528 313.477C286.444 313.348 283.855 312.66 282.289 311.226C280.65 309.725 280.426 308.252 280.264 306.157Z"/>
	<path fill="#051937" transform="scale(0.292969 0.292969)" d="M310.718 322.183C313.156 322.625 316.748 323.334 318.091 325.693C318.881 327.081 318.434 328.171 318.17 329.619C316.139 328.878 312.724 328.052 311.359 326.313C310.248 324.897 310.602 323.832 310.718 322.183Z"/>
	<path fill="#051937" transform="scale(0.292969 0.292969)" d="M232.695 361.105C234.16 361.441 234.958 361.636 236.032 362.786C237.23 365.529 236.517 368.125 236.037 370.973C234.828 370.722 233.379 370.381 232.668 369.282C231.224 367.05 232.304 363.572 232.695 361.105Z"/>
	<path fill="#051937" transform="scale(0.292969 0.292969)" d="M291.242 311.758C293.251 312.176 296.722 312.784 297.775 314.83C298.54 316.318 298.078 317.129 297.654 318.58C295.155 317.933 291.951 317.532 290.405 315.287C290.201 313.591 290.513 313.253 291.242 311.758Z"/>
	<path fill="#051937" transform="scale(0.292969 0.292969)" d="M350.644 342.626C352.767 343.211 355.781 344.095 357.353 345.695C358.655 347.021 358.491 348.039 358.556 349.76C356.098 349.457 352.901 349.243 351.236 347.151C350.139 345.774 350.469 344.243 350.644 342.626Z"/>
	<path fill="#051937" transform="scale(0.292969 0.292969)" d="M235.055 374.236C235.649 374.426 236.151 374.588 236.566 375.096C237.384 376.095 237.555 377.545 237.435 378.782C237.218 381.005 236.046 382.418 234.361 383.741C233.594 383.411 233.295 383.448 232.851 382.673C231.906 381.021 232.005 379.419 232.443 377.639C232.905 375.759 233.502 375.217 235.055 374.236Z"/>
	<path fill="#051937" transform="scale(0.292969 0.292969)" d="M233.957 386.599C234.179 386.648 234.403 386.685 234.621 386.747C235.906 387.107 236.796 387.45 237.374 388.74C238.457 391.161 237.422 394.141 236.438 396.417C235.02 396.105 234.08 395.63 233.382 394.295C232.148 391.937 233.111 388.895 233.957 386.599Z"/>
	<path fill="#051937" transform="scale(0.292969 0.292969)" d="M400.136 369.288C402.284 369.586 405.537 370.442 407.185 371.905C408.701 373.249 408.838 374.402 408.88 376.287C408.551 376.336 408.225 376.414 407.893 376.434C405.9 376.557 403.095 375.222 401.725 373.842C400.28 372.386 400.179 371.213 400.136 369.288Z"/>
	<path fill="#051937" transform="scale(0.292969 0.292969)" d="M431.804 385.743C434.124 386.109 437.518 387.073 439.026 388.979C440.132 390.377 439.846 391.213 439.752 392.851C439.453 392.93 439.163 393.057 438.855 393.087C436.928 393.273 434.55 392.058 433.294 390.681C431.783 389.024 431.762 387.854 431.804 385.743Z"/>
	<path fill="#051937" transform="scale(0.292969 0.292969)" d="M411.016 375.192C413.436 375.524 416.7 376.136 418.457 377.976C419.772 379.353 419.57 380.606 419.499 382.35C416.822 381.844 413.681 381.403 411.861 379.143C410.827 377.858 410.914 376.723 411.016 375.192Z"/>
	<path fill="#051937" transform="scale(0.292969 0.292969)" d="M320.34 327.237C322.387 327.509 325.458 328.034 327.014 329.511C328.738 331.148 328.773 332.474 328.728 334.687C326.638 334.42 324.093 334.015 322.434 332.612C320.65 331.102 320.495 329.422 320.34 327.237Z"/>
	<path fill="#051937" transform="scale(0.292969 0.292969)" d="M224.277 268.536C227.713 268.368 230.683 268.429 233.932 269.803Q234.701 270.125 235.435 270.521Q236.168 270.917 236.859 271.383Q237.55 271.85 238.191 272.382Q238.833 272.915 239.418 273.508Q240.004 274.101 240.528 274.749Q241.052 275.398 241.51 276.094Q241.968 276.791 242.354 277.529Q242.741 278.268 243.053 279.041Q243.344 279.752 243.562 280.488Q243.781 281.224 243.926 281.978Q244.071 282.732 244.14 283.497Q244.21 284.261 244.203 285.029Q244.197 285.797 244.115 286.56Q244.032 287.324 243.874 288.075Q243.717 288.827 243.486 289.559Q243.255 290.291 242.952 290.997C240.7 296.245 236.406 298.971 231.372 301.115C228.435 301.736 225.061 301.274 222.245 300.304Q221.481 300.034 220.749 299.688Q220.016 299.342 219.322 298.924Q218.629 298.505 217.981 298.019Q217.333 297.532 216.738 296.983Q216.143 296.433 215.607 295.826Q215.07 295.219 214.598 294.56Q214.126 293.902 213.723 293.199Q213.321 292.496 212.991 291.756Q212.812 291.361 212.653 290.957Q212.494 290.553 212.356 290.142Q212.218 289.73 212.101 289.312Q211.985 288.894 211.89 288.471Q211.795 288.047 211.722 287.619Q211.649 287.191 211.598 286.76Q211.547 286.329 211.518 285.896Q211.49 285.463 211.483 285.029Q211.477 284.595 211.493 284.162Q211.508 283.728 211.547 283.296Q211.585 282.863 211.645 282.434Q211.705 282.004 211.788 281.578Q211.87 281.152 211.974 280.73Q212.078 280.309 212.204 279.894Q212.33 279.478 212.477 279.07Q212.623 278.661 212.791 278.261C215.071 272.899 219.132 270.555 224.277 268.536Z"/>
	<path fill="#051937" transform="scale(0.292969 0.292969)" d="M477.298 182.211C477.912 182.149 478.661 182.027 479.288 182.067C480.462 182.143 480.966 182.628 481.784 183.41L481.766 184.151C477.806 187.797 464.624 187.364 459.165 188.032Q440.719 190.262 422.498 193.9Q404.278 197.538 386.39 202.564C344.375 214.337 306.058 232.592 268.777 255.012C268.021 255.473 267.317 255.645 266.473 255.893L265.546 255.226C265.322 253.939 265.326 253.752 266.157 252.614C269.585 247.921 285.388 240.091 290.9 237.098Q296.277 234.179 301.728 231.403Q307.18 228.626 312.703 225.995Q318.226 223.364 323.817 220.879Q329.407 218.394 335.061 216.057Q340.715 213.721 346.429 211.534Q352.143 209.347 357.912 207.312Q363.682 205.277 369.503 203.395Q375.324 201.512 381.193 199.784Q387.061 198.056 392.974 196.483Q398.886 194.911 404.838 193.494Q410.789 192.078 416.776 190.819Q422.763 189.561 428.781 188.46Q434.799 187.36 440.844 186.418Q446.89 185.477 452.957 184.696Q459.025 183.914 465.111 183.293Q471.197 182.672 477.298 182.211Z"/>
	<path fill="#051937" transform="scale(0.292969 0.292969)" d="M729.666 245.154C730.402 245.243 730.391 245.222 731.241 245.439C740.214 247.73 751.344 256.428 759.253 261.649C811.491 296.132 855.986 341.873 886.011 397.057C918.595 456.943 932.425 524.592 932.054 592.395C931.967 608.316 932.2 626.284 927.673 641.674L925.487 641.062C923.632 639.034 925.403 630.283 925.722 627.178C927.655 608.371 928.157 589.838 927.586 570.951C924.283 461.725 877.91 363.859 794.515 293.124Q779.249 280 762.474 268.871C755.407 264.237 734.674 253.392 730.551 248.972C729.424 247.764 729.662 246.68 729.666 245.154Z"/>
	<path fill="#051937" transform="scale(0.292969 0.292969)" d="M892.618 750.213C893.789 750.556 894.282 750.743 895.058 751.699C895.21 752.387 895.296 753 895.178 753.705C894.118 760.026 885.924 771.906 882.533 777.683Q879.835 782.385 877.003 787.008Q874.171 791.63 871.208 796.17Q868.245 800.71 865.154 805.163Q862.062 809.617 858.844 813.979Q855.626 818.342 852.285 822.611Q848.944 826.88 845.481 831.052Q842.019 835.223 838.439 839.294Q834.859 843.365 831.164 847.332Q827.468 851.298 823.661 855.157Q819.854 859.017 815.938 862.765Q812.021 866.514 808 870.149Q803.978 873.784 799.853 877.303Q795.729 880.821 791.506 884.22Q787.283 887.619 782.964 890.896Q778.645 894.172 774.234 897.324Q769.823 900.476 765.324 903.5Q762.404 905.452 759.448 907.35Q756.492 909.247 753.502 911.09Q750.511 912.933 747.487 914.72Q744.463 916.507 741.406 918.237Q738.35 919.968 735.262 921.642Q732.174 923.316 729.055 924.932Q725.936 926.549 722.789 928.107Q719.641 929.666 716.464 931.166Q713.288 932.665 710.085 934.106Q706.881 935.547 703.652 936.928Q700.422 938.31 697.167 939.631Q693.913 940.953 690.634 942.213Q687.356 943.474 684.055 944.674Q680.753 945.874 677.431 947.013Q674.108 948.152 670.764 949.229Q667.421 950.306 664.058 951.321Q660.695 952.336 657.314 953.288Q653.933 954.241 650.535 955.13Q647.137 956.02 643.723 956.847Q640.31 957.674 636.881 958.437Q633.452 959.201 630.01 959.9Q626.568 960.6 623.113 961.236Q619.659 961.872 616.193 962.444Q612.727 963.016 609.252 963.524Q605.776 964.032 602.292 964.475Q598.807 964.918 595.315 965.297Q591.823 965.676 588.324 965.99Q584.826 966.304 581.322 966.553Q577.818 966.803 574.311 966.987Q570.803 967.172 567.292 967.291Q563.782 967.41 560.27 967.465Q556.758 967.519 553.245 967.509C530.699 967.545 508.742 965.936 486.606 961.59C485.946 961.417 485.313 961.057 484.695 960.771C483.947 959.757 483.65 959.76 483.718 958.447C485.22 957.147 486.644 957.327 488.576 957.467C494.919 957.928 501.266 959.467 507.551 960.465C514.916 961.636 522.411 962.294 529.845 962.841C574.319 966.118 622.096 960.039 664.731 947.172Q668.613 945.962 672.468 944.668Q676.323 943.374 680.149 941.997Q683.975 940.62 687.77 939.16Q691.566 937.701 695.328 936.16Q699.091 934.619 702.82 932.997Q706.549 931.375 710.242 929.673Q713.935 927.971 717.59 926.19Q721.245 924.409 724.861 922.549Q728.477 920.689 732.052 918.751Q735.627 916.814 739.16 914.799Q742.692 912.785 746.18 910.695Q749.668 908.604 753.11 906.439Q756.552 904.274 759.946 902.035Q763.34 899.797 766.686 897.485Q770.031 895.173 773.325 892.79Q776.62 890.406 779.862 887.952Q783.104 885.498 786.293 882.975Q789.481 880.451 792.615 877.86Q795.748 875.268 798.825 872.609Q801.901 869.95 804.919 867.225Q807.938 864.501 810.897 861.712Q813.856 858.923 816.753 856.07Q819.651 853.218 822.487 850.303Q825.323 847.389 828.095 844.414Q830.867 841.439 833.574 838.405Q836.281 835.37 838.922 832.279Q841.563 829.187 844.136 826.038Q846.71 822.89 849.215 819.687Q851.72 816.484 854.155 813.228Q856.59 809.971 858.954 806.663Q861.318 803.354 863.611 799.996Q865.903 796.637 868.122 793.23C877.283 779.398 884.761 764.802 892.618 750.213Z"/>
	<path fill="#051937" transform="scale(0.292969 0.292969)" d="M198.419 312.327L200.214 313.624C201.14 316.984 190.641 327.644 187.998 330.66Q182.521 336.891 177.316 343.351Q172.11 349.811 167.184 356.486Q162.259 363.162 157.623 370.042Q152.987 376.922 148.649 383.994Q144.311 391.065 140.279 398.316Q136.247 405.566 132.528 412.982Q128.809 420.398 125.409 427.965Q122.01 435.533 118.937 443.239Q117.349 447.278 115.848 451.35Q114.346 455.422 112.931 459.524Q111.516 463.627 110.188 467.758Q108.86 471.89 107.62 476.049Q106.379 480.208 105.228 484.392Q104.076 488.576 103.013 492.784Q101.95 496.992 100.976 501.221Q100.003 505.45 99.1191 509.699Q98.2353 513.948 97.4417 518.215Q96.6482 522.481 95.9451 526.764Q95.2421 531.046 94.6299 535.343Q94.0177 539.639 93.4966 543.948Q92.9756 548.256 92.5459 552.575Q92.1162 556.893 91.7781 561.22Q91.4399 565.546 91.1935 569.879Q90.9471 574.212 90.7925 578.549Q90.6379 582.886 90.5751 587.226Q90.5124 591.565 90.5416 595.905Q90.5709 600.245 90.692 604.583Q90.8131 608.921 91.026 613.255Q91.239 617.59 91.5437 621.919Q91.8484 626.248 92.2447 630.57Q92.6411 634.892 93.1288 639.204Q93.6166 643.516 94.1956 647.818Q94.7746 652.119 95.4445 656.406Q96.1145 660.694 96.8751 664.967Q97.6357 669.24 98.4867 673.495Q99.3376 677.751 100.278 681.987Q101.219 686.224 102.25 690.44Q103.28 694.656 104.4 698.849Q105.519 703.042 106.727 707.21Q107.935 711.378 109.231 715.52Q115.214 734.463 123.335 752.593C126.443 759.44 130.14 766.038 133.081 772.958C134.452 776.184 135.341 777.974 133.97 781.391C133.859 781.297 133.745 781.208 133.639 781.11C126.98 775.028 123.245 763.146 119.799 754.945C99.8165 707.401 87.9343 658.04 86.5846 606.349Q86.4077 601.304 86.3566 596.256Q86.3054 591.208 86.3799 586.161Q86.4545 581.114 86.6547 576.07Q86.855 571.026 87.1808 565.988Q87.5065 560.951 87.9577 555.923Q88.4088 550.895 88.985 545.88Q89.5612 540.865 90.2622 535.866Q90.9631 530.867 91.7883 525.887Q92.6135 520.907 93.5625 515.949Q94.5115 510.991 95.5836 506.058Q96.6558 501.125 97.8504 496.22Q99.0451 491.316 100.362 486.443Q101.678 481.569 103.115 476.73Q104.553 471.891 106.11 467.089Q107.668 462.288 109.344 457.526Q111.021 452.765 112.816 448.047Q114.61 443.328 116.522 438.656Q118.433 433.984 120.461 429.361Q122.488 424.738 124.63 420.167Q126.772 415.596 129.027 411.08Q131.282 406.563 133.648 402.104Q136.015 397.646 138.492 393.247Q140.969 388.849 143.555 384.513Q146.141 380.178 148.834 375.908Q151.527 371.639 154.326 367.437Q157.124 363.236 160.027 359.106Q162.929 354.976 165.933 350.919Q168.937 346.862 172.042 342.882Q175.146 338.901 178.349 334.999Q181.551 331.097 184.85 327.276Q188.148 323.455 191.541 319.717Q194.934 315.979 198.419 312.327Z"/>
	<path fill="#051937" transform="scale(0.292969 0.292969)" d="M589.647 174.005C595.746 175.608 618.881 190.05 625.939 193.986L664.812 215.567C674.752 220.984 685.887 226.062 694.73 233.189C696.381 247.941 695.323 263.641 695.13 278.476C706.451 284.479 718.454 290.105 728.485 298.135L728.494 306.95C738.676 312.103 748.343 318.193 758.356 323.66C783.301 337.279 808.229 350.746 832.748 365.134C833.205 376.256 832.959 387.409 832.958 398.539L832.961 454.527L832.982 624.886C852.522 635.331 871.722 646.521 891.113 657.251C903.407 664.054 916.131 670.24 928.1 677.606C930.669 679.187 934.519 681.295 936.177 683.847C937.125 685.305 937.816 687.751 937.344 689.478C936.767 691.588 935.273 693.002 933.541 694.243C928.868 697.592 922.936 700.266 917.843 703.033C903.241 710.966 888.275 718.255 873.61 726.087Q644.611 850.076 413.484 970.051C403.504 975.439 393.574 980.781 383.218 985.417C365.698 977.909 349.319 967.191 332.543 958.133L220.324 897.062L153.232 860.337C140.4 853.373 126.163 847.129 114.547 838.266C114.428 836.249 114.062 833.665 114.638 831.72C115.359 829.283 117.456 828.127 119.463 826.821C129.869 820.05 141.516 814.975 152.449 809.106C177.97 795.408 203.616 781.86 228.941 767.807Q228.06 665.188 228.913 562.572C229.102 536.096 228.05 509.387 229.039 482.957C240.056 474.672 253.648 468.649 265.797 462.14L339.51 423.235C351.007 417.151 362.535 411.1 373.942 404.849C382.609 400.1 390.989 394.603 400.359 391.339C407.862 393.796 414.937 398.364 421.813 402.217Q438.744 411.672 455.439 421.538C455.594 416.053 456.746 408.298 455.253 403.051C454.855 401.653 453.119 401.255 452.53 399.501C453.057 397.904 453.791 397.458 455.013 396.335C455.404 383.183 455.124 370.036 455.066 356.88Q455.031 329.141 454.698 301.404C463.623 293.55 475.994 288.504 486.61 283.389C486.473 266.59 485.975 249.665 486.838 232.882C495.276 224.727 510.822 217.918 521.279 211.971C543.957 199.072 566.453 185.973 589.647 174.005Z"/>
	<path fill="#FEFEFE" transform="scale(0.292969 0.292969)" d="M531.25 480.431C532.603 480.522 532.779 480.547 533.87 481.34C534.512 482.595 535.081 483.805 534.859 485.261C534.659 486.577 534.342 487.132 533.272 487.869L531.82 487.272L525.603 483.808L531.25 480.431Z"/>
	<path fill="#FEFEFE" transform="scale(0.292969 0.292969)" d="M419.45 441.412C423.894 442.83 428.33 443.832 432.892 444.768C426.677 448.123 420.288 451.157 414.072 454.532C411.311 456.191 408.479 457.666 405.613 459.135Q405.173 454.12 404.889 449.093C409.808 446.711 414.62 443.978 419.45 441.412Z"/>
	<path fill="#FEFEFE" transform="scale(0.292969 0.292969)" d="M734.102 465.416C734.74 465.515 734.363 465.387 735.08 466.1C736.721 474.384 735.575 492.743 735.516 501.929L730.569 504.6L730.071 504.408C728.02 500.955 729.226 474.035 729.32 468.062L734.102 465.416Z"/>
	<path fill="#FEFEFE" transform="scale(0.292969 0.292969)" d="M356.014 475.814C359.719 477.61 363.332 479.68 366.969 481.615Q367.079 492.389 366.942 503.163C363.16 501.239 359.57 498.965 355.952 496.754Q355.801 486.283 356.014 475.814Z"/>
	<path fill="#FEFEFE" transform="scale(0.292969 0.292969)" d="M733.896 614.947L734.572 615.033C736.44 617.517 735.411 647.794 735.368 652.855L730.294 655.484L729.945 655.383C727.818 652.066 728.964 623.017 729.003 617.459L733.896 614.947Z"/>
	<path fill="#FEFEFE" transform="scale(0.292969 0.292969)" d="M734.616 538.514C734.643 538.529 734.674 538.536 734.695 538.557C736.381 540.226 735.247 571.828 736.174 577.628L730.348 580.516L730.181 580.431C727.868 577.924 728.995 546.99 729.02 541.797L734.616 538.514Z"/>
	<path fill="#FEFEFE" transform="scale(0.292969 0.292969)" d="M422.969 431.599C435.571 440.61 449.494 447.311 462.774 455.22C457.513 458.226 446.57 465.729 440.681 466.047C439.567 465.101 440.187 463.877 439.735 462.604L439.171 463.43C438.279 462.716 437.496 462.062 436.433 461.62C436.188 461.518 435.94 461.423 435.693 461.324L434.704 454.49C435.673 452.805 436.743 451.186 437.8 449.556C437.56 447.16 437.643 444.031 435.836 442.211C430.663 437.002 424.507 445.585 422.969 431.599Z"/>
	<path transform="scale(0.292969 0.292969)" d="M434.704 454.49C435.673 452.805 436.743 451.186 437.8 449.556C438.527 453.882 439.383 458.229 439.735 462.604L439.171 463.43C438.279 462.716 437.496 462.062 436.433 461.62C436.188 461.518 435.94 461.423 435.693 461.324L434.704 454.49Z"/>
	<path fill="#FEFEFE" transform="scale(0.292969 0.292969)" d="M399.388 451.455L400.2 451.519C402.013 453.512 401.4 458.764 401.415 461.41C390.369 466.685 379.817 472.916 368.694 478.059L363.541 475.25L357.723 471.936Q378.401 461.381 399.388 451.455Z"/>
	<path fill="#FEFEFE" transform="scale(0.292969 0.292969)" d="M770.386 446.435L771.097 446.841C772.739 454.339 771.646 474.304 771.6 483.03C767.165 484.968 762.96 487.238 758.716 489.553C756.344 486.253 757.614 458.798 757.672 453.087C761.886 450.828 766.149 448.651 770.386 446.435Z"/>
	<path fill="#FEFEFE" transform="scale(0.292969 0.292969)" d="M808.366 426.486C808.469 426.583 808.593 426.66 808.674 426.776C810.706 429.688 809.568 458.21 809.506 463.49C805.151 465.573 800.87 467.825 796.569 470.018C794.428 466.687 795.761 438.626 795.867 432.855L808.366 426.486Z"/>
	<path fill="#FEFEFE" transform="scale(0.292969 0.292969)" d="M770.441 595.938L771.423 596.274C771.912 600.638 771.616 605.26 771.607 609.655L771.56 633.417C767.177 635.63 762.882 638.04 758.562 640.374C756.351 638.031 757.838 607.143 757.957 601.993C762.182 600.102 766.306 598.015 770.441 595.938Z"/>
	<path fill="#FEFEFE" transform="scale(0.292969 0.292969)" d="M752.868 455.496C755.239 458.02 753.702 486.962 753.573 492.059Q747.055 495.753 740.443 499.276C738.42 496.664 739.441 467.843 739.487 462.556C744.066 460.427 748.453 457.94 752.868 455.496Z"/>
	<path fill="#FEFEFE" transform="scale(0.292969 0.292969)" d="M808.198 575.885L808.938 576.168C810.521 579.011 809.132 607.754 810.002 614.153C805.822 616.389 801.537 618.461 797.308 620.605L796.52 620.472C794.526 617.701 795.585 587.714 795.624 582.578C799.741 580.215 803.986 578.073 808.198 575.885Z"/>
	<path fill="#FEFEFE" transform="scale(0.292969 0.292969)" d="M808.193 500.408L809.001 500.771C810.702 506.101 809.518 532.167 809.471 539.181C805.316 541.701 800.98 543.968 796.729 546.324L796.085 546.276C794.659 544.131 795.702 511.959 795.819 506.512C799.983 504.573 804.076 502.448 808.193 500.408Z"/>
	<path fill="#FEFEFE" transform="scale(0.292969 0.292969)" d="M752.786 529.518C754.825 536.283 753.59 559.633 753.509 568.463C749.023 570.621 744.64 573.01 740.235 575.327C738.007 571.457 739.422 541.987 739.488 535.983L752.786 529.518Z"/>
	<path fill="#FEFEFE" transform="scale(0.292969 0.292969)" d="M770.615 520.023C770.85 520.33 771.167 520.59 771.319 520.946C772.305 523.268 771.659 554.002 771.707 558.977L758.714 565.634L757.866 565.174C756.224 557.104 757.412 535.786 757.488 526.566L770.615 520.023Z"/>
	<path fill="#FEFEFE" transform="scale(0.292969 0.292969)" d="M753.416 604.523C755.523 608.843 754.077 636.369 754.018 642.74Q746.855 646.577 739.593 650.222C738.252 638.364 739.192 624.108 739.175 612.03C743.824 609.389 748.68 607.01 753.416 604.523Z"/>
	<path fill="#FEFEFE" transform="scale(0.292969 0.292969)" d="M405.436 464.414C411.786 460.846 427.61 451.078 433.966 450.598C434.731 451.746 434.605 453.137 434.704 454.49L435.693 461.324L436.703 469.009Q421.841 476.42 407.127 484.122C406.096 477.659 405.79 470.947 405.436 464.414Z"/>
	<path fill="#051937" transform="scale(0.292969 0.292969)" d="M415.13 459.814C416.85 460.023 418.328 460.52 419.583 461.756C421.254 463.4 421.956 465.701 421.886 468.007C421.758 472.227 420.177 474.901 417.145 477.688C414.852 477.539 413.08 477.116 411.504 475.323C410.105 473.733 409.629 471.645 409.766 469.571C410.052 465.259 412.018 462.588 415.13 459.814Z"/>
	<path fill="#FEFEFE" transform="scale(0.292969 0.292969)" d="M790.093 435.909L790.97 436.103C792.828 439.972 791.739 466.721 791.68 472.771Q784.173 476.438 776.925 480.593L776.109 480.364C774.304 476.961 775.398 449.002 775.469 443.325Q782.813 439.679 790.093 435.909Z"/>
	<path fill="#FEFEFE" transform="scale(0.292969 0.292969)" d="M790.68 585.436C790.98 585.502 791.198 585.767 791.445 585.949C793.225 594.648 792.049 613.377 791.994 622.947L776.785 630.695C776.357 630.745 776.675 630.74 775.923 630.284C774.344 625.082 775.465 599.955 775.526 593.044C780.662 590.681 785.659 588.032 790.68 585.436Z"/>
	<path fill="#FEFEFE" transform="scale(0.292969 0.292969)" d="M790.506 509.412L790.822 509.58C793.023 512.151 791.632 544.069 791.546 548.943L776.706 556.107C773.874 552.9 775.333 523.686 775.435 517.677L790.506 509.412Z"/>
	<path fill="#FEFEFE" transform="scale(0.292969 0.292969)" d="M400.063 467.391C400.478 467.541 400.781 467.897 401.109 468.187C403.161 473.623 402.79 480.747 403.087 486.517Q388.202 494.274 373.157 501.716L371.884 501.823C371.787 501.725 371.677 501.64 371.595 501.53C369.629 498.869 370.991 485.292 371.181 481.542C380.946 477.243 390.696 472.495 400.063 467.391Z"/>
	<path fill="#FEFEFE" transform="scale(0.292969 0.292969)" d="M543.511 682.221C549.109 684.947 554.549 687.954 560.009 690.941Q560.048 714.957 559.833 738.972C554.187 737.497 548.547 733.393 543.544 730.429L543.511 682.221Z"/>
	<path fill="#FEFEFE" transform="scale(0.292969 0.292969)" d="M543.474 591.657C549.15 594.178 554.548 597.239 559.989 600.223L559.986 651.275C554.271 648.715 548.893 645.472 543.465 642.363L543.474 591.657Z"/>
	<path fill="#FEFEFE" transform="scale(0.292969 0.292969)" d="M728.734 316.168Q760.697 334.088 792.947 351.486C801.572 356.241 812.026 360.481 819.618 366.729C819.106 367.9 818.269 368.155 817.215 368.821L811.376 371.704C802.493 366.034 792.961 361.336 783.737 356.248Q756.388 341.036 728.733 326.389C728.612 322.989 728.706 319.57 728.734 316.168Z"/>
	<path fill="#FEFEFE" transform="scale(0.292969 0.292969)" d="M823.412 374.417C823.768 374.524 824.048 374.802 824.356 375.011C824.96 377.98 824.651 381.091 824.531 384.101C808.824 392.884 792.592 400.771 776.557 408.93Q752.992 421.026 729.654 433.557L728.735 432.868C728.105 430.322 728.389 427.645 728.476 425.041C760.022 407.986 791.958 391.654 823.412 374.417Z"/>
	<path fill="#FEFEFE" transform="scale(0.292969 0.292969)" d="M248.445 499.447C255.926 502.597 263.122 507.088 270.266 510.956L312.744 534.184L345.931 552.469C352.984 556.361 360.605 560.005 367.007 564.917L366.956 573.719C350.059 564.614 333.438 555.012 316.57 545.857C293.76 533.478 270.772 521.501 248.33 508.452L248.445 499.447Z"/>
	<path fill="#FEFEFE" transform="scale(0.292969 0.292969)" d="M401.338 400.575C419.365 408.259 435.976 419.985 452.98 429.724L497.411 454.846C505.207 459.269 521.913 467.271 527.32 473.206C527.088 474.615 526.365 474.813 525.3 475.678L519.973 478.726C508.696 469.715 494.526 463.461 481.943 456.394C464.065 446.352 446.467 435.853 428.661 425.694C420.028 420.769 408.251 416.156 401.634 408.752C401.364 405.985 401.115 403.357 401.338 400.575Z"/>
	<path fill="#FEFEFE" transform="scale(0.292969 0.292969)" d="M520.947 486.456C523.892 486.797 526.073 489.008 528.175 490.9C521.4 496.174 512.926 499.928 505.275 503.788Q492.968 509.957 480.79 516.378C447.274 533.96 413.985 552.014 380.317 569.298C378.544 570.277 376.71 571.105 374.873 571.952L374.783 564.115C381.941 559.179 389.874 555.245 397.563 551.214L426.303 536.162L520.947 486.456Z"/>
	<path fill="#FEFEFE" transform="scale(0.292969 0.292969)" d="M395.833 402.475L396.381 402.617C397.919 404.945 396.728 409.566 396.386 412.259C378.771 422.167 360.563 430.973 342.655 440.33Q295.491 465.253 247.972 489.494L244.106 487.489L240.166 485.366C262.565 471.827 286.438 460.552 309.582 448.339C338.363 433.15 366.8 417.159 395.833 402.475Z"/>
	<path fill="#FEFEFE" transform="scale(0.292969 0.292969)" d="M454.774 801.998C457.013 808.489 456.018 850.356 456.01 860.741C447.776 865.69 438.869 869.556 430.196 873.663C427.627 870.388 429.041 822.905 429.159 815.077C437.873 811.139 446.241 806.327 454.774 801.998Z"/>
	<path fill="#FEFEFE" transform="scale(0.292969 0.292969)" d="M485.764 786.493L486.699 786.582C488.645 789.371 487.592 837.627 487.535 844.649C478.863 849.677 469.864 854.098 460.9 858.575L460.233 858.297C458.856 854.859 459.66 807.876 459.626 799.601C468.385 795.346 477.026 790.803 485.764 786.493Z"/>
	<path fill="#FEFEFE" transform="scale(0.292969 0.292969)" d="M686.784 658.97C688.339 662.915 687.447 731.958 687.459 741.755Q674.49 748.631 661.337 755.149C659.707 745.497 660.84 735.034 660.891 725.252L660.919 672.667Q673.797 665.715 686.784 658.97Z"/>
	<path fill="#FEFEFE" transform="scale(0.292969 0.292969)" d="M656.108 674.998L656.525 675.406C658.093 680.91 657.357 692.321 657.411 698.534L657.45 756.949C647.988 762.017 638.584 767.132 629.046 772.066L628.192 771.668C626.617 765.405 627.51 753.153 627.495 746.149L627.583 689.564C637.354 685.465 646.753 679.975 656.108 674.998Z"/>
	<path fill="#FEFEFE" transform="scale(0.292969 0.292969)" d="M728.762 335.506C739.002 339.871 748.64 346.09 758.377 351.481C773.39 359.794 788.575 367.763 803.454 376.321C795.188 381.15 786.361 385.297 777.833 389.656C761.336 398.248 745.069 407.267 728.485 415.696L728.762 335.506Z"/>
	<path fill="#FEFEFE" transform="scale(0.292969 0.292969)" d="M694.551 287.827Q705.775 293.414 716.653 299.648C707.317 304.892 697.542 309.523 688.077 314.562L628.519 346.666C614.956 353.959 601.263 361.009 587.88 368.631C571.254 360.147 555.101 350.888 538.715 341.962Q510.61 326.749 482.25 312.016Q474.243 307.908 466.409 303.48C472.523 298.587 479.949 294.925 486.74 291.07L486.976 297.73C496.624 305.22 512.171 312.155 523.305 318.308C545.318 330.473 567.207 343.52 589.718 354.688C609.984 341.375 630.96 329.617 652.354 318.241C666.484 310.727 681.123 303.831 694.492 295.009L694.551 287.827Z"/>
	<path fill="#FEFEFE" transform="scale(0.292969 0.292969)" d="M686.091 245.412L686.553 245.476C688.316 247.711 687.529 284.385 687.513 290.37C677.399 294.383 667.754 300.839 658.223 306.093C636.921 317.838 615.715 329.848 594.29 341.36L593.956 341.321C591.695 337.888 593.072 302.805 593.138 296.846C624.175 279.795 655.68 263.571 686.091 245.412Z"/>
	<path fill="#FEFEFE" transform="scale(0.292969 0.292969)" d="M494.752 245.495L543.325 272.17C557.542 279.891 571.875 287.37 585.532 296.065L585.608 325.926C585.62 331.423 586.04 337.293 585.328 342.732C574.23 337.162 563.447 331.019 552.511 325.143Q523.101 309.602 494.123 293.268Q493.803 277.121 494.162 260.976C494.273 255.869 494.127 250.564 494.752 245.495Z"/>
	<path fill="#FEFEFE" transform="scale(0.292969 0.292969)" d="M589.389 182.947C599.228 186.387 608.438 193.204 617.565 198.266Q651.623 217.6 686.065 236.24C654.651 254.03 622.703 270.751 591.198 288.36C589.603 288.391 588.441 287.792 587.05 287.113C574.185 280.833 561.874 273.197 549.344 266.26C531.336 256.292 513.078 246.717 495.251 236.43C505.293 229.023 516.933 223.508 527.797 217.391Q558.504 200.008 589.389 182.947Z"/>
	<path fill="#051937" transform="scale(0.292969 0.292969)" d="M587.955 189.429C589.435 189.412 590.727 189.617 592.092 190.216C604.698 195.754 616.604 203.803 628.642 210.493C640.063 216.84 662.536 226.794 671.087 235.132C671.346 236.01 671.55 236.18 671.242 237.096C670.592 239.029 668.495 240.487 666.881 241.575C658.476 247.24 648.694 251.446 639.768 256.296C624.079 264.821 608.574 273.819 592.642 281.881C591.852 282.229 591.244 282.437 590.364 282.464C588.632 282.518 586.644 281.415 585.122 280.666C576.68 276.51 568.664 271.429 560.404 266.919C551.609 262.116 515.339 244.019 511.03 239.303C510.259 238.459 509.786 237.555 509.961 236.376C510.31 234.026 512.606 232.11 514.367 230.769C522.469 224.599 532.864 219.974 541.826 215.107Q565.1 202.644 587.955 189.429Z"/>
	<path fill="#FEFEFE" transform="scale(0.292969 0.292969)" d="M589.212 197.923C597.742 200.43 615.883 211.504 624.319 216.212C636.076 222.774 649.748 229.528 660.646 237.267C642.809 233.624 607.791 210.559 589.749 200.873C573.186 209.158 557.093 218.784 540.786 227.601C535.806 230.293 530.683 233.889 525.523 236.067C523.989 236.714 522.26 237.259 520.602 236.889L520.608 236.177C527.802 229.432 548.098 220.144 557.5 215.089C568.106 209.387 578.412 203.275 589.212 197.923Z"/>
	<path fill="#FEFEFE" transform="scale(0.292969 0.292969)" d="M589.784 209.477C597.735 211.941 605.465 218.192 612.72 222.334Q630.771 232.43 648.95 242.294C640.785 246.308 632.968 251.016 625.008 255.419Q607.754 264.867 590.383 274.099C583.007 270.624 575.926 266.317 568.749 262.438L530.134 241.879Q560.602 226.861 589.784 209.477Z"/>
	<path fill="#051937" transform="scale(0.292969 0.292969)" d="M587.71 213.514C591.79 213.353 594.452 215.285 597.513 217.654L597.51 225.027C601.574 228.593 604.279 231.943 605.337 237.456C606.496 243.497 606.792 254.128 603.027 259.247C600.249 263.024 596.947 263.637 592.617 264.425C589.73 264.557 586.585 264.663 583.745 264.084C581.136 263.553 578.588 262.414 577.158 260.061C573.756 254.462 574.511 241.671 575.947 235.381C577.01 230.729 578.509 228.025 582.55 225.493C582.513 223.277 582.29 220.63 582.894 218.484C583.64 215.833 585.422 214.782 587.71 213.514Z"/>
	<path fill="#FEFEFE" transform="scale(0.292969 0.292969)" d="M587.462 219.405C589.214 219.385 591.124 219.179 592.603 220.241C593.539 221.693 593.513 222.959 593.592 224.621C591.829 224.598 589.665 224.91 588.169 223.863C587.238 222.482 587.447 220.999 587.462 219.405Z"/>
	<path fill="#FEFEFE" transform="scale(0.292969 0.292969)" d="M585.867 229.067C588.717 228.934 591.9 228.716 594.669 229.488C596.706 230.056 598.138 231.044 599.105 232.952C601.765 238.2 602.508 250.053 600.436 255.61C599.548 257.994 597.271 258.697 595.14 259.693C591.669 260.105 587.803 260.496 584.404 259.49C582.684 258.981 581.453 258.224 580.601 256.585C578.013 251.608 579.154 239.96 580.865 234.559C581.821 231.538 583.097 230.455 585.867 229.067Z"/>
	<path fill="#FEFEFE" transform="scale(0.292969 0.292969)" d="M823.44 393.413C823.509 393.459 823.591 393.489 823.648 393.55C824.381 394.332 824.423 394.764 824.55 395.8C825.719 405.302 824.638 415.54 824.645 425.14Q824.929 458.169 824.624 491.198L824.922 662.479C793.396 679.778 760.992 695.739 728.982 712.139L728.967 665.773C743.198 658.607 757.123 650.824 771.27 643.492C786.33 635.686 801.604 628.314 816.569 620.321L816.503 562.408C804.997 565.919 793.712 573.565 783.084 579.231C765.087 588.826 746.948 598.125 729.047 607.904L729.054 591.42L736.032 587.553Q775.903 565.918 816.493 545.664C816.549 525.748 817.012 505.696 816.115 485.795C786.332 499.782 758.385 517.399 729.099 532.378L729.235 514.679C741.412 508.952 753.074 502.269 765.08 496.21C782.349 487.494 800.032 479.289 816.493 469.086L816.454 412.305C807.642 416.203 799 421.428 790.467 425.946C769.855 436.858 749.442 448.152 728.723 458.86C728.457 453.674 728.545 448.454 728.52 443.262Q776.11 418.586 823.44 393.413Z"/>
	<path fill="#FEFEFE" transform="scale(0.292969 0.292969)" d="M400.742 419.047C403.602 419.744 417.366 428.066 420.08 430.21C419.193 431.441 418.48 432.555 417.878 433.951C418.073 435.205 418.197 436.414 418.271 437.681C413.908 441.168 405.293 444.037 400.087 446.442C384.37 453.704 366.691 461.042 352.342 470.61C350.43 479.913 351.505 490.213 352.043 499.644Q360.322 504.466 368.928 508.678C381.862 502.861 394.488 495.956 407.12 489.506Q437.651 474.227 467.624 457.881C482.447 465.769 496.834 474.433 511.664 482.32C489.83 493.407 468.372 505.314 446.594 516.537Q408.525 537.072 370.017 556.773C352.924 545.733 334.291 536.472 316.46 526.627C296.396 515.55 276.732 503.603 255.751 494.317C274.318 486.005 292.249 475.893 310.269 466.448L400.742 419.047Z"/>
	<path fill="#FEFEFE" transform="scale(0.292969 0.292969)" d="M462.696 311.128C480.687 319.524 498.154 329.558 515.578 339.083Q549.829 357.953 584.531 375.979L584.5 475.909C584.514 488.358 585.201 500.919 584.941 513.347C584.92 514.332 584.814 515.136 584.421 516.053C583.811 517.478 582.568 517.878 581.241 518.451C581.056 518.531 580.869 518.607 580.683 518.686C580.066 519.807 580.131 519.919 580.291 521.205C581.307 522.693 582.955 522.939 584.588 523.444Q584.886 572.838 584.527 622.231L584.818 790.915C571.033 783.373 557.744 774.855 543.426 768.332L543.395 739.719C548.564 742.465 556.95 748.647 562.728 748.504C566.073 744.771 564.505 712.755 564.471 706.25L564.458 685.211C557.863 680.466 550.747 677.042 543.476 673.488L543.296 651.157C547.854 654.189 558.394 662.487 563.915 661.472C564.033 660.562 564.049 659.646 564.089 658.729L564.969 658.49L564.274 658.191C564.851 650.855 564.314 643.365 564.264 636.002L564.18 594.595C557.552 589.998 550.173 586.685 543.147 582.766C543.052 575.648 543.13 568.522 543.139 561.404C550.206 564.709 555.979 569.344 563.601 571.593C566.007 553.742 563.482 535.52 563.666 517.626C563.683 515.984 563.643 513.827 564.84 512.671C566.054 512.718 567.455 512.927 568.581 512.398C569.212 512.103 569.254 511.588 569.512 510.995C569.382 510.14 569.482 509.867 568.866 509.204C568.343 508.639 559.625 503.251 558.642 502.792C557.613 502.311 556.802 502.181 555.677 502.171C555.145 502.574 554.715 502.653 554.643 503.372C554.525 504.539 555.082 505.595 555.896 506.407C556.837 507.345 557.935 507.755 559.247 507.55C559.464 507.516 559.673 507.447 559.886 507.396L560.244 507.615C560.972 513.193 560.096 519.094 560.031 524.718C559.889 536.883 560.013 549.066 560.023 561.234Q551.914 556.938 543.925 552.425C543.61 532.712 542.979 512.905 544.087 493.212L547.822 489.753C545.195 484.198 543.284 475.978 539.295 471.415C535.009 466.511 485.266 438.589 475.93 433.385C471.647 430.998 474.222 429.234 467.556 427.415C465.471 426.846 464.013 426.297 462.192 425.082C462.019 424.967 461.849 424.848 461.677 424.73C463.478 411.31 462.477 397.279 462.483 383.747L462.696 311.128Z"/>
	<path fill="#051937" transform="scale(0.292969 0.292969)" d="M572.434 511.672C574.131 512.487 575.492 513.096 576.737 514.537C577.243 516.364 577.004 516.801 576.501 518.575C574.685 517.903 572.437 517.126 571.419 515.391C571.291 513.677 571.688 513.184 572.434 511.672Z"/>
	<path fill="#051937" transform="scale(0.292969 0.292969)" d="M545.383 495.092C549.179 495.774 552.184 498.015 554.802 500.735L553.958 500.265C552.575 500.955 551.125 501.748 549.585 502.012C548.74 502.158 547.557 502.077 546.903 501.468C545.25 499.93 545.439 497.16 545.383 495.092Z"/>
	<path fill="#051937" transform="scale(0.292969 0.292969)" d="M473.604 353.113C479.477 354.478 501.541 368.167 507.975 371.72C523.146 380.098 538.845 387.865 553.719 396.731C557.356 398.9 561.227 401.094 564.217 404.132C565.313 417.465 564.43 431.485 564.398 444.899C564.374 454.785 565.413 465.614 563.94 475.371C562.009 475.58 560.437 474.769 558.757 473.908C548.055 468.422 537.997 461.306 527.718 455.055Q500.725 438.757 473.474 422.894C473.502 399.652 473.065 376.347 473.604 353.113Z"/>
	<path fill="#FEFEFE" transform="scale(0.292969 0.292969)" d="M544.52 398.361Q552.525 402.079 560.038 406.711Q560.215 435.554 560.002 464.397C554.545 462.227 549.431 458.649 544.469 455.538Q544.318 426.95 544.52 398.361Z"/>
	<path fill="#FEFEFE" transform="scale(0.292969 0.292969)" d="M523.554 386.791C529.357 389.537 534.857 392.85 540.394 396.087Q540.647 424.475 540.457 452.863C534.443 450.31 528.987 446.434 523.521 442.898L523.554 386.791Z"/>
	<path fill="#FEFEFE" transform="scale(0.292969 0.292969)" d="M500.948 374.128C507.24 377.323 513.359 380.735 519.245 384.633C520.074 403.154 519.634 421.78 519.492 440.317Q510.178 434.947 500.976 429.386Q501.009 413.597 500.878 397.809C500.785 389.934 500.414 381.989 500.948 374.128Z"/>
	<path fill="#FEFEFE" transform="scale(0.292969 0.292969)" d="M477.509 360.812C483.933 364.223 490.195 368.012 496.556 371.551Q496.489 387.562 496.716 403.572C496.859 411.212 497.558 419.344 496.783 426.945C490.502 422.874 483.83 419.345 477.244 415.801Q477.092 388.305 477.509 360.812Z"/>
	<path fill="#FEFEFE" transform="scale(0.292969 0.292969)" d="M236.971 492.116C238.231 492.671 239.076 493.138 240.133 494.058C242.417 498.963 241.018 507.377 240.986 512.823C249.392 519.782 259.418 524.498 268.982 529.624L302.135 547.486C323.816 559.184 344.983 571.868 367.012 582.907L366.457 903.277C349.561 893.458 332.21 884.64 314.981 875.441L237.494 833.835Q236.123 716.48 236.828 599.117C236.85 563.477 235.711 527.742 236.971 492.116Z"/>
	<path fill="#051937" transform="scale(0.292969 0.292969)" d="M242.169 694.251C244.702 694.469 246.786 695.476 249.04 696.578C257.246 700.591 265.185 705.204 273.217 709.555L315.213 732.109L343.322 747.094C349.592 750.432 356.925 753.576 362.345 758.195C362.322 768.962 363.888 804.259 360.755 812.138C358.062 811.758 355.762 810.939 353.308 809.802C342.887 804.972 332.871 798.692 322.703 793.299Q281.823 771.224 240.56 749.873C240.334 740.958 240.502 732.052 240.407 723.138C240.326 715.495 239.754 707.653 240.582 700.052C240.809 697.973 241.412 696.183 242.169 694.251Z"/>
	<path fill="#FEFEFE" transform="scale(0.292969 0.292969)" d="M327.058 747.696C330.851 749.301 334.432 751.416 338.036 753.403C337.898 766.175 337.611 778.914 337.658 791.693C334.443 791.82 329.687 788.201 327.008 786.591L327.058 747.696Z"/>
	<path fill="#FEFEFE" transform="scale(0.292969 0.292969)" d="M308.43 737.727L320.768 744.475Q320.974 763.94 320.566 783.401C316.407 781.427 312.373 779.021 308.321 776.826C307.748 763.787 308.083 750.766 308.43 737.727Z"/>
	<path fill="#FEFEFE" transform="scale(0.292969 0.292969)" d="M341.792 755.623C346.127 757.355 350.319 759.882 354.463 762.043C354.493 774.943 354.839 787.973 354.172 800.856C350.059 798.608 345.853 796.506 341.696 794.339Q341.486 774.98 341.792 755.623Z"/>
	<path fill="#FEFEFE" transform="scale(0.292969 0.292969)" d="M290 727.858C294.752 730.127 299.369 732.652 304.004 735.148C303.992 748.216 304.752 761.453 304.28 774.492C299.271 772.253 294.572 769.354 289.875 766.536L290 727.858Z"/>
	<path fill="#FEFEFE" transform="scale(0.292969 0.292969)" d="M271.025 717.84C276.087 720.156 281.015 722.941 285.951 725.523L285.978 764.96L271.022 757.068L271.025 717.84Z"/>
	<path fill="#FEFEFE" transform="scale(0.292969 0.292969)" d="M247.399 704.609C253.425 707.15 259.111 710.822 264.722 714.156L264.609 753.827L247.371 744.317L247.399 704.609Z"/>
	<path fill="#051937" transform="scale(0.292969 0.292969)" d="M241.937 537.331C244.212 537.336 245.786 537.62 247.877 538.543C268.091 547.472 287.489 559.593 306.847 570.303L336.635 586.667C343.354 590.294 350.268 593.695 356.779 597.685C358.922 598.998 360.693 600.417 362.472 602.193C362.504 611.28 363.962 649.112 361.269 654.908C358.434 654.889 356.534 654.432 353.938 653.285C347.156 650.29 340.673 646.397 334.146 642.876L298.792 623.905L265.22 606.192C257.074 601.897 248.554 597.908 241.135 592.417C240.081 580.059 239.64 549.28 241.937 537.331Z"/>
	<path fill="#FEFEFE" transform="scale(0.292969 0.292969)" d="M327.014 590.823C330.729 592.673 334.34 594.773 337.977 596.772Q337.539 615.908 337.551 635.049C333.629 633.892 330.35 631.713 326.958 629.503Q326.874 610.162 327.014 590.823Z"/>
	<path fill="#FEFEFE" transform="scale(0.292969 0.292969)" d="M308.476 580.384C312.631 582.432 316.631 584.814 320.659 587.1L320.509 626.212C316.39 624.339 312.419 622.211 308.428 620.084C307.774 606.849 308.17 593.623 308.476 580.384Z"/>
	<path fill="#FEFEFE" transform="scale(0.292969 0.292969)" d="M341.534 598.667C346.048 600.635 350.338 603.204 354.647 605.583L354.546 644.433C350.039 642.57 345.939 640.194 341.894 637.483Q341.42 618.078 341.534 598.667Z"/>
	<path fill="#FEFEFE" transform="scale(0.292969 0.292969)" d="M289.998 570.165C294.934 572.313 299.527 575.329 304.091 578.162Q304.261 597.712 303.986 617.261C299.067 615.013 294.487 612.245 289.912 609.381L289.998 570.165Z"/>
	<path fill="#FEFEFE" transform="scale(0.292969 0.292969)" d="M271.052 560.335C276.092 562.768 281.037 565.477 286.01 568.05Q286.027 587.712 285.716 607.371C281.164 607.157 274.989 602.48 271.084 600.139Q270.61 580.237 271.052 560.335Z"/>
	<path fill="#FEFEFE" transform="scale(0.292969 0.292969)" d="M248.051 547.338C253.756 550.155 259.165 553.654 264.579 556.986Q264.705 576.904 264.544 596.822C258.966 594.166 253.708 590.963 248.497 587.663Q247.797 567.506 248.051 547.338Z"/>
	<path fill="#051937" transform="scale(0.292969 0.292969)" d="M241.935 614.68C250.88 616.805 261.229 623.832 269.434 628.247Q293.385 641.111 317.182 654.257L343.779 668.868C350.108 672.352 356.696 675.629 362.484 679.976Q362.284 694.708 362.323 709.441C362.384 715.948 363.029 722.903 362.183 729.337C361.949 731.114 361.568 732.284 360.627 733.804C359.092 733.963 358.006 733.999 356.553 733.389C350.536 730.859 344.704 727.239 338.961 724.106Q323.885 715.819 308.669 707.792L273.302 689.154C262.147 683.396 250.912 678.089 240.552 670.94L240.42 641.491C240.34 634.413 239.695 626.945 240.553 619.91C240.78 618.046 241.272 616.432 241.935 614.68Z"/>
	<path fill="#FEFEFE" transform="scale(0.292969 0.292969)" d="M327.02 669.356C330.738 671.147 334.37 673.166 338.026 675.084Q338.091 694.501 337.639 713.913C334.201 713.967 329.599 710.294 326.823 708.479L327.02 669.356Z"/>
	<path fill="#FEFEFE" transform="scale(0.292969 0.292969)" d="M308.276 659.026C312.473 660.912 316.475 663.283 320.5 665.508L320.515 704.978L308.504 698.949C307.937 685.823 307.12 672.119 308.276 659.026Z"/>
	<path fill="#FEFEFE" transform="scale(0.292969 0.292969)" d="M341.592 676.864C345.967 678.857 350.218 681.285 354.486 683.507L354.502 723.074L341.61 716.43L341.592 676.864Z"/>
	<path fill="#FEFEFE" transform="scale(0.292969 0.292969)" d="M290.241 649.115C294.93 651.234 299.427 653.786 303.953 656.231L304.146 681.721C304.171 686.424 304.66 691.964 303.715 696.561L289.983 688.374C289.611 675.334 288.886 662.113 290.241 649.115Z"/>
	<path fill="#FEFEFE" transform="scale(0.292969 0.292969)" d="M271.058 638.367C276.264 640.701 281.122 643.736 286.031 646.626Q286.145 666.675 285.987 686.724C281.188 683.812 276.1 681.23 271.176 678.525L271.058 638.367Z"/>
	<path fill="#FEFEFE" transform="scale(0.292969 0.292969)" d="M247.544 626.275C253.28 629.047 258.858 632.159 264.469 635.175L264.424 675.267C258.566 672.843 253.09 669.215 247.688 665.925Q247.337 646.101 247.544 626.275Z"/>
	<path fill="#FEFEFE" transform="scale(0.292969 0.292969)" d="M534.378 497.45C534.958 498.3 535.041 499.355 535.076 500.361C535.514 512.721 535.188 525.205 535.202 537.579L535.268 607.934L535.483 820.929C522.021 827.18 508.87 834.261 495.632 840.98C495.386 827.881 495.462 814.717 495.561 801.615C495.613 794.701 496.078 787.557 495.544 780.67C495.4 778.806 495.293 776.632 494.203 775.069C492.114 774.792 490.033 775.511 488.09 776.243C479.503 779.475 470.975 784.492 462.769 788.633C448.746 795.708 434.387 802.607 420.865 810.602C421.065 833.098 422.286 856.411 420.464 878.843Q397.658 890.608 374.524 901.712L374.959 581.488Q406.876 564.056 439.219 547.427L534.378 497.45Z"/>
	<path fill="#051937" transform="scale(0.292969 0.292969)" d="M525.788 523.473C526.567 523.475 527.035 523.62 527.77 523.851C529.523 526.923 528.504 569.699 528.502 577.043C515.493 585.789 500.621 592.208 486.616 599.176Q463.003 611.137 439.579 623.464Q421.924 632.844 404.39 642.446C397.638 646.11 390.744 650.368 383.534 653.025L380.004 649.626Q379.596 624.914 379.801 600.199C396.232 590.142 413.898 582.042 430.966 573.128L525.788 523.473Z"/>
	<path fill="#FEFEFE" transform="scale(0.292969 0.292969)" d="M404.054 595.915L404.917 596.209C406.578 600.759 405.523 626.199 405.498 632.614Q396.989 637.088 388.701 641.957C388.008 642.012 388.412 642.06 387.558 641.535C386.608 629.406 387.42 616.714 387.487 604.534Q395.836 600.35 404.054 595.915Z"/>
	<path fill="#FEFEFE" transform="scale(0.292969 0.292969)" d="M427.829 583.977C428.553 584.026 428.148 583.927 428.982 584.461C429.6 596.468 428.803 608.83 428.754 620.874C423.034 624.12 417.156 626.968 411.198 629.741C410.594 629.837 410.949 629.858 410.19 629.392C409.372 617.433 410.018 605.048 409.991 593.038Q418.854 588.396 427.829 583.977Z"/>
	<path fill="#FEFEFE" transform="scale(0.292969 0.292969)" d="M451.517 570.937L452.166 571.504C453.474 578.421 452.553 599.766 452.335 607.917L434.083 617.492C431.901 615.204 433.3 585.758 433.409 580.688Q442.557 575.986 451.517 570.937Z"/>
	<path fill="#FEFEFE" transform="scale(0.292969 0.292969)" d="M498.174 546.384L498.75 546.458C500.584 548.937 499.676 578.813 499.639 583.953Q490.812 588.23 482.257 593.029L481.238 593.207C479.577 591.121 480.459 560.283 480.478 555.589Q489.398 551.125 498.174 546.384Z"/>
	<path fill="#FEFEFE" transform="scale(0.292969 0.292969)" d="M474.993 558.441C477.346 561.114 476.095 590.759 476.06 595.907L457.66 605.213L456.745 604.686C455.989 600.552 456.43 595.826 456.42 591.615L456.339 568.476L474.993 558.441Z"/>
	<path fill="#FEFEFE" transform="scale(0.292969 0.292969)" d="M522.627 533.537L523.162 534.026C524.605 540.579 523.54 563.254 523.513 571.213Q514.195 576.235 504.692 580.898C502.54 577.827 503.96 548.661 504.026 543.344C509.994 539.656 516.347 536.647 522.627 533.537Z"/>
	<path fill="#051937" transform="scale(0.292969 0.292969)" d="M525.35 679.935C526.527 680.091 526.595 680.158 527.478 680.962C530.051 688.413 528.596 724.365 528.538 733.958Q478.853 758.436 429.687 783.944C414.689 791.733 397.974 802.372 382.626 808.589C382.031 808.295 381.423 807.99 380.962 807.496C377.908 804.227 379.556 762.422 379.723 755.063C386.091 750.046 393.641 746.895 400.843 743.276L426.058 730.452C459.082 713.549 491.976 696.119 525.35 679.935Z"/>
	<path fill="#FEFEFE" transform="scale(0.292969 0.292969)" d="M404.424 750.432C406.792 753.075 405.559 782.732 405.528 787.99C399.763 790.85 394.115 794.032 388.429 797.053C388.399 797.037 388.363 797.028 388.34 797.003C386.592 795.155 387.471 763.997 387.487 759.059C393.187 756.304 398.794 753.327 404.424 750.432Z"/>
	<path fill="#FEFEFE" transform="scale(0.292969 0.292969)" d="M428.004 738.421C428.357 738.513 428.638 738.78 428.946 738.976C429.629 750.188 428.493 764.063 428.527 775.709L410.906 785.067L410.714 784.996C409.052 782.9 409.984 752.457 409.998 747.432Q419.163 743.251 428.004 738.421Z"/>
	<path fill="#FEFEFE" transform="scale(0.292969 0.292969)" d="M498.764 701.98C500.53 704.446 499.524 734.757 499.503 739.755C493.086 742.653 486.83 745.903 480.546 749.077C480.027 744.53 480.298 739.83 480.289 735.255L480.189 711.489C486.457 708.52 492.591 705.151 498.764 701.98Z"/>
	<path fill="#FEFEFE" transform="scale(0.292969 0.292969)" d="M451.135 726.398C451.468 726.478 451.717 726.761 451.997 726.959C453.64 733.349 452.454 755.9 452.395 763.705L434.609 772.529L434.024 772.477C431.868 770.205 432.99 740.657 433.026 735.737Q442.179 731.259 451.135 726.398Z"/>
	<path fill="#FEFEFE" transform="scale(0.292969 0.292969)" d="M522.361 690.485C522.444 690.558 522.541 690.617 522.61 690.703C524.895 693.562 523.56 722.781 523.509 728.062C517.19 730.261 511.211 733.541 505.234 736.522L504.445 736.258C502.776 732.238 503.962 705.397 504.018 699.347C510.063 696.276 516.253 693.434 522.361 690.485Z"/>
	<path fill="#FEFEFE" transform="scale(0.292969 0.292969)" d="M475.103 713.988C477 716.137 475.747 746.427 475.694 751.673Q466.376 756.238 457.224 761.126C454.847 758.541 456.357 728.453 456.463 723.614C462.734 720.541 468.899 717.198 475.103 713.988Z"/>
	<path fill="#051937" transform="scale(0.292969 0.292969)" d="M527.444 601.024C527.546 601.113 527.669 601.182 527.75 601.291C529.604 603.761 528.559 649.586 528.507 656.809C509.416 667.015 489.727 676.027 470.466 685.897L421.777 711.065C413.103 715.585 389.895 729.304 381.67 730.629C380.801 729.254 380.107 727.98 379.822 726.36C378.741 720.218 379.428 713.412 379.494 707.179L379.668 677.032C386.243 672.518 393.704 669.141 400.801 665.527Q416.673 657.503 432.43 649.255L489.233 619.933C501.812 613.388 514.085 605.893 527.444 601.024Z"/>
	<path fill="#FEFEFE" transform="scale(0.292969 0.292969)" d="M404.234 672.461L404.99 672.867C406.566 679.499 405.508 702.211 405.484 710.554C399.818 713.314 394.296 716.364 388.747 719.349C388.058 719.353 388.475 719.429 387.637 718.73C386.672 706.695 387.482 693.979 387.521 681.873Q395.789 677.011 404.234 672.461Z"/>
	<path fill="#FEFEFE" transform="scale(0.292969 0.292969)" d="M427.596 660.445L428.273 660.974C429.1 665.164 428.642 670.055 428.627 674.333L428.533 698.613L411.238 707.561L410.318 706.966C409.668 702.674 409.995 698.01 409.984 693.653L409.949 669.532C415.899 666.68 421.729 663.471 427.596 660.445Z"/>
	<path fill="#FEFEFE" transform="scale(0.292969 0.292969)" d="M498.663 623.976L499.058 624.16C500.47 627.513 499.566 656.1 499.546 662.115Q490.575 666.954 481.411 671.416L480.858 671.032C479.368 665.848 480.398 639.949 480.436 633.042L498.663 623.976Z"/>
	<path fill="#FEFEFE" transform="scale(0.292969 0.292969)" d="M450.786 648.484L451.417 648.532C453.552 650.743 452.445 681.467 452.409 686.402C446.336 689.323 440.362 692.496 434.358 695.559L433.648 695.016C431.768 686.673 433.006 666.784 433.236 657.462C439.042 654.393 444.936 651.471 450.786 648.484Z"/>
	<path fill="#FEFEFE" transform="scale(0.292969 0.292969)" d="M474.866 635.97L475.236 636.159C477.216 639.102 475.915 669.091 475.84 674.442C469.673 677.131 463.703 680.494 457.727 683.592L456.854 683.273C455.466 678.58 456.403 651.974 456.403 645.443Q465.57 640.58 474.866 635.97Z"/>
	<path fill="#FEFEFE" transform="scale(0.292969 0.292969)" d="M522.407 611.478C524.74 613.989 523.533 645.001 523.502 650.155Q514.289 654.692 504.982 659.035L504.271 658.453C503.617 654.233 503.967 649.585 503.959 645.295L503.932 621.029C510.003 617.693 516.235 614.623 522.407 611.478Z"/>
	<path fill="#FEFEFE" transform="scale(0.292969 0.292969)" d="M719.619 307.39L720.161 307.546C721.444 309.862 721.034 314.381 721.079 317.056C721.77 358.273 720.956 399.599 720.977 440.829L721.255 724.17C712.537 729.158 703.663 733.658 694.569 737.923C694.506 726.996 696.108 655.328 693.763 649.63C692.933 649.206 692.701 648.987 691.727 648.983C686.102 648.957 626.705 679.609 622.011 684.344C621.217 685.146 620.801 686.056 620.616 687.162C619.736 692.406 620.335 698.178 620.371 703.491L620.459 733.25L620.519 776.107Q607.043 784.459 592.442 790.638Q591.983 711.054 592.486 631.472L592.481 564.486C592.478 553.365 592.056 542.099 592.517 530.996C593.748 530.355 596.058 531.127 597.53 531.155L597.935 530.37C596.802 527.093 595.238 525.913 592.439 524.006L592.49 375.904C610.81 365.031 629.94 355.186 648.714 345.111Q683.992 325.921 719.619 307.39Z"/>
	<path fill="#051937" transform="scale(0.292969 0.292969)" d="M610.624 535.873C611.845 536.277 612.943 536.714 613.931 537.574C614.887 538.407 615.102 539.168 615.147 540.368C614.52 541.155 614.054 541.508 613.16 541.965C611.072 540.968 609.074 539.762 607.062 538.62L610.624 535.873Z"/>
	<path fill="#051937" transform="scale(0.292969 0.292969)" d="M599.816 529.62C601.803 530.098 604.577 530.94 605.726 532.742C606.634 534.168 606.173 535.49 605.916 537.018C603.941 536.554 601.226 535.721 600.099 533.942C599.207 532.532 599.558 531.154 599.816 529.62Z"/>
	<path fill="#051937" transform="scale(0.292969 0.292969)" d="M690.714 349.518C691.691 349.805 692.957 350.469 693.597 351.26C694.457 352.322 694.448 353.689 694.546 354.979C695.116 362.5 694.589 370.223 694.616 377.778L694.783 425.788C685.707 431.863 675.773 436.74 666.131 441.836L622.517 464.599C622.085 464.6 621.404 464.622 620.996 464.524C620.377 464.376 619.585 464.01 619.237 463.45C616.699 459.364 618.291 397.343 619.239 388.87C626.409 382.633 636.504 379.027 644.897 374.521L690.714 349.518Z"/>
	<path fill="#FEFEFE" transform="scale(0.292969 0.292969)" d="M639.353 386.448C640.05 386.545 639.661 386.428 640.462 386.956C642.18 406.276 641.115 426.336 640.986 445.737C636.364 448.447 631.629 450.982 626.941 453.577L626.144 453.36C624.417 450.085 625.447 401.861 625.501 393.818C630.051 391.248 634.729 388.882 639.353 386.448Z"/>
	<path fill="#FEFEFE" transform="scale(0.292969 0.292969)" d="M686.372 360.938C686.442 360.991 686.52 361.035 686.584 361.097C688.161 362.619 687.518 414.031 687.512 420.637L670.181 430.236C670.026 430.098 669.843 429.986 669.715 429.823C668.196 427.87 669.007 377.261 669.003 370.45C674.857 367.413 680.599 364.128 686.372 360.938Z"/>
	<path fill="#FEFEFE" transform="scale(0.292969 0.292969)" d="M663.77 373.443L664.258 373.546C666.031 376.054 665.321 425.327 665.339 432.871Q655.667 437.823 646.209 443.173L645.383 443.223C643.313 440.138 644.49 391.303 644.512 383.514C651.028 380.46 657.387 376.785 663.77 373.443Z"/>
	<path fill="#051937" transform="scale(0.292969 0.292969)" d="M689.819 441.478C691.289 441.26 691.971 441.399 693.335 441.854C694.562 443.137 694.714 444.171 694.871 445.925C695.667 454.836 694.945 464.242 694.849 473.221Q694.471 495.616 695.039 518.007C686.623 525.365 672.987 530.53 662.897 535.773C649.646 542.658 636.627 549.952 623.227 556.552C621.746 557.043 621.133 556.835 619.789 556.241C618.914 555.072 618.642 554.229 618.498 552.772C617.705 544.76 618.405 536.387 618.434 528.326L618.502 481.269C627.62 472.451 644.789 465.447 656.178 459.318C667.361 453.301 678.216 446.682 689.819 441.478Z"/>
	<path fill="#FEFEFE" transform="scale(0.292969 0.292969)" d="M639.972 477.448L640.327 477.757C641.618 480.424 641.054 530.542 641.103 538.17L626.503 546.069C626.37 545.955 626.221 545.857 626.103 545.728C624.643 544.127 625.452 492.064 625.496 485.282L639.972 477.448Z"/>
	<path fill="#FEFEFE" transform="scale(0.292969 0.292969)" d="M686.346 452.485C686.423 452.558 686.518 452.616 686.578 452.704C688.538 455.582 687.413 505.455 687.399 512.976Q678.505 517.867 669.663 522.854C668.113 517.22 668.805 510.005 668.757 504.112Q668.709 483.178 668.907 462.245Q677.526 457.186 686.346 452.485Z"/>
	<path fill="#FEFEFE" transform="scale(0.292969 0.292969)" d="M664.488 464.648C666.495 467.082 665.25 517.422 665.158 524.975Q655.503 530.481 645.693 535.708C644.84 534.741 644.806 533.567 644.704 532.323C644.165 525.704 644.792 518.808 644.85 512.151L644.885 474.94Q654.57 469.573 664.488 464.648Z"/>
	<path fill="#051937" transform="scale(0.292969 0.292969)" d="M690.881 534.018C691.856 534.274 692.591 534.61 693.492 535.048C696.49 538.993 695.031 602.466 695 610.732C684.166 618.787 671.136 624.396 659.148 630.554Q640.224 640.316 621.727 650.864C620.344 650.672 620.092 650.565 618.975 649.727C616.186 643.522 618.139 583.621 618.61 573.328C627.994 565.25 651.658 554.435 663.292 548.255C672.292 543.474 681.239 537.308 690.881 534.018Z"/>
	<path fill="#FEFEFE" transform="scale(0.292969 0.292969)" d="M639.918 570.009C641.435 571.575 641.284 624.177 641.467 630.644L626.688 638.734L625.805 638.185C624.061 631.135 625.323 622.54 625.372 615.268L625.47 577.973C630.105 575.049 635.086 572.593 639.918 570.009Z"/>
	<path fill="#FEFEFE" transform="scale(0.292969 0.292969)" d="M685.838 545.46L686.668 545.629C688.306 548.666 687.416 598.169 687.393 605.846Q678.994 610.783 670.34 615.257L669.677 614.957C668.412 609.168 668.92 602.36 668.857 596.411Q668.767 575.527 668.948 554.644Q677.37 550.01 685.838 545.46Z"/>
	<path fill="#FEFEFE" transform="scale(0.292969 0.292969)" d="M664.413 557C666.114 559.354 665.1 610.714 665.123 617.631C658.58 621.384 651.916 624.863 645.213 628.32C643.279 620.607 644.731 607.212 644.814 599.022Q644.998 583.169 644.508 567.323Q654.419 562.082 664.413 557Z"/>
	<path fill="#FEFEFE" transform="scale(0.292969 0.292969)" d="M832.83 639.183C842.609 644.263 852.074 649.949 861.685 655.34L919.253 687.67C907.555 694.794 894.857 700.836 882.788 707.379Q834.869 733.313 786.678 758.74Q673.121 820.584 558.598 880.621L451.396 936.575Q417.335 954.063 383.573 972.12C351.269 953.489 318.051 936.576 285.286 918.789L175.686 858.27Q153.461 846.961 131.834 834.547C142.471 826.672 155.574 821.596 167.243 815.39L229.37 781.906L229.519 838.454C237.137 844.774 247.214 848.671 255.961 853.274L298.681 875.997L341.16 898.794C350.508 903.886 359.818 909.972 369.863 913.587C378.288 909.996 386.331 905.265 394.502 901.109L444.074 875.996L504.862 845.417C517.769 838.953 530.797 832.851 543.361 825.72Q543.263 801.504 543.481 777.288C558.051 786.288 573.091 794.355 588.222 802.356C594.861 798 602.217 794.687 609.297 791.113Q623.897 783.702 638.414 776.13C668.339 760.59 697.991 744.073 728.574 729.893C728.774 727.071 728.796 724.225 728.882 721.398C738.952 715.449 749.854 710.393 760.238 704.982Q796.432 686.17 832.835 667.762L832.83 639.183Z"/>
</svg>
