<?xml version="1.0" encoding="utf-8" ?>
<svg xmlns="http://www.w3.org/2000/svg" xmlns:xlink="http://www.w3.org/1999/xlink" width="300" height="300">
	<path fill="#FEFEFE" transform="scale(0.292969 0.292969)" d="M0 0L1024 0L1024 1024L0 1024L0 0Z"/>
	<path fill="#267485" transform="scale(0.292969 0.292969)" d="M845.08 485.454C846.914 485.448 847.9 485.306 849.254 486.592C850.147 488.967 849.497 491.573 849.211 494.033C845.69 524.326 832.547 544.327 808.958 563.03C808.028 563.464 808.413 563.357 807.419 563.538C806.461 563.712 806.543 563.522 805.797 563.002L805.807 561.862C808.049 556.941 815.479 552.226 819.472 548.419C836.788 531.911 844.529 508.894 845.08 485.454Z"/>
	<path fill="#267485" transform="scale(0.292969 0.292969)" d="M338.732 885.381L339.382 885.481C340.747 886.816 341.3 888.902 341.981 890.654C327.077 899.59 311.487 907.785 296.22 916.119C287.089 921.104 277.605 925.697 269.309 932.021L268.763 931.946L265.951 926.36C277.573 919.149 289.755 913.094 301.748 906.555C314.211 899.759 326.447 892.493 338.732 885.381Z"/>
	<path fill="#267485" transform="scale(0.292969 0.292969)" d="M875.77 455.247C876.594 455.34 877.416 455.486 878.236 455.611C878.751 456.099 878.812 456.106 879.242 456.793C880.582 458.932 880.341 463.134 880.634 465.666Q881.078 469.501 881.298 473.356Q881.518 477.21 881.513 481.071Q881.508 484.932 881.278 488.785Q881.048 492.639 880.593 496.473Q880.139 500.307 879.462 504.108Q878.785 507.909 877.888 511.664Q876.991 515.419 875.877 519.115Q874.762 522.812 873.434 526.437C862.495 556.324 837.872 585.672 808.659 599.288L807.509 599.348C806.478 598.505 806.268 598.537 806.059 597.247C806.58 596.23 807.156 595.678 808.058 595.012C810.981 592.855 814.373 591.278 817.457 589.354C821.531 586.811 825.422 583.874 829.17 580.875Q830.535 579.784 831.87 578.657Q833.205 577.529 834.509 576.366Q835.813 575.203 837.084 574.004Q838.356 572.806 839.594 571.573Q840.833 570.341 842.037 569.075Q843.242 567.809 844.411 566.511Q845.581 565.213 846.715 563.883Q847.849 562.554 848.946 561.194Q850.043 559.834 851.103 558.445Q852.163 557.055 853.185 555.638Q854.206 554.22 855.189 552.775Q856.172 551.331 857.114 549.859Q858.057 548.388 858.96 546.892Q859.863 545.396 860.724 543.876Q861.586 542.356 862.406 540.813Q863.225 539.27 864.003 537.705Q864.78 536.14 865.515 534.555Q866.25 532.969 866.941 531.364Q867.632 529.76 868.28 528.137Q868.927 526.514 869.53 524.873Q870.133 523.233 870.691 521.578Q871.249 519.922 871.761 518.251Q872.274 516.581 872.741 514.897Q873.208 513.213 873.629 511.518Q874.051 509.822 874.425 508.115Q874.8 506.408 875.128 504.692Q875.457 502.976 875.738 501.251Q876.019 499.527 876.254 497.795Q876.488 496.064 876.675 494.326Q876.862 492.589 877.002 490.847Q877.142 489.106 877.234 487.361Q877.326 485.616 877.371 483.869C877.659 475.393 874.822 462.807 875.704 455.693C875.723 455.544 875.748 455.395 875.77 455.247Z"/>
	<path fill="#267485" transform="scale(0.292969 0.292969)" d="M443.33 866.551C447.61 868.142 451.808 870.978 455.767 873.239C468.148 880.311 480.06 888.035 492.187 895.517C499.894 900.273 508.286 904.447 515.677 909.639C516.915 910.509 517.744 911.262 518.601 912.506C511.977 911.246 505.166 908.073 498.798 905.784Q473.698 896.756 448.86 887.03C446.783 880.405 444.292 873.433 443.33 866.551Z"/>
	<path fill="#267485" transform="scale(0.292969 0.292969)" d="M903.074 425.744C903.509 425.785 904.396 425.848 904.795 425.971C905.917 426.315 906.212 427.137 906.652 428.128C908.881 433.144 909.505 439.289 910.505 444.694C916.175 475.33 914.332 508.259 903.023 537.455Q902.229 539.492 901.385 541.51Q900.542 543.527 899.649 545.523Q898.757 547.519 897.816 549.493Q896.875 551.467 895.886 553.417Q894.897 555.367 893.86 557.292Q892.824 559.218 891.741 561.117Q890.658 563.017 889.529 564.89Q888.4 566.762 887.225 568.606Q886.05 570.451 884.831 572.266Q883.612 574.081 882.349 575.866Q881.086 577.651 879.779 579.404Q878.473 581.157 877.124 582.878Q875.775 584.599 874.384 586.287Q872.994 587.974 871.562 589.627Q870.131 591.28 868.66 592.898Q867.189 594.516 865.678 596.097Q864.168 597.678 862.619 599.222Q861.071 600.765 859.485 602.271Q857.899 603.776 856.277 605.243Q854.655 606.709 852.997 608.135Q851.34 609.561 849.648 610.947Q847.956 612.332 846.231 613.676Q844.506 615.019 842.749 616.32Q840.991 617.621 839.203 618.879Q837.414 620.137 835.595 621.35Q833.776 622.564 831.928 623.733Q830.08 624.902 828.204 626.025Q826.328 627.148 824.426 628.226Q822.523 629.303 820.594 630.333Q818.666 631.364 816.712 632.347Q814.759 633.33 812.783 634.265Q810.806 635.2 808.807 636.086C807.648 635.471 807.546 635.438 806.957 634.278C807.695 632.145 809.386 631.557 811.27 630.554C827.405 621.963 840.567 613.665 854.203 601.399C893.005 566.492 915.005 513.625 908.912 461.35C908.177 455.043 907.194 448.465 905.721 442.289C904.724 438.111 902.435 432.791 902.279 428.586C902.234 427.353 902.521 426.804 903.074 425.744Z"/>
	<path fill="#267485" transform="scale(0.292969 0.292969)" d="M930.663 397.708C931.629 397.795 932.317 397.956 933.211 398.334C934.336 399.821 935.003 401.376 935.606 403.124Q936.435 405.598 937.205 408.092Q937.974 410.585 938.683 413.096Q939.392 415.608 940.04 418.135Q940.688 420.663 941.274 423.206Q941.861 425.748 942.386 428.305Q942.911 430.861 943.375 433.429Q943.838 435.997 944.239 438.575Q944.64 441.153 944.979 443.741Q945.317 446.328 945.593 448.923Q945.87 451.518 946.083 454.119Q946.296 456.719 946.447 459.324Q946.597 461.93 946.684 464.537Q946.772 467.145 946.796 469.755Q946.821 472.364 946.782 474.973Q946.743 477.582 946.642 480.19Q946.54 482.797 946.376 485.402Q946.211 488.006 945.984 490.605Q945.756 493.205 945.466 495.798Q945.176 498.391 944.823 500.977Q944.47 503.562 944.055 506.139Q943.64 508.715 943.163 511.28Q942.686 513.846 942.147 516.399Q941.608 518.952 941.007 521.492Q940.407 524.031 939.745 526.555Q939.083 529.079 938.361 531.587Q937.639 534.094 936.856 536.583Q936.073 539.073 935.23 541.542Q934.387 544.012 933.485 546.461Q932.583 548.909 931.622 551.335Q930.661 553.761 929.642 556.163Q928.622 558.565 927.545 560.942Q926.468 563.319 925.334 565.669C905.498 605.961 873.795 638.167 834.749 660.046C826.607 664.608 817.855 669.474 809.004 672.474C808.088 672.121 807.604 671.728 806.902 671.048C807.12 667.326 817.058 664.618 820.041 663.119C861.626 642.226 894.637 613.339 917.263 572.258Q918.688 569.675 920.038 567.052Q921.388 564.429 922.662 561.768Q923.936 559.107 925.132 556.41Q926.328 553.714 927.446 550.984Q928.564 548.253 929.603 545.492Q930.641 542.731 931.599 539.941Q932.558 537.151 933.435 534.334Q934.312 531.517 935.107 528.676Q935.903 525.835 936.616 522.973Q937.329 520.11 937.959 517.228Q938.589 514.346 939.135 511.447Q939.682 508.548 940.144 505.634Q940.607 502.721 940.985 499.795Q941.363 496.869 941.656 493.934Q941.949 490.998 942.158 488.055Q942.366 485.113 942.489 482.165C943.089 464.501 941.805 446.535 937.825 429.284C936.806 424.871 929.568 401.137 929.866 399.413C929.973 398.795 930.398 398.276 930.663 397.708Z"/>
	<path fill="#267485" transform="scale(0.292969 0.292969)" d="M724.353 690.946C731.644 693.767 744.185 702.987 751.533 707.472C770.879 719.281 790.649 730.525 809.793 742.641Q763.691 727.507 718.1 710.896C712.537 713.239 707.237 716.377 701.904 719.207Q690.45 725.262 678.902 731.137C663.807 738.828 647.881 745.595 633.34 754.283C639.212 758.138 645.676 761.405 651.782 764.905Q668.834 774.749 685.62 785.04C693.483 789.833 701.642 794.555 708.949 800.157C699.665 798.269 690.11 793.915 681.21 790.63C658.146 782.117 635.305 772.536 611.923 764.928C593.114 775.95 573.414 785.086 554.103 795.148C546.839 798.933 539.255 802.53 532.346 806.935C540.261 811.544 547.894 816.638 555.813 821.261Q575.13 832.978 594.172 845.138C600.663 849.223 607.418 852.965 613.692 857.374C598.592 853.729 581.491 845.639 566.919 839.847C547.735 832.22 528.368 825.352 509.433 817.086C504.406 819.425 499.621 822.289 494.65 824.755C476.519 833.748 458.533 843.051 440.188 851.606Q438.183 844.008 436.262 836.388C445.089 832.783 453.466 828.198 462.007 823.982Q484.371 813.056 506.578 801.813L662.446 722.084C682.925 711.596 703.163 699.917 724.353 690.946Z"/>
	<path fill="#0C263B" transform="scale(0.292969 0.292969)" d="M337.7 196.702C346.609 195.717 357.022 197.504 365.361 200.671C374.185 204.022 383.393 209.822 387.197 218.85C389.793 225.011 389.071 230.307 386.681 236.301Q388.311 242.269 389.766 248.282C389.239 249.999 388.512 251.647 387.826 253.304C390.049 257.501 399.068 267.143 399.249 270.266C399.487 274.398 395.861 277.386 393.307 280.133C393.489 280.569 393.671 281.005 393.833 281.449C393.901 281.634 393.965 281.821 394.034 282.006C394.34 282.826 394.568 283.517 394.594 284.409C394.72 288.674 394.314 295.601 391.44 298.787Q391.44 300.515 391.367 302.241C391.2 305.762 389.999 309.367 387.231 311.7C382.801 315.434 375.437 315.303 369.967 314.869L366.714 331.328C371.187 336.371 376.986 341.951 378.989 348.524C381.163 355.658 377.981 361.907 374.739 368.067C375.048 374.183 375.286 380.265 375.977 386.356C377.572 400.412 380.027 414.229 379.631 428.449C379.322 439.539 376.671 450.299 375.287 461.263C374.137 470.371 374.186 479.902 374.814 489.062C376.13 508.244 381.614 526.78 383.415 545.85C384.805 560.559 383.582 575.396 385.055 590.012C386.888 608.196 391.404 626.204 393.584 644.4C395.745 662.434 396.323 680.673 397.715 698.779C398.685 711.387 400.378 723.973 401.962 736.517C404.622 757.59 408.473 778.511 411.737 799.497L428.33 910.545L432.004 912.758C434.04 918.728 435.34 925.18 436.368 931.399C434.77 934.489 432.385 936.611 429.848 938.909C433.988 943.882 438.215 945.812 444.494 947.071C450.603 948.296 456.398 948.357 462.569 947.573C472.572 946.302 482.528 942.21 492.423 946.298C495.356 947.51 497.814 949.36 498.91 952.438C499.885 955.176 499.848 958.14 498.475 960.728C492.476 972.037 463.953 977.99 452.018 980.452C445.692 981.756 438.725 982.491 432.663 984.748C429.627 985.878 426.827 988.142 424.002 989.745C418.57 992.826 412.616 995.197 406.613 996.904C400.397 998.672 391.6 1000.67 385.711 997.15C374.419 990.411 379.282 969.734 379.669 959.429C379.839 954.907 379.357 950.762 378.355 946.361L377.384 946.077C376.076 945.705 374.51 945.425 373.447 944.526C369.38 941.084 369.208 933.211 368.724 928.296C369.599 927.135 370.622 926.11 371.615 925.049C361.734 889.243 348.782 854.134 337.014 818.917Q329.407 795.954 321.371 773.138C318.533 764.903 316.112 756.141 312.409 748.255C309.506 752.389 307.158 757.185 304.673 761.587Q298.826 772.032 292.592 782.25C287.685 791.014 282.149 799.452 277.113 808.149Q254.287 848.122 230.408 887.474C225.93 894.774 221.478 902.118 216.793 909.288C212.404 916.003 206.556 922.875 203.74 930.422C205.337 933.155 207.688 935.647 209.718 938.08C212.091 940.925 214.685 944.197 217.834 946.211C225.484 951.105 240.761 948.9 250.881 955.052C254.138 957.031 256.881 959.843 257.608 963.698C258.286 967.289 257.204 972.071 255.104 975.056C252.377 978.933 246.732 980.432 242.298 981.26C227.969 983.935 198.073 985.856 185.559 977.051C177.696 971.519 170.452 963.72 163.262 957.264C154.973 949.822 142.303 940.181 135.622 931.777C134.349 930.176 133.376 928.149 133.096 926.111C132.008 918.201 141.538 910.615 147.332 906.577C149.996 904.721 152.609 903.566 154.653 900.911C158.891 895.407 160.899 887.485 163.176 880.986C169.61 862.623 174.363 843.33 182.281 825.576C188.948 810.629 200.932 798.223 209.078 784.004C215.447 772.887 221.746 761.28 226.431 749.337C239.424 716.212 250.588 662.056 246.904 626.511C246.368 621.338 243.376 617.152 241.751 612.271C238.891 603.677 237.147 595.077 236.047 586.108L235.128 586.21C228.566 586.877 217.556 588.323 212.214 583.574C209.832 581.457 209.06 578.488 209.029 575.395C208.928 565.224 214.806 551.958 217.628 542.007C219.899 533.998 221.768 525.847 223.626 517.732Q232.08 479.874 239.611 441.821C244.517 416.303 248.366 389.339 257.897 365.061C265.747 345.067 276.994 328.256 292.182 313.1C292.812 301.859 301.947 298.17 301.87 291.69C301.778 283.935 281.176 267.917 279.301 249.108C278.451 240.577 280.604 232.023 286.244 225.43C291.242 219.587 297.262 217.56 304.66 216.891C306.057 214.235 307.442 211.575 309.394 209.272C316.813 200.519 326.636 197.637 337.7 196.702Z"/>
	<path fill="#153549" transform="scale(0.292969 0.292969)" d="M344.808 274.004C345.01 273.814 345.216 273.628 345.414 273.434C346.792 272.085 347.192 270.938 347.251 269.046C347.297 267.535 347.326 266.137 348.293 264.967C349.405 265.545 349.696 266.138 350.071 267.301C350.615 268.989 350.478 271.384 349.59 272.93C349.118 273.751 348.787 273.92 347.842 274.162C347.029 274.37 345.994 274.331 345.15 274.37L344.808 274.004Z"/>
	<path fill="#FEFEFE" transform="scale(0.292969 0.292969)" d="M345.15 274.37C345.689 276.415 346.372 277.236 347.488 278.936C348.315 280.196 348.345 280.267 348.1 281.688C347.412 281.645 347.092 281.514 346.537 281.094C342.711 278.198 338.914 273.06 338.236 268.213C337.88 265.665 338.392 262.822 340.118 260.836C341.13 259.673 342.029 259.472 343.512 259.391C344.648 259.922 345.36 260.369 346.238 261.268C345.987 261.29 345.737 261.317 345.486 261.333C343.494 261.466 341.702 261.372 340.301 263.091C339.299 264.32 339.19 265.849 339.477 267.344C340.069 270.421 341.768 272.077 344.317 273.698L344.808 274.004L345.15 274.37Z"/>
	<path fill="#FEFEFE" transform="scale(0.292969 0.292969)" d="M355.988 307.644C359.618 310.196 363.327 312.384 367.373 314.207Q365.738 321.244 363.872 328.224C361.814 328.061 355.121 320.601 353.203 318.791C354.426 315.148 355.179 311.394 355.988 307.644Z"/>
	<path fill="#FEFEFE" transform="scale(0.292969 0.292969)" d="M493.367 956.433L493.825 957.221C493.364 959.246 491.387 960.653 489.736 961.748C479.415 968.588 459.744 973.101 447.451 975.72C441.698 976.945 435.586 977.764 430.023 979.684C420.142 983.094 413.675 989.02 402.019 991.807C396.939 993.022 392.3 993.1 387.171 992.077C386.687 991.268 386.454 990.653 386.261 989.731C387.803 988.805 391.258 989.876 393.226 989.872C407.194 989.847 418.909 981.962 431.793 978.07C449.968 972.578 479.877 970.562 493.367 956.433Z"/>
	<path fill="#FEFEFE" transform="scale(0.292969 0.292969)" d="M372.87 564.445C373.891 566.239 374.514 570.452 374.299 572.471C373.92 576.02 371.31 578.925 368.601 581.011C362.694 585.561 356.607 587.213 349.245 586.252C348.277 585.808 347.66 585.554 347.025 584.679C348.583 583.026 352.056 582.581 354.239 581.638C362.303 578.155 367.958 571.472 372.87 564.445Z"/>
	<path fill="#FEFEFE" transform="scale(0.292969 0.292969)" d="M138.874 921.719C142.654 924.307 146.015 929.18 149.385 932.429C156.791 939.568 164.484 946.411 171.987 953.447C177.249 958.383 182.244 963.954 188.063 968.236C200.289 977.233 223.354 977.628 237.91 975.138C241.864 974.461 245.637 972.657 249.475 972.07L248.83 972.805C235.438 979.59 211.991 979.305 197.699 975.929C194.419 975.155 191.613 974.095 188.846 972.13C183.25 968.157 140.874 929.716 138.934 926.063C138.095 924.483 138.452 923.343 138.874 921.719Z"/>
	<path fill="#FEFEFE" transform="scale(0.292969 0.292969)" d="M373.537 582.984L374.013 583.741C373.814 586.535 373.071 589.221 372.138 591.853C368.155 603.088 362.255 612.83 351.171 618.095C350.673 616.128 350.352 614.106 349.974 612.112C348.546 604.803 346.712 597.576 344.955 590.341C347.861 591.3 350.879 592.057 353.954 592.13C362.032 592.32 367.908 588.206 373.537 582.984Z"/>
	<path fill="#FEFEFE" transform="scale(0.292969 0.292969)" d="M427.48 918.949C427.638 919.068 427.829 919.154 427.956 919.306C429.837 921.578 430.108 926.91 430.457 929.789C429.101 931.313 427.509 932.766 425.889 934.013C413.122 943.84 393.625 943.015 378.57 940.906L377.13 940.321C375.389 937.734 375.379 933.792 375.024 930.745C391.182 932.729 414.063 928.475 427.48 918.949Z"/>
	<path fill="#FEFEFE" transform="scale(0.292969 0.292969)" d="M317.713 553.948C317.891 553.998 318.082 554.014 318.248 554.096C323.39 556.65 333.775 583.423 337.243 589.844C325.14 587.27 313.539 584.426 301.873 580.264C291.519 576.619 281.304 572.797 271.205 568.487C291.762 552.827 296.9 561.145 317.713 553.948Z"/>
	<path fill="#FEFEFE" transform="scale(0.292969 0.292969)" d="M155.047 908.384C156.614 908.793 157.728 910.422 158.877 911.559C169.306 921.879 182.838 932.112 198.195 932.043C203.096 937.939 209.341 949.927 216.96 952.334C226.308 955.287 244.908 955.862 251.667 962.963C251.835 963.698 252.142 964.093 251.7 964.779C249.811 967.715 242.453 968.991 239.24 969.765C231.649 970.891 224.021 971.436 216.349 971.054C208.744 970.675 200.894 969.619 194.063 966.049C184.682 961.146 173.42 947.952 165.393 940.376C157.761 933.173 149.525 926.345 142.489 918.556C146.312 914.492 150.394 911.453 155.047 908.384Z"/>
	<path fill="#FEFEFE" transform="scale(0.292969 0.292969)" d="M424.055 941.982C426.132 942.13 429.855 947.274 431.969 948.876C435.415 951.486 441.199 952.581 445.416 953.18C449.251 953.725 453.287 953.988 457.149 953.656C465.294 952.954 482.355 947.767 489.228 950.949C490.018 951.934 490.047 951.875 489.976 953.127C484.43 961.385 449.482 968.148 438.622 970.678C428.305 973.239 418.888 977.974 408.786 981.128C403.586 982.752 390.785 986.659 385.751 983.403C384.651 982.692 384.106 981.919 383.898 980.62C383.42 977.644 384.294 973.638 384.615 970.632C385.49 962.42 385.784 955.596 384.167 947.432C398.866 948.016 410.295 947.748 424.055 941.982Z"/>
	<path fill="#FEFEFE" transform="scale(0.292969 0.292969)" d="M376.638 229.902C380.815 234.885 382.405 243.499 383.163 249.754C381.932 250.647 380.873 251.616 379.858 252.744C378.518 254.231 376.673 255.961 376.786 258.046L377.62 258.3C379.604 257.829 381.407 256.518 383.145 255.48C386.41 260.953 389.602 266.434 393.635 271.388C391.434 272.92 389.169 274.398 388.224 277.047C387.463 279.184 389.227 281.575 390.137 283.462C389.961 285.953 388.02 287.346 386.323 289.082L389.112 293.753L386.485 297.795C386.588 300.263 386.948 302.899 385.491 305.056C384.104 307.108 381.892 308.257 379.497 308.67C372.201 309.928 363.075 306.863 357.996 301.626C356.317 299.895 355.118 297.27 353.23 295.885L352.422 296.34C351.24 299.205 351.255 302.701 350.827 305.788C349.796 308.827 348.984 311.946 348.117 315.036C340.758 310.066 332.779 306.013 324.956 301.831C330.533 294.776 334.915 287.556 338.585 279.344C339.814 281.298 341.105 283.18 343.004 284.549C344.898 285.914 348.814 287.608 351.204 286.88C352.393 286.519 353.209 285.944 353.861 284.874C356.159 281.105 355.675 267.553 354.583 263.115C359.409 258.139 364.945 253.828 369.595 248.694C374.754 242.999 377.031 237.64 376.638 229.902Z"/>
	<path fill="#FEFEFE" transform="scale(0.292969 0.292969)" d="M305.445 299.425C317.445 303.457 329.783 309.924 340.341 316.912C349.481 322.962 371.552 341.492 373.456 352.572C374.443 358.314 371.56 362.401 368.41 366.821C368.818 386.45 374.144 405.791 374.045 425.311C373.99 436.206 371.414 445.921 370.028 456.558C368.721 466.592 368.936 476.871 369.521 486.956C370.372 501.637 373.678 515.727 375.841 530.201C377.296 539.932 377.731 549.742 378.444 559.546C378.87 565.408 379.977 571.856 379.096 577.676C378.641 573.473 378.112 569.316 377.4 565.148C377.348 564.947 377.293 564.747 377.245 564.545C377.171 564.235 377.107 563.923 377.036 563.613C376.403 560.857 376.574 558.064 376.621 555.255C373.269 549.412 369.109 544.13 365.884 538.163C359.983 527.243 355.381 515.309 349.97 504.101L355.093 503.111C357.424 499.879 358.787 496.805 360.025 493.062C363.478 482.627 366.781 471.648 368.283 460.747C370.981 441.174 369.583 388.39 362.93 370.555C356.052 352.117 344.136 337.58 328.17 326.181Q318.765 319.6 308.379 314.709C306.342 313.774 299.215 311.582 298.291 309.731C299.706 305.817 302.763 302.53 305.445 299.425Z"/>
	<path fill="#FEFEFE" transform="scale(0.292969 0.292969)" d="M336.799 202.686Q338.641 202.515 340.49 202.465C352.318 202.204 367.579 205.365 376.261 214.017C379.645 217.389 382.704 221.924 382.673 226.842C382.672 227 382.667 227.157 382.663 227.314L383.453 227.781L382.582 227.838C382.403 228.611 382.023 229.225 381.658 229.924C381.055 228.93 380.447 227.917 379.738 226.994C375.796 221.869 367.998 219.44 361.859 218.527C366.186 222.79 369.237 226.336 371.435 232.088C368.622 244.58 359.555 250.848 350.908 259.251C349.934 257.968 348.854 256.612 347.415 255.83C345.015 254.527 341.669 254.41 339.135 255.377C336.903 256.228 335.222 257.914 334.253 260.083C332.14 264.813 333.206 270.175 335.015 274.799C330.458 283.631 324.886 291.409 318.796 299.211L308.201 293.876C306.936 277.468 285.969 266.573 284.83 246.507C284.487 240.456 286.235 233.711 290.418 229.162C295.151 224.015 301.397 222.679 308.062 222.402C309.342 219.938 310.575 217.351 312.235 215.119C318.387 206.846 326.985 203.966 336.799 202.686Z"/>
	<path fill="#FEFEFE" transform="scale(0.292969 0.292969)" d="M252.483 630.898C268.38 643.809 303.485 718.761 310.018 741.577C306.438 746.537 303.69 752.117 300.661 757.424C296.648 764.456 292.388 771.358 288.203 778.289Q268.788 810.315 250.01 842.719C235.911 867.078 221.919 891.914 205.949 915.11C203.249 919.101 200.604 923.199 197.289 926.712C182.221 923.468 171.086 915.403 160.31 904.67Q168.981 882.542 176.353 859.949C180.023 848.891 182.876 837.542 187.967 827.019C191.034 820.678 195.233 814.991 199.212 809.207C205.252 800.429 211.318 791.81 216.626 782.563C221.777 773.592 226.91 764.319 230.762 754.702C243.937 721.814 256.324 666.174 252.483 630.898Z"/>
	<path fill="#153549" transform="scale(0.292969 0.292969)" d="M246.494 754.371C247.021 754.678 247.537 755.101 248.033 755.459C248.158 756.068 248.207 756.097 248.114 756.817C247.521 761.432 237.132 772.168 233.328 775.007L232.009 774.372L231.869 773.518C233.336 769.554 243.141 758.895 246.494 754.371Z"/>
	<path fill="#0C263B" transform="scale(0.292969 0.292969)" d="M265.938 756.82C266.392 756.854 266.927 757.069 267.367 757.196L267.817 758.179C265.89 765.332 230.712 796.883 223.1 802.941C216.114 808.501 208.58 813.474 201.253 818.576L200.477 818.624C199.673 817.656 199.554 817.493 199.364 816.257C200.265 814.754 224.106 797.072 228.015 793.658C241.34 782.017 252.848 768.621 265.938 756.82Z"/>
	<path fill="#FEFEFE" transform="scale(0.292969 0.292969)" d="M296.381 316.367C319.521 323.746 340.911 340.845 352.476 362.218Q353.865 364.742 355.063 367.363Q356.261 369.984 357.261 372.686Q358.26 375.388 359.056 378.158Q359.852 380.927 360.44 383.748C363.512 398.945 364.863 445.432 362.592 460.558C360.885 471.931 356.652 482.868 353.344 493.819C352.514 496.564 351.677 500.138 349.024 501.556C345.012 497.144 340.848 485.093 338.143 479.215C345.637 470.903 346.499 444.867 350.105 433.479C351.753 428.274 355.322 424.176 357.39 419.19L357.001 418.461L355.92 418.395C338.796 425.874 343.348 462.234 334.364 474.143C331.381 474.271 328.396 473.983 325.409 474.134C323.191 474.246 319.783 474.24 318.229 475.979L318.323 476.598C321.568 478.308 327.635 477.913 331.389 478.075C342.436 498.513 349.941 520.854 360.846 541.357C363.568 546.476 367.341 550.792 370.354 555.703L370.636 556.171Q370.28 557.247 369.856 558.297Q369.432 559.348 368.942 560.37Q368.452 561.392 367.898 562.38Q367.344 563.369 366.728 564.32Q366.112 565.271 365.437 566.181Q364.762 567.091 364.031 567.957Q363.299 568.822 362.514 569.639Q361.729 570.456 360.894 571.222C354.444 577.223 347.414 580.273 338.543 579.931C329.686 559.74 319.368 542.201 305.136 525.317C295.968 514.441 286.089 505.478 279.331 492.696C277.134 488.117 275.503 483.687 275.412 478.549C275.277 470.881 277.782 463.078 279.91 455.788C285.095 438.026 293.306 418.807 294.719 400.383C287.901 410.848 276.936 443.502 273.486 456.719C271.498 464.335 269.158 472.478 269.584 480.413C270.653 500.337 291.183 517.774 303.308 532.181Q310.153 540.39 315.523 549.631C304.644 552.59 292.947 550.868 282.481 555.098C275.539 557.904 269.876 562.746 263.821 567.02C255.751 572.716 245.76 577.523 236.155 579.902C231.57 581.038 220.117 583.112 216.257 580.05C215.001 579.053 214.64 577.238 214.59 575.724C214.314 567.42 221.572 550.017 223.989 541.169C226.744 531.082 228.96 520.743 231.253 510.54Q240.274 470.368 248.309 429.988C252.786 407.891 256.198 385.136 264.52 364.053C271.403 346.617 283.301 329.733 296.381 316.367Z"/>
	<path fill="#153549" transform="scale(0.292969 0.292969)" d="M307.729 364.842L308.275 365.416C308.482 368.221 302.233 375.788 300.574 378.475C295.87 386.095 291.499 395.253 288.339 403.637C286.37 408.859 285.011 415.143 282.137 419.894C280.916 417.654 281.32 415.713 281.662 413.31C283.816 398.189 295.283 374.093 307.729 364.842Z"/>
	<path fill="#FEFEFE" transform="scale(0.292969 0.292969)" d="M265.238 572.954C269.173 572.86 284.995 580.229 290.136 582.196C306.691 588.531 322.437 592.973 340.083 595.133C342.498 604.327 344.868 613.322 346.104 622.765C342.008 625.167 336.663 626.382 332.967 629.28C332.025 630.019 332.253 629.889 332.139 630.945L333.115 631.474C339.385 631.203 348.011 627.039 353.531 624.011C369.552 615.223 373.963 604.285 378.848 587.549C381.825 607.625 385.816 627.59 387.964 647.778C390.975 676.067 391.858 704.435 395.599 732.686C402.672 786.107 412.822 839.04 419.86 892.449L423.262 915.373C410.427 924.317 393.091 925.699 377.938 925.589C375.664 916.899 372.647 908.261 369.953 899.688C363.373 878.746 356.36 857.987 349.453 837.154L332.372 786.875C324.308 763.026 316.249 739.136 306.285 715.998C300.281 702.053 293.621 688.515 286.889 674.915C281.556 664.141 276.154 652.851 269.703 642.7C264.048 633.803 254.905 627.316 250.351 617.709C245.409 607.283 243.273 595.643 241.5 584.325C249.846 580.926 257.537 577.718 265.238 572.954Z"/>
	<path fill="#153549" transform="scale(0.292969 0.292969)" d="M358.208 686.183L360.182 686.552C364.301 690.278 379.022 730.173 379.525 736.868C378.598 737.035 378.25 736.988 377.399 736.585C374.298 731.508 370.806 718.46 368.429 712.192C365.168 703.596 360.754 694.988 358.208 686.183Z"/>
	<path fill="#267485" transform="scale(0.292969 0.292969)" d="M725.544 30.2425Q728.161 30.2205 730.778 30.2603Q733.394 30.3 736.009 30.4016Q738.624 30.5031 741.236 30.6664Q743.848 30.8297 746.456 31.0545Q749.063 31.2794 751.664 31.5658Q754.266 31.8522 756.859 32.1999Q759.453 32.5477 762.038 32.9565Q764.623 33.3654 767.197 33.8352Q769.772 34.305 772.334 34.8354Q774.897 35.3659 777.447 35.9567Q779.996 36.5475 782.531 37.1983Q785.066 37.8492 787.584 38.5597Q790.103 39.2702 792.604 40.0399Q795.105 40.8097 797.588 41.6383Q800.07 42.4669 802.532 43.3539Q804.994 44.2409 807.435 45.1858Q809.875 46.1307 812.293 47.133Q814.71 48.1352 817.104 49.1942Q819.497 50.2533 821.864 51.3685Q824.232 52.4838 826.572 53.6546Q828.913 54.8255 831.225 56.0513Q833.537 57.277 835.82 58.5571Q838.102 59.8371 840.354 61.1706Q842.606 62.5042 844.825 63.8906Q847.045 65.2769 849.231 66.7153Q851.417 68.1537 853.569 69.6433Q855.721 71.1329 857.837 72.6729Q859.953 74.2129 862.032 75.8024Q864.111 77.3919 866.152 79.0301Q868.193 80.6682 870.194 82.3541Q872.196 84.04 874.157 85.7727Q876.118 87.5054 878.038 89.2839C886.663 97.3768 894.271 106.396 901.468 115.765C929.078 151.711 945.262 192.635 946.691 238.129C948.422 293.218 928.903 351.338 890.797 391.801C847.296 437.993 795.239 464.258 731.375 466.122Q730.544 466.164 729.712 466.186C674.809 467.379 620.783 444.846 581.09 407.361C537.229 365.941 512.503 311.912 510.787 251.547Q510.724 248.914 510.725 246.281Q510.727 243.648 510.793 241.015Q510.859 238.383 510.99 235.753Q511.12 233.123 511.315 230.497Q511.511 227.871 511.77 225.25Q512.03 222.63 512.354 220.016Q512.678 217.403 513.066 214.798Q513.453 212.194 513.905 209.6Q514.357 207.005 514.872 204.423Q515.387 201.84 515.966 199.271Q516.544 196.702 517.186 194.148Q517.827 191.594 518.531 189.057Q519.235 186.519 520.001 184Q520.766 181.481 521.594 178.981Q522.422 176.481 523.31 174.002Q524.199 171.523 525.148 169.067Q526.097 166.61 527.106 164.178Q528.116 161.746 529.184 159.339Q530.253 156.933 531.38 154.553Q532.508 152.173 533.693 149.822Q534.879 147.47 536.121 145.149Q537.364 142.827 538.664 140.537Q539.963 138.246 541.318 135.988Q542.673 133.731 544.084 131.507Q545.494 129.283 546.958 127.094Q548.423 124.906 549.94 122.754Q551.458 120.602 553.028 118.488Q554.598 116.374 556.22 114.299Q557.841 112.224 559.513 110.189Q561.185 108.155 562.906 106.162Q564.628 104.169 566.397 102.219Q568.167 100.269 569.984 98.3634Q571.868 96.3969 573.8 94.4775Q575.733 92.558 577.711 90.6867Q579.69 88.8153 581.714 86.9933Q583.739 85.1713 585.807 83.3996Q587.876 81.628 589.987 79.9078Q592.099 78.1876 594.252 76.52Q596.405 74.8523 598.599 73.2382Q600.793 71.6241 603.025 70.0644Q605.258 68.5048 607.528 67.0006Q609.799 65.4964 612.106 64.0485Q614.412 62.6007 616.754 61.2101Q619.096 59.8195 621.471 58.487Q623.846 57.1544 626.254 55.8808Q628.661 54.6072 631.099 53.3932Q633.537 52.1792 636.004 51.0256Q638.471 49.8721 640.966 48.7796Q643.461 47.6871 645.982 46.6564Q648.503 45.6256 651.048 44.6573Q653.594 43.6889 656.163 42.7835Q658.731 41.8782 661.321 41.0363Q663.911 40.1944 666.522 39.4166Q669.132 38.6388 671.76 37.9254Q674.388 37.2121 677.034 36.5637Q679.679 35.9153 682.339 35.3322Q685 34.7491 687.674 34.2317Q690.347 33.7143 693.033 33.2629Q695.719 32.8115 698.415 32.4264Q701.111 32.0413 703.816 31.7226Q706.521 31.404 709.233 31.152Q711.945 30.9001 714.662 30.715Q717.379 30.5299 720.1 30.4118Q722.821 30.2936 725.544 30.2425Z"/>
	<path fill="#FEFEFE" transform="scale(0.292969 0.292969)" d="M718.568 42.2114Q720.982 42.0924 723.398 42.0303Q725.813 41.9683 728.23 41.9632Q730.647 41.958 733.063 42.0099Q735.479 42.0617 737.893 42.1704Q740.307 42.2792 742.718 42.4448Q745.129 42.6104 747.536 42.8328Q749.942 43.0552 752.343 43.3342Q754.743 43.6133 757.136 43.9488Q759.53 44.2843 761.914 44.6762Q764.299 45.068 766.674 45.5159Q769.048 45.9638 771.412 46.4676Q773.776 46.9714 776.127 47.5307Q778.478 48.09 780.815 48.7046Q783.152 49.3191 785.474 49.9886Q787.796 50.6581 790.102 51.3821Q792.407 52.1061 794.695 52.8843Q796.983 53.6624 799.252 54.4942Q801.521 55.3261 803.77 56.2112Q806.019 57.0963 808.246 58.0341Q810.473 58.9719 812.678 59.962Q814.882 60.9521 817.063 61.9938Q819.243 63.0355 821.399 64.1284Q823.554 65.2212 825.683 66.3645Q827.812 67.5079 829.914 68.7011Q832.016 69.8942 834.088 71.1366Q836.161 72.379 838.204 73.6699Q840.247 74.9608 842.259 76.2994Q844.271 77.6381 846.251 79.0238Q848.231 80.4095 850.178 81.8415Q852.124 83.2735 854.037 84.751Q855.949 86.2284 857.826 87.7505Q859.703 89.2727 861.544 90.8386C904.405 127.484 930.447 176.983 934.751 233.341C938.616 283.968 920.449 339.946 887.275 378.517C849.523 422.41 798.084 449.964 740.125 454.422Q737.615 454.56 735.103 454.637Q732.591 454.713 730.078 454.727Q727.565 454.742 725.052 454.694Q722.539 454.647 720.028 454.538Q717.517 454.429 715.009 454.258Q712.502 454.087 709.999 453.854Q707.497 453.621 705.001 453.327Q702.505 453.033 700.017 452.677Q697.529 452.322 695.05 451.905Q692.572 451.488 690.104 451.011Q687.637 450.533 685.182 449.995Q682.727 449.457 680.285 448.858Q677.844 448.26 675.419 447.602Q672.993 446.943 670.585 446.225Q668.176 445.508 665.786 444.731Q663.396 443.954 661.025 443.118Q658.655 442.283 656.306 441.389Q653.957 440.496 651.63 439.544Q649.304 438.593 647.002 437.585Q644.699 436.577 642.422 435.512Q640.146 434.448 637.896 433.328Q635.646 432.208 633.424 431.032Q631.203 429.857 629.011 428.628Q626.819 427.398 624.658 426.115Q622.497 424.832 620.368 423.496Q618.239 422.16 616.144 420.772Q614.048 419.384 611.988 417.945Q609.927 416.505 607.903 415.016Q605.878 413.527 603.891 411.988Q601.904 410.449 599.955 408.862Q598.006 407.275 596.097 405.64Q594.188 404.005 592.32 402.324Q590.41 400.642 588.542 398.914Q586.674 397.186 584.849 395.413Q583.023 393.64 581.242 391.822Q579.461 390.004 577.725 388.144Q575.989 386.283 574.299 384.38Q572.61 382.477 570.967 380.534Q569.324 378.59 567.73 376.606Q566.136 374.623 564.591 372.601Q563.045 370.579 561.55 368.52Q560.055 366.461 558.611 364.365Q557.167 362.27 555.774 360.14Q554.382 358.01 553.042 355.846Q551.703 353.683 550.417 351.487Q549.13 349.291 547.899 347.064Q546.667 344.837 545.49 342.581Q544.313 340.325 543.192 338.04Q542.071 335.756 541.006 333.444Q539.941 331.133 538.934 328.796Q537.926 326.459 536.976 324.099Q536.026 321.738 535.134 319.354Q534.242 316.971 533.409 314.566Q532.576 312.162 531.802 309.737Q531.028 307.313 530.314 304.871Q529.6 302.428 528.946 299.969Q528.292 297.509 527.699 295.035Q527.105 292.56 526.573 290.072Q526.04 287.583 525.569 285.082Q525.098 282.582 524.688 280.07Q524.278 277.559 523.93 275.038Q523.582 272.517 523.296 269.988Q523.01 267.459 522.786 264.925Q522.563 262.39 522.401 259.85C519.249 204.544 537.112 152.467 574.085 111.039C611.5 69.1169 662.623 45.3468 718.568 42.2114Z"/>
	<path fill="#267485" transform="scale(0.292969 0.292969)" d="M719.716 63.2153Q721.851 63.1053 723.987 63.0453Q726.124 62.9853 728.261 62.9752Q730.398 62.9651 732.535 63.0049Q734.672 63.0448 736.808 63.1346Q738.943 63.2244 741.076 63.3641Q743.209 63.5038 745.338 63.6933Q747.467 63.8828 749.591 64.122Q751.715 64.3612 753.833 64.65Q755.95 64.9388 758.061 65.277Q760.171 65.6152 762.273 66.0026Q764.375 66.39 766.467 66.8265Q768.56 67.263 770.641 67.7482Q772.723 68.2334 774.793 68.7672Q776.862 69.3009 778.919 69.8829Q780.975 70.4649 783.018 71.0948Q785.06 71.7247 787.088 72.4022Q789.115 73.0796 791.125 73.8043Q793.136 74.5289 795.13 75.3004Q797.123 76.0718 799.098 76.8897Q801.072 77.7075 803.027 78.5712Q804.983 79.435 806.917 80.3442Q808.851 81.2534 810.764 82.2076Q812.676 83.1618 814.566 84.1604Q816.456 85.159 818.322 86.2015Q820.188 87.2441 822.029 88.3299Q823.87 89.4157 825.685 90.5443Q827.5 91.6729 829.288 92.8436Q831.076 94.0143 832.837 95.2264Q834.597 96.4386 836.329 97.6916Q838.06 98.9445 839.762 100.238Q841.464 101.531 843.135 102.863Q844.806 104.196 846.446 105.567Q848.204 107.008 849.926 108.491Q851.647 109.974 853.332 111.499Q855.017 113.024 856.664 114.59Q858.311 116.156 859.919 117.762Q861.527 119.368 863.095 121.013Q864.663 122.658 866.191 124.341Q867.718 126.024 869.203 127.744Q870.689 129.464 872.131 131.22Q873.574 132.976 874.973 134.767Q876.372 136.558 877.727 138.383Q879.082 140.207 880.391 142.065Q881.701 143.922 882.964 145.811Q884.228 147.7 885.445 149.62Q886.661 151.539 887.831 153.488Q889 155.437 890.121 157.413Q891.242 159.39 892.314 161.394Q893.386 163.398 894.409 165.428Q895.432 167.457 896.404 169.511Q897.376 171.565 898.298 173.643Q899.22 175.72 900.09 177.819Q900.961 179.919 901.779 182.039Q902.598 184.159 903.364 186.298Q904.13 188.438 904.844 190.596Q905.557 192.753 906.218 194.928Q906.878 197.103 907.485 199.293Q908.091 201.483 908.644 203.687Q909.197 205.892 909.695 208.109Q910.194 210.326 910.638 212.555Q911.081 214.784 911.47 217.023Q911.859 219.262 912.193 221.51Q912.527 223.758 912.805 226.014Q913.084 228.269 913.307 230.531Q913.517 232.728 913.673 234.93Q913.829 237.132 913.931 239.337Q914.033 241.542 914.081 243.749Q914.128 245.955 914.122 248.163Q914.116 250.37 914.056 252.577Q913.995 254.783 913.881 256.987Q913.767 259.192 913.598 261.393Q913.43 263.594 913.208 265.79Q912.985 267.986 912.709 270.176Q912.433 272.366 912.104 274.548Q911.774 276.731 911.391 278.905Q911.008 281.079 910.572 283.242Q910.136 285.406 909.647 287.559Q909.158 289.711 908.616 291.851Q908.075 293.991 907.481 296.117Q906.887 298.243 906.241 300.353Q905.595 302.464 904.898 304.558Q904.2 306.653 903.452 308.729Q902.703 310.806 901.904 312.863Q901.105 314.921 900.256 316.958Q899.406 318.996 898.508 321.012Q897.609 323.027 896.66 325.021Q895.712 327.014 894.716 328.984Q893.719 330.953 892.674 332.898Q891.63 334.842 890.537 336.76Q889.445 338.679 888.307 340.569Q887.168 342.46 885.983 344.323Q884.799 346.185 883.569 348.018Q882.339 349.851 881.064 351.653Q879.79 353.455 878.471 355.226Q877.153 356.996 875.792 358.734Q874.43 360.471 873.027 362.175C846.15 394.679 809.845 419.482 768.467 429.161C758.948 431.388 749.363 432.516 739.643 433.436C730.179 433.623 720.737 433.909 711.295 433.047Q709.446 432.869 707.601 432.653Q705.756 432.438 703.916 432.185Q702.076 431.932 700.241 431.643Q698.406 431.353 696.578 431.026Q694.749 430.7 692.927 430.336Q691.106 429.973 689.292 429.573Q687.478 429.173 685.673 428.736Q683.867 428.3 682.071 427.827Q680.275 427.354 678.488 426.845Q676.702 426.336 674.926 425.791Q673.15 425.246 671.386 424.666Q669.621 424.085 667.869 423.469Q666.117 422.853 664.377 422.202Q662.637 421.551 660.911 420.865Q659.185 420.178 657.473 419.458Q655.761 418.737 654.064 417.982Q652.367 417.226 650.686 416.437Q649.004 415.648 647.339 414.825Q645.674 414.002 644.025 413.146Q642.377 412.289 640.746 411.4Q639.116 410.51 637.503 409.588Q635.891 408.666 634.297 407.712Q632.704 406.757 631.13 405.771Q629.556 404.785 628.002 403.767Q626.448 402.749 624.915 401.7Q623.383 400.651 621.871 399.571Q620.36 398.491 618.87 397.381Q617.381 396.271 615.914 395.132Q614.447 393.992 613.004 392.823Q611.56 391.654 610.141 390.456Q608.721 389.258 607.326 388.031Q605.931 386.805 604.561 385.551C569.554 353.921 545.824 306.626 543.6 259.267C541.257 209.361 556.757 161.355 590.575 124.147Q592.106 122.442 593.678 120.775Q595.251 119.109 596.865 117.482Q598.478 115.855 600.132 114.269Q601.786 112.682 603.478 111.138Q605.171 109.593 606.901 108.091Q608.632 106.589 610.399 105.131Q612.167 103.673 613.97 102.259Q615.773 100.845 617.611 99.4764Q619.449 98.1078 621.32 96.7854Q623.191 95.4631 625.095 94.1877Q626.999 92.9123 628.934 91.6848Q630.869 90.4572 632.833 89.2782Q634.798 88.0991 636.792 86.9694Q638.785 85.8397 640.806 84.76Q642.828 83.6802 644.875 82.6512Q646.922 81.6221 648.995 80.6443Q651.067 79.6665 653.163 78.7407Q655.259 77.8148 657.377 76.9414Q659.496 76.068 661.635 75.2476Q663.775 74.4273 665.934 73.6604Q668.094 72.8936 670.271 72.1807Q672.449 71.4679 674.644 70.8095Q676.839 70.1511 679.049 69.5476Q681.26 68.9441 683.484 68.3958Q685.709 67.8475 687.947 67.3547Q690.185 66.862 692.434 66.4251Q694.684 65.9883 696.943 65.6076Q699.203 65.2268 701.471 64.9025Q703.74 64.5782 706.015 64.3104Q708.291 64.0427 710.573 63.8317Q712.854 63.6207 715.141 63.4666Q717.427 63.3124 719.716 63.2153Z"/>
	<path fill="#FEFEFE" transform="scale(0.292969 0.292969)" d="M713.904 67.796C758.793 63.339 805.501 78.8651 840.581 106.625Q842.329 108.005 844.042 109.427Q845.756 110.849 847.434 112.313Q849.112 113.776 850.754 115.28Q852.396 116.784 854.001 118.328Q855.606 119.872 857.172 121.454Q858.739 123.037 860.266 124.657Q861.794 126.278 863.281 127.935Q864.768 129.592 866.215 131.285Q867.661 132.978 869.066 134.706Q870.471 136.434 871.833 138.195Q873.195 139.957 874.513 141.752Q875.832 143.546 877.106 145.372Q878.38 147.198 879.61 149.055Q880.839 150.912 882.023 152.798Q883.206 154.684 884.343 156.599Q885.481 158.513 886.571 160.455Q887.661 162.397 888.703 164.364Q889.745 166.332 890.739 168.325Q891.733 170.318 892.678 172.334Q893.622 174.35 894.518 176.389Q895.413 178.428 896.258 180.488Q897.104 182.548 897.898 184.628Q898.693 186.709 899.436 188.808Q900.18 190.907 900.872 193.023Q901.564 195.14 902.204 197.272Q902.844 199.405 903.432 201.553Q904.02 203.701 904.555 205.862Q905.091 208.024 905.573 210.198Q906.055 212.372 906.484 214.557Q906.913 216.742 907.288 218.937Q907.664 221.132 907.986 223.335Q908.307 225.538 908.575 227.749Q908.819 229.89 909.01 232.036Q909.202 234.183 909.341 236.333Q909.48 238.483 909.566 240.637Q909.653 242.79 909.686 244.944Q909.72 247.099 909.701 249.254Q909.682 251.409 909.611 253.562Q909.539 255.716 909.415 257.867Q909.291 260.019 909.114 262.166Q908.938 264.314 908.709 266.456Q908.48 268.599 908.198 270.736Q907.917 272.872 907.584 275.001Q907.25 277.13 906.865 279.25Q906.48 281.37 906.043 283.48Q905.606 285.59 905.117 287.689Q904.629 289.788 904.089 291.874Q903.55 293.96 902.959 296.033Q902.369 298.105 901.728 300.163Q901.088 302.22 900.397 304.261Q899.706 306.302 898.965 308.326Q898.225 310.349 897.435 312.354Q896.645 314.359 895.807 316.344Q894.968 318.329 894.082 320.293Q893.195 322.257 892.26 324.199Q891.326 326.141 890.345 328.059Q889.363 329.978 888.335 331.871Q887.307 333.765 886.233 335.633Q885.158 337.501 884.039 339.343Q882.92 341.184 881.756 342.997Q880.591 344.811 879.383 346.595Q878.175 348.38 876.924 350.134Q875.673 351.888 874.379 353.612Q873.085 355.335 871.75 357.026C839.061 398.062 795.879 422.925 743.573 428.876Q741.469 429.046 739.362 429.167Q737.254 429.287 735.145 429.359Q733.035 429.43 730.924 429.452Q728.814 429.474 726.703 429.446Q724.592 429.419 722.483 429.342Q720.374 429.266 718.267 429.14Q716.159 429.014 714.056 428.838Q711.952 428.663 709.854 428.439Q707.755 428.214 705.662 427.941Q703.569 427.668 701.483 427.345Q699.397 427.023 697.319 426.652Q695.241 426.281 693.172 425.862Q691.103 425.442 689.045 424.975Q686.987 424.507 684.94 423.991Q682.893 423.476 680.859 422.912Q678.824 422.349 676.804 421.738Q674.783 421.127 672.778 420.469Q670.772 419.812 668.782 419.107Q666.792 418.402 664.82 417.651Q662.847 416.901 660.892 416.104Q658.938 415.307 657.002 414.465Q655.067 413.622 653.152 412.735Q651.236 411.848 649.342 410.916Q647.448 409.984 645.577 409.008Q643.705 408.032 641.857 407.012Q640.008 405.993 638.184 404.931Q636.36 403.868 634.562 402.764Q632.763 401.659 630.991 400.512Q629.219 399.366 627.473 398.178Q625.728 396.991 624.012 395.763Q622.295 394.535 620.607 393.267Q618.92 391.999 617.262 390.692C580.465 361.709 553.927 316.751 548.595 269.935C543.27 223.19 556.385 173.361 585.953 136.55C618.754 95.7137 662.251 73.4993 713.904 67.796Z"/>
	<path fill="#267485" transform="scale(0.292969 0.292969)" d="M641.972 120.913C649.296 126.276 657.067 135.135 663.554 141.631L696.876 174.689Q705.93 183.752 715.141 192.656C719.74 197.12 724.768 201.503 728.666 206.605C732.382 202.098 737.226 198.293 741.412 194.212Q755.09 180.626 768.964 167.24C779.909 156.518 790.535 145.471 801.546 134.817C806.354 130.165 811.215 124.934 816.57 120.932C824.444 128.034 831.78 135.937 839.248 143.477C845.24 149.528 851.829 155.486 857.146 162.122C844.701 174.386 832.042 186.466 819.756 198.887C803.196 215.63 786.867 232.879 769.576 248.856L857.256 336.614C843.127 349.158 830.315 363.272 816.026 375.648L815.245 376.093C812.651 375.551 736.91 298.845 729.222 291.483C720.532 298.586 712.611 307.586 704.647 315.536L658.853 360.954C654.864 364.87 647.593 374.05 642.654 375.984C639.578 375.291 604.088 339.361 600.828 334.849C604.167 330.757 608.414 327.139 612.19 323.416C616.844 318.827 621.333 314.066 625.929 309.419L686.587 248.73L627.713 190.434C618.492 181.317 609.609 171.75 599.972 163.074C605.846 155.851 613.053 149.678 619.6 143.065C626.858 135.734 633.938 127.331 641.972 120.913Z"/>
	<path fill="#FEFEFE" transform="scale(0.292969 0.292969)" d="M816.162 126.296C827.258 138.477 839.479 149.902 850.907 161.816C843.712 170.757 834.41 178.866 826.193 186.91Q806.595 206.109 787.256 225.567C779.494 233.304 771.215 240.887 764.017 249.138C768.973 253.559 773.551 258.533 778.226 263.257Q790.712 275.916 803.365 288.408Q819.692 304.246 835.849 320.258C841.017 325.454 846.468 330.637 851.147 336.279C841.61 347.712 827.424 359.253 816.638 370.179L815.699 370.88C812.376 369.695 740.969 296.173 728.855 286.07C720.96 291.886 711.873 302.517 704.557 309.766L667.294 346.534C659.139 354.636 651.15 362.99 642.699 370.782C638.632 367.743 635.137 363.961 631.584 360.355C623.334 351.982 615.209 342.769 606.048 335.423C619.963 320.635 634.677 306.72 649.025 292.371C663.406 277.989 677.423 263.131 692.357 249.321C685.384 240.128 675.633 231.839 667.447 223.68C646.972 203.269 625.644 183.433 605.954 162.27C618.369 150.655 630.134 138.401 642.151 126.376C670.84 155.307 700.261 183.512 728.806 212.595C757.994 183.921 786.452 154.431 816.162 126.296Z"/>
	<path fill="#267485" transform="scale(0.292969 0.292969)" d="M816.057 133.378C825.566 142.613 834.812 152.24 844.161 161.646C832.236 174.179 819.561 186.15 807.302 198.374C790.431 215.199 773.733 232.33 756.61 248.886C765.736 257.065 774.023 266.411 782.748 275.033Q813.844 305.233 843.977 336.393C834.759 345.247 825.379 353.983 816.486 363.164C815.989 363.433 816.24 363.365 815.572 363.369C814.68 363.375 813.907 362.586 813.253 362.013C806.326 355.943 799.879 348.712 793.28 342.25C771.769 321.187 750.881 299.422 729.126 278.624C721.301 285.098 714.204 293.293 706.908 300.413C685.297 321.505 664.33 343.405 642.418 364.16C632.565 354.514 623.304 344.431 613.025 335.201C620.879 329.052 627.853 320.718 634.905 313.62L676.419 272.309C684.007 264.695 691.282 256.279 699.458 249.322C690.521 239.454 680.901 230.166 671.498 220.748L613.342 162.894C622.389 152.83 632.339 143.62 641.622 133.775C645.066 135.211 720.471 211.188 728.916 219.754C736.081 211.112 747.304 201.359 755.526 193.184L816.057 133.378Z"/>
</svg>
