<?xml version="1.0" encoding="utf-8" ?>
<svg xmlns="http://www.w3.org/2000/svg" xmlns:xlink="http://www.w3.org/1999/xlink" width="300" height="300">
	<path fill="#FEFEFE" transform="scale(0.292969 0.292969)" d="M0 0L1024 0L1024 1024L0 1024L0 0Z"/>
	<path fill="#04488B" transform="scale(0.292969 0.292969)" d="M886.545 366.87C887.846 366.95 889.199 366.915 890.374 367.543C891.857 368.337 892.591 371.129 892.984 372.621C895.146 380.818 897.385 406.472 896.101 414.814C895.837 416.534 895.105 417.903 894.231 419.384C892.591 419.546 890.857 419.531 889.439 418.585C888.41 417.897 888.265 416.487 888.103 415.348C887.084 408.195 887.429 400.741 886.862 393.521C886.286 386.19 884.558 378.356 884.881 371.045C884.959 369.293 885.526 368.241 886.545 366.87Z"/>
	<path fill="#04488B" transform="scale(0.292969 0.292969)" d="M152.56 462.336C153.9 462.465 155.205 462.475 156.356 463.252C157.024 463.703 157.367 464.449 157.636 465.182C159.373 469.921 168.629 508.959 168.799 513.192C168.856 514.6 167.69 515.557 166.871 516.577C165.284 516.578 163.85 516.762 162.524 515.741C158.167 509.558 151.293 476.345 150.775 467.965C150.614 465.356 150.833 464.341 152.56 462.336Z"/>
	<path fill="#04488B" transform="scale(0.292969 0.292969)" d="M149.049 366.369C150.242 366.357 152.225 366.266 153.307 366.807C154.016 367.162 154.584 367.55 154.79 368.331C155.331 370.392 154.994 373.168 154.851 375.282C154.427 381.595 153.69 387.928 153.563 394.254C153.402 402.313 153.854 410.572 153.006 418.583C152.813 420.405 152.459 421.595 151.46 423.128C150.994 423.106 150.527 423.089 150.063 423.044C148.602 422.903 147.175 422.634 146.29 421.326C142.245 415.344 146.88 374.509 149.049 366.369Z"/>
	<path fill="#04488B" transform="scale(0.292969 0.292969)" d="M210.818 622.875C211.755 622.848 212.937 622.746 213.853 623.006C216.927 623.879 220.666 630.679 222.373 633.318C224.605 636.767 226.765 640.266 229.358 643.461C233.232 648.234 245.996 659.897 247.43 664.7C248.012 666.652 247.076 668.017 246.131 669.63C244.962 669.642 243.663 669.67 242.554 669.246C237.187 667.195 211.27 634.464 209.646 628.383C209.065 626.204 209.863 624.777 210.818 622.875Z"/>
	<path fill="#04488B" transform="scale(0.292969 0.292969)" d="M277.3 692.247C279.339 692.666 281.1 693.753 282.798 694.923C287.692 698.296 292.036 702.559 296.858 706.069C304.328 711.505 312.676 716.191 319.688 722.187C320.985 723.295 321.603 723.582 321.523 725.454C321.46 726.94 319.823 728.238 318.833 729.206C317.271 729.283 316.243 728.833 314.842 728.154C307.932 724.806 276.405 703.298 275.073 697.08C274.658 695.146 276.195 693.624 277.3 692.247Z"/>
	<path fill="#04488B" transform="scale(0.292969 0.292969)" d="M887.295 455.429C888.24 455.635 889.289 455.808 890.185 456.172C891.335 456.639 892.112 457.582 892.406 458.778C894.462 467.146 884.916 503.068 880.611 510.853C879.252 510.605 877.366 510.371 876.249 509.487C875.449 508.854 875.133 508.19 875.172 507.21C875.475 499.573 879.459 489.009 880.971 481.077C882.358 473.801 882.603 465.705 884.723 458.645C885.126 457.306 886.297 456.34 887.295 455.429Z"/>
	<path fill="#04488B" transform="scale(0.292969 0.292969)" d="M126.818 551.063C135.323 550.795 143.834 551.793 152.321 552.235C161.2 552.697 173.116 552.006 181.508 554.47C182.602 555.418 182.893 555.927 183.278 557.32C183.106 559.128 182.537 560.084 181.551 561.588C175.012 562.146 130.68 559.854 126.756 557.681C126.002 557.263 125.602 556.91 125.349 556.095C124.751 554.169 125.871 552.645 126.818 551.063Z"/>
	<path fill="#04488B" transform="scale(0.292969 0.292969)" d="M443.956 771.378C453.652 773.342 463.948 774.9 473.789 775.913C481.363 776.693 490.431 776.298 497.669 778.626C498.229 779.307 498.851 779.778 498.979 780.681C499.267 782.72 497.88 784.059 496.664 785.491C487.819 785.63 449.199 783.264 442.956 778.179C441.914 777.331 441.515 776.666 441.503 775.289C441.49 773.853 443.067 772.392 443.956 771.378Z"/>
	<path fill="#04488B" transform="scale(0.292969 0.292969)" d="M864.118 275.959C865.401 276.017 867.125 276.112 868.097 277.076C872.46 281.399 884.493 319.221 884.145 325.86C884.064 327.403 882.637 328.314 881.544 329.242C879.933 329.138 878.452 328.964 877.204 327.864C877.013 327.695 876.814 327.528 876.668 327.319C874.701 324.501 872.32 312.282 871.074 308.075C869.664 303.314 861.418 282.722 861.496 280.113C861.559 278.027 862.668 277.235 864.118 275.959Z"/>
	<path fill="#04488B" transform="scale(0.292969 0.292969)" d="M939.737 650.514C940.289 650.581 940.773 650.611 941.306 650.819C942.487 651.28 943.912 652.557 944.341 653.783C944.583 654.478 944.705 655.033 944.339 655.689C943.216 657.706 940.248 658.956 938.189 659.717C932.685 661.75 926.401 662.7 920.679 664.006Q906.852 667.131 893.12 670.648C892.626 670.661 892.252 670.691 891.747 670.605C890.511 670.397 889.506 669.893 888.795 668.839C888.01 667.677 888.117 666.698 888.291 665.392C889.435 663.794 890.475 663.12 892.312 662.411C895.558 661.158 899.003 660.854 902.347 659.984C914.804 656.745 927.417 654.282 939.737 650.514Z"/>
	<path fill="#04488B" transform="scale(0.292969 0.292969)" d="M185.644 580.96C187.547 580.927 188.688 581.283 190.319 582.253C190.918 583.198 191.405 583.645 191.016 584.827C189.251 590.192 155.941 614.04 149.121 618.833C146.948 618.819 145.439 618.299 143.87 616.815C143.628 616.097 143.292 615.554 143.475 614.778C144.401 610.861 180.401 584.402 185.644 580.96Z"/>
	<path fill="#04488B" transform="scale(0.292969 0.292969)" d="M859.416 731.335C860.654 731.355 862.236 731.294 863.362 731.855C867.112 733.723 891.879 769.395 894.072 774.402C893.803 776.06 892.675 777.112 891.627 778.349C890.87 778.441 890.051 778.362 889.292 778.342C883.61 775.229 860.509 742.379 857.654 735.72C857.574 733.971 858.54 732.765 859.416 731.335Z"/>
	<path fill="#04488B" transform="scale(0.292969 0.292969)" d="M353.802 741.883C360.285 743.032 370.528 748.877 377.101 751.547C386.42 755.333 396.606 757.765 405.35 762.738C405.712 763.411 405.893 763.512 405.893 764.229C405.893 766.17 404.164 767.673 402.874 768.895C392.371 767.786 363.07 756.208 354.441 750.184C352.645 748.93 351.706 747.975 351.286 745.789C351.591 744.058 352.658 743.12 353.802 741.883Z"/>
	<path fill="#04488B" transform="scale(0.292969 0.292969)" d="M294.169 106.414C295.155 106.495 295.974 106.868 296.831 107.344C298.231 108.122 298.861 108.998 299.259 110.566C298.955 112.241 298.639 112.657 297.415 113.815C290.806 120.073 282.652 125.055 275.506 130.715C269.506 135.466 264.234 141.12 258.04 145.61C257.474 145.822 256.717 145.924 256.12 145.837C254.673 145.624 254.316 145.067 253.461 144.016C253.259 143.036 253.154 142.339 253.356 141.339C254.969 133.367 286.095 111.853 294.169 106.414Z"/>
	<path fill="#04488B" transform="scale(0.292969 0.292969)" d="M749.388 124.281C750.702 124.343 752.038 124.455 753.251 125.002C761.099 128.541 790.129 154.435 793.268 162.156C793.17 163.727 792.139 164.652 791.171 165.795C790.135 165.915 788.709 166.095 787.723 165.629C784.613 164.159 762.642 142.309 756.589 137.592C754.284 135.795 748.081 131.959 747.622 129.069C747.344 127.32 748.547 125.709 749.388 124.281Z"/>
	<path fill="#04488B" transform="scale(0.292969 0.292969)" d="M816.145 193.105C817.342 193.208 818.811 193.24 819.913 193.743C824.958 196.048 847.229 231.834 849.271 238.413C848.965 240.097 847.863 241.223 846.829 242.524C845.237 242.444 843.87 242.392 842.504 241.446C839.042 239.046 836.125 231.646 834.178 227.963C832.93 225.603 831.727 223.218 830.17 221.041C826.575 216.016 814.331 203.009 813.886 197.541C813.745 195.81 815.106 194.324 816.145 193.105Z"/>
	<path fill="#04488B" transform="scale(0.292969 0.292969)" d="M887.77 698.335C889.345 698.453 890.739 698.698 892.238 699.243C898.533 701.533 904.578 704.791 910.726 707.479C918.556 710.901 926.866 713.813 934.322 718.003C936.945 719.477 939.778 720.875 940.612 723.924C940.325 725.725 939.453 726.694 938.331 728.089C936.509 728.074 934.846 727.59 933.15 726.953C925.325 724.018 917.958 719.822 910.376 716.323C903.793 713.285 896.869 710.906 890.504 707.413C888.274 706.189 886.278 705.349 885.525 702.779C885.754 701.007 886.787 699.768 887.77 698.335Z"/>
	<path fill="#04488B" transform="scale(0.292969 0.292969)" d="M501.983 39.2178C524.614 38.0558 546.953 40.5313 569.384 43.1313C576.362 43.9401 584.526 44.1839 591.198 46.3996C593.098 47.0307 595.669 48.2008 596.413 50.2321C596.876 51.4972 596.439 52.4412 595.934 53.5953C593.706 54.6211 590.856 54.508 588.444 54.355C582.142 53.9552 575.724 52.3195 569.456 51.4152Q551.696 48.8432 533.78 47.8343C489.363 45.4098 446.058 51.2314 403.383 63.4458C387.266 68.4727 371.061 73.9877 355.769 81.1942C351.385 83.2602 347.236 85.7649 342.923 87.9651C339.171 89.8793 335.264 91.7496 331.047 90.3887C330.456 89.8343 329.893 89.5734 329.76 88.7335C329.521 87.2243 330.361 86.0322 331.307 84.9444C336.094 79.4432 348.388 75.3495 355.31 72.4362C403.771 52.0416 449.424 41.5288 501.983 39.2178Z"/>
	<path fill="#04488B" transform="scale(0.292969 0.292969)" d="M132.458 119.861Q123.357 118.424 114.454 116.053C104.655 113.378 92.699 105.915 87.9848 96.5658C87.194 94.9974 87.2006 92.1413 87.9811 90.5553C88.6042 89.289 89.2463 89.0366 90.5155 88.5888C94.3818 89.1881 96.5318 94.2557 98.8042 97.1741C108.569 109.714 126.327 110.198 140.57 112.212C142.999 112.556 144.401 113.241 146.38 114.633C154.719 120.499 162.622 127.309 170.553 133.719L213.791 168.666C234.006 184.782 254.557 200.454 274.582 216.812C284.862 225.21 297.097 234.05 305.265 244.567C302.869 254.255 280.047 278.098 271.635 284.767C267.379 288.141 261.31 290.862 257.826 294.978Q253.984 297.515 250.006 299.833Q246.028 302.151 241.927 304.242Q237.825 306.333 233.613 308.191Q229.4 310.05 225.091 311.669Q220.781 313.289 216.387 314.664Q211.994 316.04 207.53 317.167Q203.066 318.294 198.546 319.17Q194.026 320.045 189.464 320.666C183.607 321.443 177.62 322.159 171.731 321.396C167.015 310.736 165.404 285.788 163.682 273.428L149.1 174.26C146.544 156.886 145.104 137.288 140.579 120.562C135.105 128.868 128.668 135.237 120.067 140.31C111.515 145.355 92.1863 152.147 82.1284 149.171C80.6165 148.724 80.0408 148.022 79.3152 146.681C79.3302 144.144 79.919 143.105 82.4431 142.303C86.2026 141.109 90.5125 141.5 94.4106 140.771C109.899 137.873 121.549 130.92 132.458 119.861Z"/>
	<path fill="#FEFEFE" transform="scale(0.292969 0.292969)" d="M149.689 127.431C154.895 130.572 159.541 135.094 164.293 138.89Q176.055 148.269 188.107 157.273C183.882 163.254 179.289 168.832 174.42 174.294C169.658 179.165 164.702 183.806 159.719 188.449C157.184 179.263 156.457 169.607 155.126 160.197Q152.702 143.765 149.689 127.431Z"/>
	<path fill="#FEFEFE" transform="scale(0.292969 0.292969)" d="M224.101 186.913C227.507 189.079 230.626 191.899 233.769 194.435C220.544 217.627 196.729 237.306 174.292 251.152L169.027 253.851Q167.986 247.095 167.154 240.311C189.473 224.556 207.375 208.526 224.101 186.913Z"/>
	<path fill="#5A27A3" transform="scale(0.292969 0.292969)" d="M193.686 162.704C202.267 168.292 209.959 175.366 217.548 182.213C205.615 197.222 192.57 210.418 177.687 222.497C173.605 225.482 169.484 228.261 165.203 230.951C163.818 219.732 162.412 208.402 160.337 197.288Q162.798 195.536 165.175 193.673Q167.552 191.809 169.84 189.838Q172.129 187.867 174.324 185.792Q176.519 183.717 178.615 181.542Q180.712 179.368 182.706 177.099Q184.7 174.83 186.586 172.472Q188.473 170.113 190.249 167.67Q192.025 165.227 193.686 162.704Z"/>
	<path fill="#5A27A3" transform="scale(0.292969 0.292969)" d="M240.226 199.727C248.788 204.941 256.239 212.034 263.655 218.717C244.494 249.512 217.021 271.098 186.86 290.41Q180.829 293.865 174.718 297.176C173.458 285.422 171.668 273.693 170.317 261.939C199.856 247.613 221.04 225.842 240.226 199.727Z"/>
	<path fill="#FEFEFE" transform="scale(0.292969 0.292969)" d="M269.841 223.755C279.363 229.251 287.904 237.973 296.081 245.328C269.267 282.24 244.392 299.944 200.14 311.035C192.719 312.625 185.176 313.301 177.637 314.064C177.421 311.257 176.91 308.441 176.511 305.653C215.97 283.287 243.613 261.092 269.841 223.755Z"/>
	<path fill="#04488B" transform="scale(0.292969 0.292969)" d="M703.918 493.816Q703.509 493.202 703.146 492.56Q702.784 491.918 702.469 491.252Q702.154 490.585 701.889 489.897Q701.624 489.209 701.41 488.503Q701.196 487.797 701.034 487.078Q700.873 486.359 700.764 485.629Q700.656 484.9 700.601 484.165Q700.546 483.429 700.545 482.692Q700.55 482.197 700.58 481.703Q700.611 481.209 700.666 480.718Q700.721 480.226 700.801 479.738Q700.881 479.249 700.986 478.766Q701.09 478.282 701.219 477.805Q701.348 477.327 701.501 476.856Q701.654 476.386 701.83 475.923Q702.007 475.461 702.206 475.008Q702.406 474.556 702.628 474.113Q702.85 473.671 703.095 473.241Q703.339 472.811 703.605 472.393Q703.87 471.976 704.157 471.573Q704.443 471.169 704.75 470.781Q705.056 470.392 705.382 470.02Q705.708 469.648 706.052 469.292Q706.396 468.937 706.758 468.599C711.64 463.96 718.443 461.689 725.134 462.12C733.272 462.644 738.599 466.706 743.687 472.621C747.557 471.076 751.041 470.017 755.292 470.364C761.931 470.906 766.386 474.723 770.486 479.583C771.95 483.23 773.162 486.888 774.294 490.65C780.533 488.528 786.326 487.449 792.519 490.605C798.54 493.674 802.267 499.459 804.135 505.781Q804.609 507.399 805.02 509.033C811.45 507.999 817.656 507.85 823.264 511.75C829.621 516.171 832.6 524.074 833.863 531.442C841.073 532.123 847.403 533.7 852.178 539.638C856.625 545.169 857.423 551.874 856.73 558.703C862.351 560.685 867.21 563.608 869.873 569.205C872.151 573.99 872.121 579.434 870.231 584.339C868.331 589.27 864.953 592.984 861.133 596.508L861.024 597.358C860.096 604.879 860.289 612.638 860.133 620.212L859.476 658.253C859.349 667.842 859.915 678.359 857.287 687.663C855.53 693.883 852.482 698.975 847.39 703.033C842.927 706.59 838.226 708.3 832.808 709.912C817.383 714.502 801.508 717.815 785.873 721.623L708.811 740.625L602.005 766.879C581.771 771.856 561.574 777.292 541.199 781.651C538.122 782.31 534.631 783.099 531.483 782.66C530.168 782.476 529.192 782.069 528.184 781.193C525.783 769.523 529.584 750.441 530.722 738.19L536.73 671.94C537.899 667.811 537.56 662.899 537.583 658.628C550.831 643.911 565.301 629.894 579.251 615.817Q620.143 574.358 662.366 534.254Q672.204 524.929 681.938 515.495C688.623 508.977 695.205 501.603 703.16 496.636C703.356 495.658 703.62 494.766 703.918 493.816Z"/>
	<path fill="#FEFEFE" transform="scale(0.292969 0.292969)" d="M819.898 689.144C821.508 690.924 822.494 700.533 823.626 703.857L538.751 773.888C538.13 773.967 537.433 773.895 536.805 773.881C536.677 773.743 536.534 773.618 536.42 773.468C534.214 770.571 536.479 762.256 537.098 758.696C553.327 753.881 570.056 750.322 586.537 746.46Q615.286 739.688 643.938 732.519L758.453 704.226C778.915 699.172 799.351 693.821 819.898 689.144Z"/>
	<path fill="#5A27A3" transform="scale(0.292969 0.292969)" d="M820.77 660.029C821.32 659.959 821.842 660.094 822.387 660.178C824.043 663.757 821.855 675.432 821.401 679.656C809.263 684.229 796.38 686.737 783.763 689.599Q768.12 693.153 752.619 697.281L615.713 731.19C590.527 737.235 565.168 742.572 540.152 749.303C539.342 749.434 539.206 749.364 538.469 749.084C536.759 744.457 538.932 735.594 539.649 730.767C547.806 728.336 556.213 726.439 564.461 724.322Q592 717.241 619.641 710.569L766.173 673.797C784.318 669.132 802.761 665.136 820.77 660.029Z"/>
	<path fill="#417AA1" transform="scale(0.292969 0.292969)" d="M826.128 597.588C826.834 597.691 826.856 597.52 827.188 598.078C828.979 601.09 826.836 613.772 826.366 617.726C806.97 621.752 787.966 626.879 768.76 631.681L685.786 652.32C639.133 663.962 592.008 674.254 545.713 687.236C545.067 687.205 545.06 687.364 544.721 686.873C543.005 684.389 544.965 668.457 545.813 664.947C557.748 662.996 569.648 659.768 581.394 656.908L642.225 641.88L826.128 597.588Z"/>
	<path fill="#FEFEFE" transform="scale(0.292969 0.292969)" d="M823.802 626.587L824.73 626.747C826.685 630.885 824.654 646.334 823.088 651.084C813.91 652.964 804.984 655.918 795.922 658.279C780.325 662.344 764.62 666.062 748.974 669.938C680.228 686.968 611.566 704.801 542.613 720.938C542.116 720.829 542.099 720.918 541.787 720.492C539.524 717.391 542.46 700.751 543.158 696.075C563.913 691.426 584.422 685.704 605.059 680.561L740.842 646.932C768.464 640.073 796.01 632.718 823.802 626.587Z"/>
	<path fill="#FEFEFE" transform="scale(0.292969 0.292969)" d="M703.918 493.816L704.518 493.951C706.172 494.312 707.401 494.484 709.081 494.278L709.74 493.653C708.327 487.957 707.006 482.35 710.106 476.901C711.86 473.819 714.881 472.115 718.239 471.271C722.568 470.183 728.803 470.186 732.746 472.542C734.373 473.514 735.391 474.998 735.778 476.852C736.473 480.185 734.138 484.339 736.767 486.947C743.9 487.072 752.364 471.409 762.309 481.273C767.802 486.721 763.486 499.505 770.844 499.901C777.957 500.283 783.365 491.355 792.094 499.397C798.295 505.111 793.449 519.197 800.474 519.524C807.107 519.833 812.819 511.767 819.495 518.091C822.913 521.328 824.296 525.82 825.359 530.259C824.127 532.939 823.007 535.031 823.579 538.01C824.502 539.284 825.199 539.93 826.794 540.227C833.808 541.532 840.801 537.688 846.026 544.581Q846.384 545.048 846.691 545.549Q846.998 546.051 847.251 546.581Q847.504 547.112 847.701 547.667Q847.897 548.221 848.035 548.793Q848.172 549.364 848.249 549.947Q848.326 550.53 848.342 551.118Q848.358 551.706 848.312 552.292Q848.266 552.879 848.16 553.457C847.598 556.605 845.94 559.722 846.425 562.942C849.893 568.28 867.068 567.006 864.538 578.408C863.187 584.496 857.638 589.382 852.78 592.871Q851.588 617.255 851.522 641.669C851.439 655.588 852.703 671.323 849.747 684.937C848.848 689.078 847.246 692.383 844.094 695.297C840.707 698.427 836.349 700.241 832.034 701.686C830.704 698.497 829.888 695.628 829.605 692.165C828.833 682.708 830.185 672.844 830.936 663.407L834.695 616.514C835.344 608.544 836.497 600.407 836.561 592.423C828.384 577.335 817.821 564.1 805.793 551.914C779.339 525.114 748.73 507.103 712.734 496.122C710.581 497.031 707.342 498.87 705 497.956C704.299 497.683 703.714 497.124 703.16 496.636C703.356 495.658 703.62 494.766 703.918 493.816Z"/>
	<path fill="#FEFEFE" transform="scale(0.292969 0.292969)" d="M711.954 504.999C713.448 505.039 714.825 505.24 716.276 505.604C723.009 507.29 729.284 511.127 735.636 513.889C745.134 518.019 754.507 522.212 763.417 527.527C788.29 542.363 810.459 564.829 825.23 589.7C817.55 590.917 809.943 593.008 802.387 594.837L766.754 603.469L645.366 632.59C614.358 639.642 583.916 649.174 552.677 655.143C558.714 647.559 566.434 640.974 573.339 634.195L607.742 600.001L664.29 543.808C674.697 533.531 685.041 522.236 696.393 513.053C701.014 509.315 706.452 507.105 711.954 504.999Z"/>
	<path fill="#04488B" transform="scale(0.292969 0.292969)" d="M773.587 555.564C775.377 555.306 776.908 555.086 778.604 555.949C784.253 558.826 788.967 569.675 790.464 575.617C791.463 579.582 791.463 583.563 789.174 587.097C786.295 591.544 781.711 592.637 776.861 593.619C775.076 593.594 773.239 593.61 771.468 593.377C767.418 592.846 763.232 590.999 760.77 587.632C758.222 584.148 757.814 579.673 758.673 575.541C760.462 566.927 766.432 560.253 773.587 555.564Z"/>
	<path fill="#417AA1" transform="scale(0.292969 0.292969)" d="M774.411 563.87C777.737 566.594 781.015 571.825 782.336 575.897C783.089 578.219 783.427 581.036 782.049 583.21C780.535 585.597 777.895 585.874 775.327 586.204C772.717 585.771 770.218 585.403 768.224 583.512C766.812 582.171 766.135 580.376 766.134 578.447C766.132 572.735 770.564 567.658 774.411 563.87Z"/>
	<path fill="#04488B" transform="scale(0.292969 0.292969)" d="M631.678 585.503C634.381 585.372 636.675 585.373 639.188 586.494C644.558 588.889 648.402 593.995 650.34 599.432C652.003 604.098 652.451 609.539 650.053 614.043C647.651 618.555 643.701 620.266 639.048 621.591C636.471 621.631 633.737 621.722 631.205 621.189C626.611 620.224 622.268 617.811 619.806 613.707C617.522 609.899 617.418 605.327 618.544 601.126C620.495 593.853 625.441 589.207 631.678 585.503Z"/>
	<path fill="#417AA1" transform="scale(0.292969 0.292969)" d="M633.945 593.393C634.735 593.409 635.474 593.416 636.229 593.678C638.903 594.607 641.23 597.16 642.312 599.72C643.581 602.723 643.733 606.148 642.375 609.147C641.102 611.96 638.762 612.781 636.019 613.756C633.021 613.52 629.58 613.04 627.37 610.787C626.139 609.533 625.58 607.915 625.646 606.171C625.846 600.815 630.268 596.74 633.945 593.393Z"/>
	<path fill="#04488B" transform="scale(0.292969 0.292969)" d="M705.233 523.111C705.414 523.111 705.595 523.109 705.776 523.112C708.582 523.149 710.865 523.405 712.823 525.606C717.533 530.899 715.698 543.947 715.504 550.743C719.79 553.187 725.094 555.611 728.482 559.229C733.839 564.947 732.648 578.567 732.55 585.956C732.48 591.258 732.093 598.375 727.842 602.162C722.319 607.083 711.236 605.666 704.375 605.473Q703.228 605.483 702.081 605.446C695.188 605.207 686.481 605.079 681.553 599.468C675.831 592.955 678.409 570.795 679.161 562.257C683.712 555.705 691.057 553.014 698.084 549.996C697.824 543.154 695.723 532.736 699.34 526.675C700.732 524.343 702.738 523.78 705.233 523.111Z"/>
	<path fill="#FEFEFE" transform="scale(0.292969 0.292969)" d="M705.581 531.711C706.197 532.069 706.564 532.5 707.051 533.013C709.039 539.874 707.968 548.002 707.265 555.031C706.769 554.981 706.372 554.803 705.908 554.629C703.525 549.605 705.207 537.547 705.581 531.711Z"/>
	<path fill="#ECE4CE" transform="scale(0.292969 0.292969)" d="M697.499 558.983C698.923 560.208 700.338 561.207 702.02 562.057C707.428 564.789 707.92 561.752 712.667 560.335C714.32 559.841 715.196 559.805 716.685 560.845C717.796 561.62 717.969 561.83 718.099 563.077C717.056 564.754 714.967 565.66 713.299 566.639L705.663 570.703C701.615 568.795 693.802 566.194 691.055 562.746C692.626 561.039 695.43 560.023 697.499 558.983Z"/>
	<path fill="#FEFEFE" transform="scale(0.292969 0.292969)" d="M723.417 569.988C724.944 572.95 724.726 591.192 723.268 594.625C722.691 595.983 721.958 596.491 720.617 596.982C714.314 599.289 695.303 598.707 689.189 595.523C687.348 594.565 687.125 593.394 686.515 591.56Q686.925 580.87 687.549 570.19C693.548 573.248 699.367 576.575 705.195 579.944C711.537 577.221 717.377 573.319 723.417 569.988Z"/>
	<path fill="#ECE4CE" transform="scale(0.292969 0.292969)" d="M570.705 146.327C576.281 122.997 586.848 103.175 607.765 90.2637C626.029 78.99 649.6 75.2353 670.487 80.1745Q671.448 80.4049 672.402 80.659Q673.357 80.9131 674.305 81.1907Q675.253 81.4684 676.194 81.7694Q677.135 82.0704 678.068 82.3947Q679.001 82.7189 679.926 83.0662Q680.851 83.4134 681.767 83.7835Q682.683 84.1535 683.589 84.5461Q684.496 84.9387 685.392 85.3537Q686.289 85.7686 687.175 86.2056Q688.061 86.6426 688.936 87.1014Q689.811 87.5602 690.674 88.0405Q691.537 88.5209 692.388 89.0224Q693.239 89.524 694.078 90.0464Q694.916 90.5689 695.741 91.112Q696.567 91.655 697.378 92.2184Q698.19 92.7817 698.987 93.365Q699.784 93.9482 700.567 94.551Q701.35 95.1538 702.117 95.7759Q702.885 96.3979 703.637 97.0387Q704.388 97.6795 705.124 98.3387Q705.86 98.998 706.579 99.6752Q707.298 100.352 708 101.047Q708.703 101.742 709.387 102.454Q710.072 103.166 710.739 103.895Q711.406 104.624 712.055 105.369Q712.704 106.114 713.334 106.875Q713.964 107.636 714.575 108.412Q715.186 109.188 715.777 109.979Q716.369 110.77 716.941 111.576Q717.513 112.382 718.064 113.201Q718.616 114.02 719.147 114.853Q719.679 115.686 720.189 116.532C732.58 136.934 732.81 158.844 729.187 181.728C734.49 184.498 739.883 187.054 744.94 190.271C760.393 200.102 772.573 214.792 778.089 232.369C784.671 253.347 781.447 276.707 771.237 295.981C767.956 302.175 764.053 308.099 760.092 313.876C763.738 320.669 765.092 328.991 767.244 336.365C778.298 374.243 783.253 412.352 777.434 451.611C776.426 458.416 775.545 465.689 773.56 472.278C772.804 474.785 771.944 477.388 770.486 479.583C766.386 474.723 761.931 470.906 755.292 470.364C751.041 470.017 747.557 471.076 743.687 472.621C738.599 466.706 733.272 462.644 725.134 462.12C718.443 461.689 711.64 463.96 706.758 468.599Q706.396 468.937 706.052 469.292Q705.708 469.648 705.382 470.02Q705.056 470.392 704.75 470.781Q704.443 471.169 704.157 471.573Q703.87 471.976 703.605 472.393Q703.339 472.811 703.095 473.241Q702.85 473.671 702.628 474.114Q702.406 474.556 702.206 475.008Q702.007 475.461 701.83 475.923Q701.654 476.386 701.501 476.856Q701.348 477.327 701.219 477.805Q701.09 478.282 700.986 478.766Q700.881 479.249 700.801 479.738Q700.721 480.226 700.666 480.718Q700.611 481.209 700.58 481.703Q700.55 482.197 700.545 482.692Q700.546 483.429 700.601 484.165Q700.656 484.9 700.764 485.629Q700.873 486.359 701.034 487.078Q701.196 487.797 701.41 488.503Q701.624 489.209 701.889 489.897Q702.154 490.585 702.469 491.252Q702.784 491.918 703.146 492.56Q703.509 493.202 703.918 493.816C703.62 494.766 703.356 495.658 703.16 496.636C695.205 501.603 688.623 508.977 681.938 515.495Q672.204 524.929 662.366 534.254Q620.143 574.358 579.251 615.817C565.301 629.894 550.831 643.911 537.583 658.628C537.56 662.899 537.899 667.811 536.73 671.94C536.67 671.329 536.5 670.919 536.278 670.353C530.325 668.189 517.127 669.546 510.117 668.994Q491.307 667.483 472.711 664.271C449.432 660.207 380.231 642.746 366.975 623.863C359.189 626.862 351.531 630.267 343.845 633.514C325.292 624.001 307.575 612.673 289.337 602.546C262.631 587.717 234.924 573.741 209.447 556.855C209.179 545.422 210.396 533.917 210.902 522.498Q212.134 490.397 213.732 458.313Q214.737 438.096 215.487 417.867C215.836 408.278 215.672 398.272 217.221 388.798C220.493 386.747 223.707 385.827 227.407 384.894C228.129 365.826 239.236 342.046 247.165 324.682C251.207 315.831 257.411 304.765 257.826 294.978C261.31 290.862 267.379 288.141 271.635 284.767C280.047 278.098 302.869 254.255 305.265 244.567C309.684 237.873 316.94 233.566 323.027 228.536C327.799 224.592 332.315 220.38 337.178 216.535C359.557 198.84 383.736 184.42 410.33 173.998C439.741 162.472 469.764 156.969 501.257 155.676C510.061 155.315 520.676 154.478 528.927 158.083C542.293 151.004 555.462 146.737 570.705 146.327Z"/>
	<path fill="#04488B" transform="scale(0.292969 0.292969)" d="M570.705 146.327C576.281 122.997 586.848 103.175 607.765 90.2637C626.029 78.99 649.6 75.2353 670.487 80.1745Q671.448 80.4049 672.402 80.659Q673.357 80.9131 674.305 81.1907Q675.253 81.4684 676.194 81.7694Q677.135 82.0704 678.068 82.3947Q679.001 82.7189 679.926 83.0662Q680.851 83.4134 681.767 83.7835Q682.683 84.1535 683.589 84.5461Q684.496 84.9387 685.392 85.3537Q686.289 85.7686 687.175 86.2056Q688.061 86.6426 688.936 87.1014Q689.811 87.5602 690.674 88.0405Q691.537 88.5209 692.388 89.0224Q693.239 89.524 694.078 90.0464Q694.916 90.5689 695.741 91.112Q696.567 91.655 697.378 92.2184Q698.19 92.7817 698.987 93.365Q699.784 93.9482 700.567 94.551Q701.35 95.1538 702.117 95.7759Q702.885 96.3979 703.637 97.0387Q704.388 97.6795 705.124 98.3387Q705.86 98.998 706.579 99.6752Q707.298 100.352 708 101.047Q708.703 101.742 709.387 102.454Q710.072 103.166 710.739 103.895Q711.406 104.624 712.055 105.369Q712.704 106.114 713.334 106.875Q713.964 107.636 714.575 108.412Q715.186 109.188 715.777 109.979Q716.369 110.77 716.941 111.576Q717.513 112.382 718.064 113.201Q718.616 114.02 719.147 114.853Q719.679 115.686 720.189 116.532C732.58 136.934 732.81 158.844 729.187 181.728C734.49 184.498 739.883 187.054 744.94 190.271C760.393 200.102 772.573 214.792 778.089 232.369C784.671 253.347 781.447 276.707 771.237 295.981C767.956 302.175 764.053 308.099 760.092 313.876C741.821 337.804 719.481 356.625 691.666 368.507C691.693 368.59 691.721 368.673 691.746 368.756C692.933 372.663 698.605 382.713 698.232 385.694C698.058 387.082 697.763 387.702 696.564 388.454C693.94 390.101 688.831 388.194 686.129 387.474C681.4 411.445 671.496 419.871 651.572 432.412C646.284 435.74 640.925 438.906 636.422 443.291L635.838 443.863C640.755 457.495 646.433 470.274 644.782 485.159C643.49 496.815 636.416 512.714 626.972 519.935C625.181 521.304 622.605 522.996 620.233 522.541C619.365 522.374 619.284 521.888 618.808 521.218C618.602 519.504 618.546 517.852 619.348 516.26C620.69 513.598 623.712 511.187 625.687 508.915C628.268 505.946 630.377 502.326 632.051 498.779C639.73 482.51 635.423 467.122 629.621 451.031C624.88 460.997 625.27 472.552 623.909 483.278C623.254 488.438 621.858 498.515 617.231 501.626C616 502.454 614.63 501.984 613.297 501.692C613.096 501.648 612.895 501.6 612.694 501.553C608.954 504.356 610.108 523.602 603.389 529.137C602.297 530.036 600.574 530.648 599.132 530.368C597.663 530.082 597.479 529.773 596.604 528.655C595.478 522.335 601.269 516.476 602.592 510.582C607.764 487.559 584.478 473.948 573.882 457.083C561.173 436.854 568.638 422.075 581.986 404.848C586.612 398.88 591.899 392.625 593.448 385.024C595.282 376.029 590.693 368.33 585.867 361.22C581.197 362.63 567.292 366.493 563.318 364.617C562.327 364.15 561.755 363.354 561.583 362.275C560.796 357.333 568.83 347.156 571.518 343.025C551.651 328.718 533.152 313.739 518.556 293.869C501.409 270.528 488.799 241.563 493.465 212.077C497.285 187.938 509.633 172.135 528.927 158.083C542.293 151.004 555.462 146.737 570.705 146.327Z"/>
	<path fill="#FEFEFE" transform="scale(0.292969 0.292969)" d="M581.172 344.352C584.717 345.451 587.513 349.951 589.744 352.713L580.108 354.461L572.959 355.892C574.988 351.171 576.53 347.084 581.172 344.352Z"/>
	<path fill="#FEFEFE" transform="scale(0.292969 0.292969)" d="M678.745 369.051C680.107 369.393 681.71 369.712 682.943 370.402C686.086 372.157 686.383 376.48 687.069 379.645C684.697 379.531 682.296 379.036 679.947 378.675C676.898 377.907 673.805 377.27 670.736 376.581C673.214 373.895 676.033 371.499 678.745 369.051Z"/>
	<path fill="#FEFEFE" transform="scale(0.292969 0.292969)" d="M646.801 296.805C647.739 296.828 648.554 296.896 649.468 297.144C653.653 298.281 656.212 303.596 658.305 306.974L650.876 307.161C646.8 307.561 642.654 307.483 638.56 307.535C640.856 303.444 643.526 300.151 646.801 296.805Z"/>
	<path fill="#ECE4CE" transform="scale(0.292969 0.292969)" d="M662.733 348.996C667.02 352.938 670.473 359.103 673.853 363.913C669.838 367.312 661.77 372.117 659.554 376.831C658.974 378.065 659.126 378.69 659.493 379.953C663.276 384.137 672.963 384.782 678.367 385.797L677.248 390.429C672.385 410.326 658.155 418.855 641.664 428.902C638.142 431.369 634.76 434.041 631.35 436.66C623.93 425.617 618.504 411.916 618.265 398.499C617.871 376.419 634.512 371.142 649.83 360.543C654.67 357.194 658.674 353.214 662.733 348.996Z"/>
	<path fill="#ECE4CE" transform="scale(0.292969 0.292969)" d="M629.037 287.321C631.988 289.971 635.046 292.388 638.214 294.773C635.626 298.034 625.311 307.647 625.305 311.669C625.303 313.021 625.623 313.604 626.695 314.418C629.88 316.834 642.676 315.239 647.023 314.913C649.883 324.033 653.974 332.579 657.97 341.243C645.661 360.987 618.814 359.717 611.441 387.2C606.196 406.754 615.408 426.021 624.971 442.596C614.866 458.604 618.478 476.749 612 493.853L611.564 494.327C610.705 493.901 610.949 494.207 610.635 493.571C608.589 489.427 607.018 484.747 604.407 480.933C596.559 469.472 584.897 460.905 578.729 448.231C567.191 424.524 593.304 411.132 600.057 391.381C603.974 379.924 600.26 370.168 595.257 359.806C597.803 359.107 600.01 358.736 601.78 356.655C602.094 355.78 602.378 355.083 602.167 354.132C601.165 349.616 592.52 344.241 588.975 341.451C606.071 326.114 617.416 306.826 629.037 287.321Z"/>
	<path fill="#5A27A3" transform="scale(0.292969 0.292969)" d="M726.953 190C744.33 197.518 758.513 210.032 766.776 227.202C775.095 244.49 775.063 263.907 768.613 281.788C755.809 317.281 722.645 345.376 689.308 360.957C687.305 361.603 685.579 361.818 683.608 360.892C672.763 355.802 660.045 326.77 655.459 315.043C659.415 314.992 664.368 315.413 668.054 313.785C669.634 313.087 670.124 312.258 670.694 310.687C670.17 305.115 662.073 298.091 658.37 294.003C692.697 261.331 713.264 235.87 726.953 190Z"/>
	<path fill="#FEFEFE" transform="scale(0.292969 0.292969)" d="M563.287 154.659C565.266 154.312 567.516 154.43 569.536 154.351Q569.235 160.527 569.212 166.711C569.275 209.28 592.961 251.689 622.613 281.289C620.311 286.334 617.622 291.138 614.72 295.859C608.781 305.522 590.343 334.277 579.513 336.36C575.194 337.191 570.285 332.623 567.109 330.278Q566.18 329.651 565.262 329.007C537.224 309.342 507.647 273.811 501.786 239.631Q501.619 238.697 501.475 237.759Q501.332 236.822 501.212 235.881Q501.091 234.94 500.995 233.996Q500.898 233.052 500.825 232.106Q500.752 231.161 500.703 230.213Q500.653 229.266 500.628 228.318Q500.602 227.369 500.6 226.421Q500.598 225.472 500.619 224.524Q500.641 223.575 500.686 222.628Q500.732 221.68 500.801 220.734Q500.87 219.788 500.962 218.844Q501.055 217.9 501.171 216.958Q501.287 216.017 501.426 215.078Q501.566 214.14 501.729 213.205Q501.892 212.271 502.078 211.341Q502.264 210.411 502.474 209.485Q502.683 208.56 502.916 207.64Q503.148 206.721 503.403 205.807Q503.659 204.893 503.937 203.986Q504.215 203.079 504.515 202.18Q504.816 201.28 505.139 200.388Q505.462 199.496 505.807 198.612Q506.152 197.729 506.519 196.854Q506.886 195.979 507.275 195.114Q507.664 194.249 508.074 193.393Q508.485 192.538 508.916 191.693Q509.348 190.848 509.8 190.015Q510.253 189.181 510.726 188.359Q511.199 187.536 511.693 186.726Q512.186 185.916 512.7 185.118Q513.214 184.321 513.747 183.536Q514.28 182.752 514.833 181.981C526.451 165.828 544.079 157.768 563.287 154.659Z"/>
	<path fill="#04488B" transform="scale(0.292969 0.292969)" d="M552.838 167.996C553.822 168.085 554.858 168.282 555.798 168.586C557.011 168.978 557.827 169.501 558.446 170.639C558.978 176.6 545.941 181.141 542.076 184.917C537.772 189.123 534.672 194.555 532.096 199.94Q529.634 205.079 527.858 210.494Q526.081 215.909 525.02 221.508C524.096 226.342 523.628 231.118 523.426 236.029C523.253 240.253 523.567 245.215 522.549 249.282C522.252 250.467 521.618 251.278 520.866 252.216C519.969 252.186 519.08 252.188 518.203 251.981C516.943 251.683 516.123 251.247 515.498 250.033C511.719 242.695 517.73 213.13 520.492 205.242C526.381 188.423 536.73 175.784 552.838 167.996Z"/>
	<path fill="#417AA1" transform="scale(0.292969 0.292969)" d="M643.375 86.6741C646.635 86.1219 650.521 86.2134 653.836 86.3465C672.293 87.0876 691.533 95.0079 704.127 108.673C717.558 123.248 724.109 143.42 723.246 163.102C721.139 211.157 689.371 254.213 655.172 285.476C653.218 287.013 650.905 289.011 648.351 289.326C645.264 289.706 641.79 287.427 639.431 285.708C612.123 265.814 583.401 216.958 578.27 183.651C574.726 160.653 578.274 134.498 592.396 115.445C604.635 98.9325 623.329 89.6668 643.375 86.6741Z"/>
	<path fill="#04488B" transform="scale(0.292969 0.292969)" d="M642.551 99.5101C643.975 99.3976 645.148 99.2528 646.478 99.9263C647.643 100.516 648.556 101.432 648.969 102.666C648.786 104.352 647.877 105.387 646.62 106.454C641.944 110.425 632.196 113.952 626.224 118.527C620.841 122.651 615.794 129.496 612.432 135.367C606.402 145.895 603.391 157.987 602.64 170.04C602.164 177.678 604.485 190.839 600.876 197.214C599.97 197.135 598.869 197.112 598.006 196.836C596.529 196.363 595.375 195.183 594.669 193.831C590.664 186.157 595.465 155.53 598.219 147.084C606.351 122.153 619.902 110.998 642.551 99.5101Z"/>
	<path fill="#04488B" transform="scale(0.292969 0.292969)" d="M377.375 326.796Q390.243 332.343 402.814 338.534C415.924 331.705 429.656 327.986 444.192 332.665C452.619 335.377 460.205 340.535 464.393 348.513C467.174 353.811 467.74 359.158 467.686 365.051Q480.835 371.437 494.071 377.642C502.373 381.509 510.866 385.06 518.537 390.11C517.72 445.217 518.447 500.351 518.387 555.467C478.965 574.478 438.499 591.559 398.654 609.689C388.155 614.466 377.304 618.763 366.975 623.863C359.189 626.862 351.531 630.267 343.845 633.514C325.292 624.001 307.575 612.673 289.337 602.546C262.631 587.717 234.924 573.741 209.447 556.855C209.179 545.422 210.396 533.917 210.902 522.498Q212.134 490.397 213.732 458.313Q214.737 438.096 215.487 417.867C215.836 408.278 215.672 398.272 217.221 388.798C220.493 386.747 223.707 385.827 227.407 384.894Q246.412 377.045 265.759 370.082C263.951 361.278 264.752 353.267 269.825 345.66C275.096 337.756 284.059 333.073 293.217 331.303C305.299 328.968 318.515 331.162 328.721 338.19Q331.932 340.445 334.635 343.289L377.375 326.796Z"/>
	<path fill="#5A27A3" transform="scale(0.292969 0.292969)" d="M386.516 413.295C401.854 414.712 415.914 419.788 430.384 424.687C427.903 426.064 425.403 427.25 422.807 428.391C419.797 429.902 416.569 431.106 413.46 432.408C402.694 429.572 392.275 425.819 381.611 422.667C383.684 419.669 385.119 416.644 386.516 413.295Z"/>
	<path fill="#5A27A3" transform="scale(0.292969 0.292969)" d="M361.621 394.559C364.925 394.296 367.47 394.347 370.506 395.782Q371.162 396.093 371.784 396.469Q372.406 396.845 372.987 397.281Q373.567 397.718 374.101 398.211Q374.635 398.703 375.116 399.247Q375.597 399.792 376.021 400.381Q376.445 400.971 376.808 401.601Q377.17 402.231 377.467 402.894Q377.764 403.556 377.993 404.246C379.104 407.556 378.995 411.263 377.339 414.376C375.24 418.323 371.558 420.17 367.436 421.398C364.904 421.922 362.496 422.023 359.967 421.376C356.636 420.524 353.842 418.498 352.196 415.452Q351.861 414.818 351.595 414.153Q351.328 413.487 351.132 412.798Q350.936 412.108 350.813 411.402Q350.689 410.696 350.641 409.981Q350.592 409.266 350.618 408.549Q350.643 407.833 350.744 407.123Q350.844 406.413 351.018 405.718Q351.192 405.023 351.437 404.349C353.25 399.245 356.954 396.719 361.621 394.559Z"/>
	<path fill="#FEFEFE" transform="scale(0.292969 0.292969)" d="M305.365 356.106C306.98 356.236 308.549 356.408 310.105 356.883C323.284 360.905 331.217 377.024 337.161 388.301L331.388 387.039C326.411 385.841 321.535 384.423 316.788 382.487C310.018 379.725 301.712 375.335 298.929 368.131C297.938 365.567 297.486 362.273 298.789 359.746C300.026 357.348 302.986 356.667 305.365 356.106Z"/>
	<path fill="#5A27A3" transform="scale(0.292969 0.292969)" d="M330.868 410.648C334.545 411.005 338.206 411.606 341.861 412.142C343.027 413.919 344.109 415.757 345.22 417.57C343.926 418.246 342.62 418.877 341.296 419.493C334.152 422.817 305.732 435.356 300.358 433.397C294.506 431.099 288.937 427.849 283.428 424.83C299.157 419.859 314.907 414.832 330.868 410.648Z"/>
	<path fill="#FEFEFE" transform="scale(0.292969 0.292969)" d="M425.046 355.55C427.585 355.403 430.248 355.33 432.526 356.648C434.044 357.526 435.082 358.894 435.497 360.597C436.419 364.38 434.694 368.634 432.664 371.761C426.171 381.762 414.071 384.972 403.122 387.367C399.709 387.928 396.276 388.29 392.839 388.67Q394.92 384.624 397.108 380.634C403.882 368.219 411.134 359.634 425.046 355.55Z"/>
	<path fill="#FEFEFE" transform="scale(0.292969 0.292969)" d="M376.538 335.997C382.975 336.332 389.908 340.917 395.511 343.859C387.411 351.808 379.037 360.307 373.558 370.347C371.224 374.623 369.911 379.523 367.294 383.635C366.569 384.773 366.113 385.201 364.827 385.543L363.663 384.334C357.521 371.625 350.483 360.304 341.668 349.245C352.658 343.941 365.073 340.264 376.538 335.997Z"/>
	<path fill="#FEFEFE" transform="scale(0.292969 0.292969)" d="M349.323 425.506C351.211 425.771 352.984 426.676 354.743 427.399C362.979 430.785 365.975 430.707 374.376 428.07C383.294 431.648 392.577 434.244 401.639 437.43Q381.928 446 361.876 453.739L348.402 458.979C336.216 452.752 323.536 446.741 311.911 439.518Q330.783 432.955 349.323 425.506Z"/>
	<path fill="#FEFEFE" transform="scale(0.292969 0.292969)" d="M268.015 377.466C272.277 379.457 276.674 386.798 280.637 390.087C289.951 397.816 303.094 402.186 314.247 406.5C301.542 411.93 287.434 414.939 274.112 418.475C268.803 418.595 234.923 396.166 227.806 392.025C241.525 389.015 255.003 382.69 268.015 377.466Z"/>
	<path fill="#FEFEFE" transform="scale(0.292969 0.292969)" d="M465.297 373.076C479.365 378.62 492.787 385.65 506.307 392.391Q477.911 403.928 449.965 416.519L442.369 419.949C432.599 417.767 422.973 414.107 413.463 410.986Q415.756 410.295 418.037 409.565C440.907 402.32 454.065 394.748 465.297 373.076Z"/>
	<path fill="#5A27A3" transform="scale(0.292969 0.292969)" d="M298.231 338.617C305.118 338.408 311.399 338.907 317.811 341.618C336.434 349.49 348.96 370.25 356.11 388.202C353.384 389.933 350.804 391.654 348.34 393.747C342.898 378.92 335.208 363.395 321.837 354.135C315.826 349.972 308.075 346.587 300.649 348.133C296.887 348.915 293.441 350.89 291.446 354.257C288.598 359.062 289.317 365.136 290.787 370.249C291.854 372.446 293.059 374.553 294.557 376.486C306.228 391.549 327.737 394.848 345.386 396.991L342.549 404.143C325.11 403.205 305.653 396.166 290.759 387.238C283.095 382.644 275.423 376.255 273.39 367.108C272.151 361.536 273.295 354.994 276.448 350.223C281.39 342.745 289.919 340.16 298.231 338.617Z"/>
	<path fill="#5A27A3" transform="scale(0.292969 0.292969)" d="M425.895 338.66C426.095 338.639 426.295 338.613 426.495 338.597C435.539 337.876 445.572 339.844 452.535 346.011Q452.911 346.345 453.269 346.698Q453.627 347.05 453.967 347.42Q454.308 347.79 454.629 348.177Q454.95 348.564 455.251 348.966Q455.552 349.369 455.833 349.786Q456.114 350.203 456.373 350.633Q456.633 351.064 456.87 351.507Q457.107 351.95 457.322 352.405Q457.537 352.859 457.728 353.324Q457.92 353.788 458.088 354.262Q458.256 354.736 458.4 355.218Q458.544 355.699 458.664 356.187Q458.784 356.676 458.879 357.169Q458.974 357.663 459.044 358.161Q459.114 358.658 459.158 359.159Q459.203 359.66 459.223 360.162C459.628 368.475 455.27 376.599 449.891 382.659C434.673 399.802 408.629 404.918 386.787 406.083Q385.31 400.685 382.91 395.629C386.599 396.364 390.119 396.856 393.889 396.803C408.562 396.596 426.567 390.909 436.939 380.159C440.039 376.376 442.657 372.436 443.719 367.569C444.731 362.935 444.032 357.606 441.381 353.606C439.003 350.017 434.743 348.086 430.616 347.355C423.556 346.104 416.049 349.186 410.283 353.083C396.964 362.083 385.306 378.501 382.282 394.379C379.738 392.325 377.14 390.462 374.423 388.645C377.191 380.397 380.925 372.742 385.991 365.646C395.867 351.813 408.882 341.445 425.895 338.66Z"/>
	<path fill="#5A27A3" transform="scale(0.292969 0.292969)" d="M275.518 430.106C282.751 433.455 289.625 437.325 296.491 441.358C296.189 475.855 294.235 510.47 292.862 544.944C292.229 560.828 293.226 578.882 290.858 594.398C283.322 590.585 276.085 586.174 268.839 581.847C270.078 531.26 273.105 480.652 275.518 430.106Z"/>
	<path fill="#5A27A3" transform="scale(0.292969 0.292969)" d="M439.288 429.906L440.315 430.134C441.737 435.823 440.004 464.29 439.964 472.163C439.779 508.815 440.811 545.598 439.727 582.225C432.273 585.99 424.449 589.066 416.871 592.585L416.134 592.522C415.468 591.493 415.492 590.982 415.436 589.773C414.79 575.619 415.525 560.631 415.528 546.396L416.016 440.237Q427.725 435.235 439.288 429.906Z"/>
	<path fill="#FEFEFE" transform="scale(0.292969 0.292969)" d="M304.542 444.799L343.697 465.61C344.38 493.519 342.783 521.673 341.956 549.581L340.632 599.203C340.514 605.25 340.825 611.341 340.604 617.373C340.541 619.092 340.763 620.356 339.456 621.567C325.753 614.718 311.629 607.076 298.956 598.477C300.151 582.196 300.065 565.822 300.686 549.513Q302.889 497.166 304.542 444.799Z"/>
	<path fill="#FEFEFE" transform="scale(0.292969 0.292969)" d="M224.186 399.271Q246.046 411.653 267.585 424.586C266.809 475.555 262.64 526.478 260.48 577.407C245.918 571.332 231.132 561.085 217.488 552.905C217.546 532.427 219.037 511.95 219.988 491.5Q221.837 445.375 224.186 399.271Z"/>
	<path fill="#FEFEFE" transform="scale(0.292969 0.292969)" d="M407.302 444.012L407.789 444.599L407.533 445.451L409.356 445.31L407.583 445.693L407.965 446.006C408.605 451.942 407.989 458.204 407.848 464.179Q407.577 476.913 407.612 489.649L407.514 595.993C388.597 606.243 368.551 614.294 348.705 622.532C347.29 620.473 351.459 481.03 351.73 466.409C358.682 463.103 366.124 460.59 373.304 457.795Q390.434 451.227 407.302 444.012Z"/>
	<path fill="#FEFEFE" transform="scale(0.292969 0.292969)" d="M509.424 399.513C510.966 402.425 509.634 536.645 509.524 550.784C500.15 556.127 490.069 559.972 480.178 564.229Q464.213 571.078 448.636 578.77C445.898 575.553 448.475 439.166 448.537 425.97C468.84 417.123 489.331 408.849 509.424 399.513Z"/>
</svg>
