<?xml version="1.0" encoding="utf-8" ?>
<svg xmlns="http://www.w3.org/2000/svg" xmlns:xlink="http://www.w3.org/1999/xlink" width="300" height="300">
	<path fill="#FEFEFE" transform="scale(0.292969 0.292969)" d="M0 0L1024 0L1024 1024L0 1024L0 0Z"/>
	<path fill="#34A5A4" transform="scale(0.292969 0.292969)" d="M498.249 162.211Q498.96 162.144 499.672 162.099C514.109 161.299 528.927 162.479 543.295 163.812Q546.778 164.105 550.255 164.47Q553.732 164.835 557.2 165.271Q560.668 165.706 564.127 166.213Q567.586 166.72 571.033 167.297Q574.481 167.875 577.916 168.523Q581.351 169.171 584.772 169.889Q588.193 170.607 591.599 171.395Q595.005 172.184 598.394 173.041Q601.782 173.899 605.153 174.826Q608.523 175.753 611.874 176.748Q615.225 177.744 618.555 178.808Q621.885 179.873 625.192 181.005Q628.499 182.137 631.783 183.336Q635.066 184.536 638.324 185.803Q641.582 187.069 644.814 188.402Q648.045 189.735 651.249 191.134Q654.452 192.533 657.626 193.998Q660.801 195.462 663.944 196.991Q667.088 198.52 670.199 200.113Q673.311 201.706 676.389 203.363Q679.468 205.019 682.511 206.738Q685.555 208.457 688.563 210.238Q691.571 212.02 694.541 213.862Q697.512 215.704 700.444 217.607Q703.377 219.51 706.27 221.472Q709.163 223.435 712.015 225.456Q714.867 227.477 717.677 229.557Q720.487 231.636 723.254 233.772Q726.02 235.909 728.743 238.101Q731.465 240.294 734.142 242.542Q736.82 244.79 739.45 247.092Q742.08 249.394 744.663 251.75Q747.798 254.615 750.862 257.556Q753.927 260.497 756.918 263.512Q759.91 266.527 762.827 269.614Q765.745 272.7 768.586 275.857Q771.427 279.014 774.191 282.24Q776.954 285.465 779.638 288.757Q782.322 292.049 784.925 295.405Q787.528 298.761 790.049 302.18Q792.569 305.598 795.005 309.077Q797.442 312.556 799.792 316.094Q802.143 319.631 804.407 323.225Q806.671 326.818 808.846 330.466Q811.022 334.114 813.108 337.813Q815.194 341.513 817.189 345.263Q819.185 349.012 821.088 352.809Q822.991 356.606 824.801 360.448Q826.611 364.29 828.327 368.176Q830.043 372.061 831.664 375.987Q833.285 379.912 834.809 383.877Q836.334 387.841 837.761 391.841Q839.189 395.841 840.518 399.875Q841.848 403.909 843.079 407.974Q844.31 412.039 845.441 416.133Q846.572 420.227 847.604 424.347Q848.635 428.467 849.565 432.611Q850.496 436.755 851.325 440.921Q852.154 445.086 852.882 449.271Q853.609 453.455 854.234 457.656Q854.86 461.857 855.382 466.072Q855.905 470.287 856.325 474.514Q856.744 478.74 857.061 482.976Q857.378 487.211 857.591 491.453C861.984 582.177 832.271 673.113 770.733 740.659Q767.823 743.844 764.837 746.957Q761.851 750.07 758.79 753.11Q755.73 756.15 752.596 759.114Q749.462 762.078 746.257 764.966Q743.052 767.853 739.777 770.661Q736.503 773.47 733.161 776.198Q729.819 778.926 726.412 781.572Q723.005 784.218 719.535 786.78Q716.065 789.342 712.533 791.819Q709.001 794.296 705.41 796.687Q701.819 799.077 698.172 801.38Q694.523 803.682 690.821 805.895Q687.118 808.108 683.362 810.23Q679.607 812.353 675.8 814.383Q671.994 816.414 668.14 818.351Q664.286 820.288 660.385 822.131Q656.485 823.974 652.541 825.721Q648.597 827.469 644.612 829.12Q640.626 830.771 636.602 832.324Q632.578 833.878 628.517 835.333Q624.456 836.789 620.361 838.145Q616.266 839.501 612.139 840.757Q608.012 842.013 603.856 843.168Q599.7 844.324 595.517 845.378Q591.333 846.432 587.126 847.384Q582.919 848.335 578.689 849.185Q574.46 850.034 570.211 850.78Q565.962 851.526 561.697 852.169Q557.431 852.812 553.151 853.35Q548.871 853.889 544.579 854.323Q540.287 854.758 535.986 855.088Q531.685 855.418 527.377 855.643C526.752 855.703 526.132 855.76 525.504 855.795Q522.242 855.968 518.978 856.076Q515.714 856.184 512.448 856.226Q509.182 856.269 505.916 856.247Q502.65 856.225 499.385 856.137Q496.12 856.05 492.857 855.898Q489.594 855.745 486.336 855.528Q483.077 855.311 479.823 855.029Q476.569 854.746 473.321 854.4Q470.073 854.053 466.833 853.641Q463.593 853.23 460.362 852.754Q457.13 852.278 453.909 851.738Q450.688 851.197 447.478 850.593Q444.268 849.989 441.071 849.321Q437.874 848.653 434.691 847.921Q431.508 847.19 428.34 846.395Q425.172 845.6 422.02 844.742Q418.869 843.884 415.735 842.964Q412.601 842.043 409.486 841.061Q406.371 840.078 403.277 839.034Q400.182 837.989 397.109 836.883Q394.036 835.777 390.985 834.61Q387.934 833.444 384.908 832.216Q381.881 830.989 378.879 829.701Q375.877 828.414 372.902 827.067Q369.926 825.72 366.978 824.314Q364.03 822.908 361.111 821.444Q358.191 819.979 355.301 818.457Q352.412 816.935 349.553 815.355Q346.694 813.776 343.867 812.139Q341.04 810.503 338.247 808.811Q335.453 807.119 332.694 805.372Q329.934 803.624 327.21 801.822C310.538 790.764 294.949 777.857 280.09 764.491Q276.981 761.683 273.941 758.799Q270.901 755.915 267.933 752.958Q264.965 750.001 262.07 746.972Q259.175 743.944 256.355 740.845Q253.535 737.746 250.791 734.58Q248.048 731.413 245.383 728.18Q242.717 724.947 240.132 721.65Q237.547 718.353 235.043 714.993Q232.539 711.634 230.118 708.214Q227.697 704.795 225.361 701.317Q223.024 697.839 220.773 694.305Q218.522 690.771 216.359 687.184Q214.195 683.596 212.12 679.956Q210.044 676.316 208.059 672.627Q206.073 668.937 204.178 665.201Q202.283 661.464 200.48 657.682Q198.678 653.899 196.968 650.074Q195.258 646.249 193.642 642.383Q192.027 638.518 190.506 634.614Q188.985 630.709 187.56 626.769Q186.136 622.829 184.808 618.855Q183.48 614.881 182.249 610.876Q181.019 606.871 179.887 602.837Q178.755 598.803 177.722 594.743Q176.689 590.682 175.755 586.598Q174.822 582.513 173.989 578.407Q173.156 574.301 172.423 570.176Q171.691 566.05 171.059 561.908Q170.428 557.766 169.898 553.61Q169.368 549.454 168.94 545.286Q168.512 541.118 168.186 536.941Q167.86 532.764 167.636 528.58Q167.392 524.219 167.257 519.852Q167.122 515.486 167.096 511.118Q167.069 506.75 167.152 502.383Q167.234 498.015 167.425 493.651Q167.615 489.287 167.915 484.929Q168.214 480.571 168.621 476.222Q169.029 471.873 169.544 467.535Q170.06 463.197 170.683 458.874Q171.306 454.55 172.037 450.243Q172.767 445.937 173.605 441.65Q174.442 437.362 175.386 433.097Q176.33 428.832 177.379 424.592Q178.429 420.352 179.584 416.139Q180.738 411.926 181.997 407.743Q183.256 403.56 184.619 399.41Q185.982 395.26 187.447 391.145Q188.913 387.03 190.48 382.952Q192.047 378.875 193.716 374.838Q195.384 370.801 197.152 366.806Q198.92 362.812 200.787 358.863Q202.654 354.914 204.618 351.012Q206.583 347.111 208.644 343.259Q210.705 339.408 212.861 335.609Q215.017 331.81 217.267 328.065Q219.517 324.321 221.859 320.634Q224.201 316.947 226.635 313.319Q229.068 309.691 231.591 306.125Q234.113 302.559 236.724 299.057Q239.335 295.554 242.032 292.118Q244.729 288.682 247.51 285.314Q250.292 281.946 253.156 278.648Q256.02 275.35 258.966 272.124C275.285 254.085 293.56 238.568 313.483 224.641C368.639 186.083 431.175 165.547 498.249 162.211Z"/>
	<path fill="#FEFEFE" transform="scale(0.292969 0.292969)" d="M317.293 784.082C328.559 782.363 340.792 783.737 352.2 783.713L421.046 783.299L607.642 783.46C641.125 783.54 674.742 784.42 708.203 783.529C697.902 792.143 685.087 799.284 673.319 805.707Q670.573 807.214 667.8 808.67Q665.026 810.126 662.227 811.531Q659.427 812.936 656.602 814.289Q653.777 815.642 650.927 816.943Q648.078 818.243 645.205 819.491Q642.332 820.74 639.437 821.935Q636.541 823.13 633.624 824.271Q630.707 825.413 627.77 826.5Q624.833 827.588 621.876 828.622Q618.919 829.655 615.943 830.634Q612.968 831.612 609.975 832.536Q606.982 833.46 603.972 834.329Q600.963 835.198 597.938 836.011Q594.913 836.824 591.873 837.581Q588.834 838.338 585.781 839.039Q582.728 839.74 579.663 840.385Q576.598 841.03 573.521 841.619Q570.444 842.207 567.358 842.738Q564.271 843.27 561.175 843.745Q558.078 844.219 554.974 844.637Q551.87 845.055 548.758 845.415Q545.646 845.776 542.529 846.079Q539.411 846.382 536.289 846.627Q533.166 846.873 530.039 847.061Q526.913 847.249 523.783 847.38Q520.653 847.51 517.522 847.583Q514.39 847.656 511.258 847.671Q508.126 847.687 504.994 847.644Q501.862 847.602 498.731 847.502Q495.6 847.402 492.472 847.244Q489.343 847.086 486.218 846.871Q483.093 846.656 479.973 846.383Q477.224 846.152 474.48 845.873Q471.736 845.593 468.997 845.266Q466.258 844.938 463.526 844.562Q460.793 844.187 458.067 843.763Q455.342 843.339 452.624 842.867Q449.906 842.395 447.197 841.875Q444.488 841.356 441.789 840.788Q439.09 840.221 436.401 839.606Q433.712 838.991 431.034 838.329Q428.356 837.667 425.691 836.958Q423.025 836.249 420.372 835.493Q417.72 834.737 415.081 833.934Q412.442 833.131 409.817 832.282Q407.193 831.433 404.584 830.538Q401.974 829.643 399.381 828.702Q396.789 827.761 394.213 826.775Q391.637 825.788 389.079 824.756Q386.52 823.725 383.981 822.648Q381.441 821.571 378.921 820.45Q376.401 819.329 373.901 818.164Q371.401 816.998 368.922 815.789Q366.443 814.58 363.985 813.327Q361.528 812.074 359.093 810.778Q356.658 809.482 354.246 808.144Q351.834 806.805 349.446 805.424Q347.058 804.043 344.695 802.62Q342.332 801.198 339.994 799.733Q337.657 798.269 335.345 796.764Q333.034 795.259 330.749 793.713Q328.464 792.168 326.207 790.582Q323.95 788.996 321.722 787.371Q319.493 785.746 317.293 784.082Z"/>
	<path fill="#FEFEFE" transform="scale(0.292969 0.292969)" d="M304.834 773.989C289.488 763.636 275.572 749.682 263.275 735.934C222.116 689.913 193.671 635.381 181.836 574.596Q181.042 570.452 180.35 566.29Q179.658 562.127 179.067 557.949Q178.477 553.771 177.99 549.58Q177.502 545.389 177.117 541.187Q176.733 536.985 176.451 532.775Q176.169 528.565 175.99 524.349Q175.812 520.133 175.736 515.914Q175.661 511.696 175.689 507.476Q175.717 503.257 175.849 499.039Q175.98 494.822 176.215 490.609Q176.449 486.396 176.787 482.19Q177.125 477.984 177.565 473.787Q178.006 469.591 178.549 465.407Q179.092 461.222 179.738 457.052Q180.383 452.883 181.131 448.73Q181.878 444.577 182.727 440.444Q183.576 436.311 184.526 432.2Q185.476 428.088 186.527 424.002Q187.577 419.915 188.727 415.855Q189.877 411.795 191.126 407.765Q192.375 403.735 193.723 399.736Q195.07 395.738 196.515 391.773Q197.96 387.809 199.502 383.881Q201.044 379.953 202.681 376.065Q204.319 372.176 206.051 368.328Q207.783 364.481 209.609 360.677Q211.435 356.873 213.353 353.114Q215.271 349.356 217.281 345.646Q219.291 341.936 221.392 338.277Q223.492 334.617 225.681 331.01Q227.87 327.403 230.147 323.85Q232.424 320.298 234.787 316.802Q237.089 313.431 239.473 310.116Q241.857 306.802 244.321 303.547Q246.784 300.292 249.326 297.097Q251.868 293.903 254.488 290.771Q257.107 287.639 259.801 284.572Q262.496 281.505 265.264 278.505Q268.032 275.504 270.873 272.572Q273.713 269.64 276.624 266.778Q279.535 263.915 282.515 261.125Q285.495 258.334 288.542 255.617Q291.589 252.899 294.701 250.257Q297.813 247.615 300.988 245.049Q304.163 242.483 307.4 239.995Q310.637 237.507 313.933 235.099Q317.23 232.69 320.584 230.363Q323.938 228.035 327.348 225.79Q330.757 223.545 334.221 221.383Q337.684 219.222 341.199 217.145Q344.714 215.068 348.278 213.078Q351.842 211.087 355.454 209.184Q359.066 207.281 362.722 205.466Q366.379 203.651 370.079 201.926Q373.779 200.201 377.52 198.566Q381.261 196.931 385.041 195.388Q388.82 193.845 392.636 192.394Q396.452 190.943 400.302 189.585Q404.153 188.228 408.035 186.964Q411.917 185.701 415.828 184.532Q419.74 183.363 423.679 182.29Q427.618 181.217 431.582 180.24Q435.545 179.263 439.532 178.382Q443.518 177.502 447.525 176.719Q451.615 175.95 455.723 175.28Q459.831 174.611 463.954 174.041Q468.076 173.472 472.212 173.003Q476.347 172.534 480.493 172.165Q484.638 171.797 488.792 171.53Q492.945 171.262 497.104 171.096Q501.262 170.93 505.424 170.865Q509.585 170.8 513.747 170.836Q517.909 170.872 522.069 171.009Q526.228 171.146 530.383 171.385Q534.539 171.623 538.687 171.963Q542.835 172.302 546.973 172.742Q551.112 173.182 555.239 173.723Q559.365 174.264 563.478 174.905Q567.59 175.546 571.685 176.286Q575.781 177.027 579.857 177.867Q583.933 178.707 587.988 179.646Q592.043 180.585 596.073 181.623Q600.104 182.66 604.108 183.795Q608.112 184.93 612.088 186.162Q616.063 187.394 620.008 188.722Q623.952 190.051 627.863 191.475Q631.773 192.899 635.648 194.417Q639.523 195.936 643.36 197.548Q647.197 199.161 650.994 200.866Q654.791 202.571 658.544 204.368Q662.298 206.165 666.008 208.053Q669.717 209.941 673.379 211.918Q677.041 213.896 680.654 215.962Q684.267 218.028 687.829 220.181Q691.391 222.334 694.899 224.573Q698.407 226.812 701.86 229.136Q705.291 231.494 708.663 233.935Q712.035 236.376 715.346 238.899Q718.657 241.422 721.905 244.025Q725.153 246.628 728.336 249.311Q731.52 251.993 734.636 254.752Q737.753 257.512 740.801 260.347Q743.849 263.182 746.826 266.091Q749.804 269 752.709 271.981Q755.615 274.963 758.446 278.014Q761.277 281.066 764.033 284.186Q766.789 287.306 769.467 290.492Q772.145 293.679 774.745 296.93Q777.344 300.182 779.863 303.496Q782.382 306.81 784.819 310.185Q787.256 313.56 789.609 316.994Q791.962 320.427 794.231 323.918Q796.499 327.408 798.681 330.953Q800.863 334.498 802.958 338.095Q805.052 341.693 807.058 345.34Q809.064 348.988 810.979 352.684Q812.895 356.38 814.719 360.121Q816.544 363.863 818.276 367.648Q820.008 371.433 821.647 375.26Q823.286 379.086 824.83 382.952Q826.375 386.818 827.824 390.72Q829.273 394.622 830.626 398.559Q831.979 402.496 833.235 406.464Q834.491 410.433 835.65 414.431Q836.808 418.43 837.868 422.455Q838.928 426.481 839.889 430.531Q840.85 434.581 841.712 438.654Q842.573 442.727 843.334 446.819Q844.117 450.914 844.799 455.027Q845.481 459.141 846.061 463.269Q846.64 467.398 847.117 471.54Q847.595 475.682 847.969 479.835Q848.343 483.987 848.615 488.148Q848.886 492.308 849.054 496.474Q849.223 500.64 849.287 504.809Q849.352 508.978 849.314 513.147Q849.276 517.316 849.134 521.483Q848.992 525.65 848.747 529.812Q848.502 533.974 848.154 538.129Q847.806 542.284 847.356 546.429Q846.905 550.574 846.351 554.706Q845.798 558.839 845.142 562.956Q844.487 567.074 843.729 571.174Q842.972 575.274 842.113 579.354Q841.254 583.434 840.294 587.491Q839.335 591.548 838.275 595.581Q837.215 599.613 836.055 603.618Q834.896 607.623 833.638 611.598Q832.379 615.573 831.023 619.515Q829.666 623.458 828.212 627.366Q826.759 631.273 825.208 635.144Q823.658 639.014 822.013 642.845Q820.367 646.676 818.627 650.465Q816.887 654.254 815.054 657.998Q813.22 661.743 811.295 665.441Q809.369 669.139 807.353 672.788Q805.336 676.438 803.229 680.036Q801.123 683.634 798.928 687.179Q796.733 690.724 794.451 694.213Q792.169 697.702 789.801 701.134C774.074 724.029 755.543 743.279 735.393 762.25C731.62 765.802 725.162 773.424 719.972 774.538C719.787 774.578 719.597 774.582 719.409 774.604C718.571 777.826 715.26 779.913 712.531 781.497C711.122 782.315 709.76 783.029 708.203 783.529C674.742 784.42 641.125 783.54 607.642 783.46L421.046 783.299L352.2 783.713C340.792 783.737 328.559 782.363 317.293 784.082C311.831 782.435 308.384 778.168 304.834 773.989Z"/>
	<path fill="#0F395A" transform="scale(0.292969 0.292969)" d="M620.625 503.574L621.304 503.649C625.428 506.891 629.181 520.948 630.95 526.063C650.018 519.006 669.451 512.961 688.593 506.102Q704.058 550.239 718.897 594.591C724.074 609.633 730.078 624.31 734.652 639.566C721.896 647.908 700.344 652.625 685.675 657.51C664.335 664.618 643.113 672.136 621.854 679.485Q603.093 686.103 584.246 692.471C575.572 695.374 566.92 698.415 557.964 700.335C551.106 685.545 546.195 668.011 540.895 652.475C531.411 624.674 521.652 596.799 513.367 568.617C530.739 561.53 548.848 556.416 566.085 549.018C564.671 546.018 563.222 542.847 562.377 539.633C561.248 535.333 561.121 530.118 563.594 526.202C565.119 523.788 568.106 521.96 570.584 520.697C575.648 518.115 581.615 516.548 586.985 514.648C598.074 510.726 609.203 506.431 620.625 503.574Z"/>
	<path fill="#FEFEFE" transform="scale(0.292969 0.292969)" d="M615.504 514.533L616.739 514.772C620.004 518.362 621.552 524.336 623.212 528.867C608.091 534.905 592.487 539.852 577.119 545.233L574.708 545.942C573.586 545.591 573.206 545.274 572.701 544.175C571.04 540.56 569.776 535.254 571.127 531.458C575.218 526.385 607.899 517.035 615.504 514.533Z"/>
	<path fill="#FEFEFE" transform="scale(0.292969 0.292969)" d="M681.43 517.991L682.487 518.29C684.565 520.83 685.51 524.61 686.614 527.697C693.273 546.313 698.768 565.338 705.324 584.008Q710.051 597.555 714.943 611.044C717.89 619.13 721.086 627.157 722.988 635.57C716.945 637.347 710.976 639.727 705.014 641.784L672.649 652.812L565.619 689.142C565.032 689.348 564.648 689.293 564.036 689.26C559.347 683.032 549.113 647.105 545.826 637.294C538.767 616.228 531.058 595.455 524.567 574.196C563.138 558.898 602.879 545.782 642.018 531.966C655.145 527.332 668.473 523.079 681.43 517.991Z"/>
	<path fill="#34A5A4" transform="scale(0.292969 0.292969)" d="M655.168 545.574C661.868 545.246 667.838 545.72 673.506 549.749C677.278 552.43 680.117 556.331 680.722 560.992C681.179 564.51 680.357 567.926 678.78 571.062C674.028 580.512 666.175 589.286 659.989 597.92C649.308 612.829 638.995 628.096 628.07 642.815C624.413 647.741 619.813 652.837 613.39 653.645C601.654 655.12 589.966 644.061 581.37 637.508C572.645 631.955 558.713 625.394 556.298 614.524C555.135 609.288 556.408 603.659 559.385 599.237C562.036 595.299 566.021 592.3 570.767 591.502C581.381 589.719 597.116 603.2 605.583 608.999Q617.09 593.316 628.108 577.285C633.768 568.918 638.914 559.649 645.757 552.212C648.617 549.104 651.132 547.048 655.168 545.574Z"/>
	<path fill="#FEFEFE" transform="scale(0.292969 0.292969)" d="M660.115 557.958C660.345 558.002 660.575 558.037 660.803 558.088C662.884 558.558 665.312 559.43 666.278 561.516C667.231 563.574 666.342 566.069 665.365 567.938C663.135 572.205 659.548 576.117 656.71 580.012C651.798 586.754 647.064 593.651 642.201 600.433C634.114 611.711 626.778 623.945 618.098 634.729C616.556 636.645 614.68 639.15 612.231 639.812C605.403 641.655 593.35 630.191 588.036 626.417C584.103 623.623 580.077 621.038 575.957 618.53C573.952 617.258 571.896 615.944 570.583 613.913C569.455 612.169 568.68 609.694 569.356 607.64C569.746 606.456 570.691 605.433 571.841 604.955C573.853 604.118 576.202 604.712 578.105 605.546C581.926 607.222 585.474 610.494 588.91 612.9C595.574 617.567 602.15 622.032 609.388 625.785C615.436 618.93 620.234 610.787 625.39 603.247C631.637 594.113 638.202 585.189 644.562 576.133C648.031 571.195 651.273 565.602 655.415 561.222C656.871 559.683 658.149 558.748 660.115 557.958Z"/>
	<path fill="#0F395A" transform="scale(0.292969 0.292969)" d="M404.861 317.96C391.44 309.339 382.275 299.089 378.709 283.172Q378.418 281.854 378.193 280.524Q377.967 279.193 377.808 277.853Q377.649 276.513 377.556 275.166Q377.464 273.82 377.438 272.471Q377.412 271.121 377.453 269.772Q377.494 268.423 377.601 267.078Q377.709 265.733 377.883 264.395Q378.057 263.056 378.297 261.728Q378.537 260.4 378.842 259.086Q379.147 257.771 379.517 256.473Q379.888 255.175 380.321 253.898Q380.755 252.62 381.252 251.365Q381.748 250.11 382.306 248.881Q382.864 247.652 383.483 246.453Q384.101 245.253 384.777 244.085Q385.454 242.918 386.188 241.785C393.331 230.713 404.47 222.197 417.464 219.411C429.247 216.885 441.583 219.705 451.609 226.234Q452.744 226.977 453.841 227.775Q454.938 228.573 455.994 229.425Q457.05 230.277 458.062 231.18Q459.074 232.084 460.04 233.036Q461.006 233.989 461.923 234.988Q462.84 235.988 463.707 237.032Q464.573 238.076 465.387 239.162Q466.2 240.247 466.958 241.372Q467.717 242.497 468.418 243.658Q469.119 244.82 469.762 246.014Q470.405 247.209 470.987 248.434Q471.57 249.66 472.091 250.912Q472.611 252.165 473.069 253.442Q473.527 254.719 473.921 256.017Q474.314 257.316 474.643 258.632Q474.971 259.948 475.234 261.279Q475.49 262.497 475.685 263.727Q475.881 264.957 476.015 266.194Q476.15 267.432 476.223 268.675Q476.296 269.918 476.308 271.163Q476.32 272.408 476.271 273.652Q476.221 274.896 476.11 276.136Q476 277.376 475.828 278.609Q475.656 279.842 475.424 281.065Q475.191 282.289 474.899 283.499Q474.606 284.709 474.254 285.903Q473.902 287.097 473.492 288.273Q473.082 289.448 472.614 290.602Q472.146 291.756 471.622 292.885Q471.098 294.015 470.519 295.117Q469.94 296.219 469.307 297.291Q468.674 298.363 467.989 299.403C462.519 307.617 454.912 313.136 446.463 317.994L446.486 326.239C461.535 329.463 476.129 333.881 484.996 347.505C487.962 352.062 489.86 357.164 491.07 362.446C493.408 372.651 493.735 383.546 494.775 393.955C496.396 410.176 498.174 426.417 500.126 442.601Q514.191 455.133 528.519 467.362C536.697 474.316 547.317 481.443 553.471 490.26C555.672 493.413 556.97 497.638 557.243 501.45C557.624 506.759 556.011 512.077 552.441 516.069Q552.113 516.433 551.768 516.781Q551.422 517.129 551.06 517.459Q550.698 517.79 550.32 518.102Q549.942 518.414 549.549 518.708Q549.156 519.001 548.75 519.275Q548.343 519.549 547.923 519.802Q547.504 520.056 547.072 520.288Q546.641 520.521 546.198 520.732Q545.756 520.943 545.303 521.132Q544.851 521.321 544.39 521.488Q543.929 521.654 543.46 521.798Q542.992 521.942 542.516 522.063Q542.041 522.183 541.561 522.281Q541.08 522.378 540.596 522.452Q540.111 522.525 539.623 522.575Q539.136 522.624 538.646 522.65C534.638 522.841 530.707 521.799 527.199 519.888C518.591 515.197 511.461 507.014 504.288 500.402C497.681 494.312 490.881 488.396 484.372 482.205L484.024 481.869L484.079 470.063Q497.005 480.873 509.251 492.449C515.53 498.319 523.272 507.405 530.688 511.614C533.097 512.981 536.218 513.717 538.984 513.418C541.664 513.129 543.99 511.808 545.606 509.654C547.389 507.276 548.325 504.188 547.847 501.237Q547.673 500.168 547.354 499.133Q547.036 498.098 546.579 497.117Q546.121 496.135 545.534 495.225Q544.946 494.316 544.24 493.495C538.085 486.241 529.343 480.545 522.107 474.339Q506.445 460.63 491.245 446.41C489.535 436.896 488.809 427.217 487.863 417.604L484.591 386.456C483.648 377.405 483.723 367.69 480.44 359.102Q480.014 357.962 479.501 356.859Q478.988 355.756 478.392 354.695Q477.796 353.635 477.119 352.623Q476.443 351.612 475.691 350.656Q474.938 349.7 474.114 348.805Q473.29 347.91 472.4 347.081Q471.509 346.252 470.557 345.494Q469.605 344.736 468.598 344.054C461.551 339.229 453.247 337.385 445.073 335.426C441.413 341.092 437.06 345.366 430.247 346.934Q429.685 347.068 429.117 347.173Q428.549 347.277 427.976 347.352Q427.404 347.427 426.828 347.472Q426.252 347.517 425.675 347.533Q425.097 347.548 424.52 347.533Q423.942 347.518 423.367 347.474Q422.791 347.429 422.218 347.354Q421.645 347.28 421.077 347.176Q420.509 347.072 419.947 346.938Q419.385 346.805 418.831 346.642Q418.276 346.48 417.731 346.289Q417.186 346.098 416.652 345.879Q416.117 345.66 415.595 345.413Q415.073 345.167 414.564 344.893Q414.055 344.62 413.561 344.321Q413.067 344.022 412.589 343.697C409.732 341.778 407.582 339.3 405.557 336.551C394.797 339.358 365.59 345.047 360.116 354.336C356.883 359.82 334.63 430.172 334.321 434.924C333.895 441.482 335.571 448.909 336.542 455.418Q338.928 471.482 341.517 487.514C343.478 499.602 345.556 518.205 349.082 529.529C349.799 531.831 351.692 533.64 353.425 535.227C357.823 536.1 362.565 536.711 366.536 534.042C368.54 532.696 369.788 530.584 370.216 528.226C371.133 523.165 369.727 517.088 368.966 512.039Q366.461 496.021 363.515 480.078C361.819 470.715 357.802 456.305 359.012 447.21C359.732 441.795 362.45 437.218 364.354 432.174Q369.267 419.289 373.469 406.154C375.438 399.807 378.856 383.839 384.233 380.144C384.969 379.638 385.467 379.75 386.322 379.7C388.449 380.783 389.49 382.422 390.257 384.658C392.472 391.109 393.35 470.195 392.448 480.603C391.608 490.303 389.036 499.991 386.874 509.472C415.87 509.978 444.794 509.581 473.787 509.442C471.557 498.723 469.267 487.974 468.032 477.084C465.926 458.504 465.984 439.706 465.276 421.039C464.676 405.199 463.56 389.425 463.414 373.566C466.572 373.475 469.738 373.333 472.897 373.299Q473.899 406.187 475.49 439.052C476.114 453.34 476.307 467.642 478.1 481.846C481.618 509.712 487.13 537.444 492.165 565.073L512.606 676.957C517.066 700.946 522.061 724.816 525.207 749.028C530.465 746.818 545.516 739.608 550.64 741.917C551.799 742.439 552.278 743.237 552.591 744.431C552.898 745.6 552.442 747.044 551.681 747.925C550.183 749.661 547.366 750.948 545.296 751.925C536.735 755.966 527.63 758.885 518.922 762.604C510.659 766.133 502.74 770.534 494.437 773.933C552.481 774.872 610.583 774.501 668.636 774.837C685.542 774.935 702.514 774.075 719.409 774.604C718.571 777.826 715.26 779.913 712.531 781.497C711.122 782.315 709.76 783.029 708.203 783.529C674.742 784.42 641.125 783.54 607.642 783.46L421.046 783.299L352.2 783.713C340.792 783.737 328.559 782.363 317.293 784.082C311.831 782.435 308.384 778.168 304.834 773.989L376.498 773.955C389.631 773.965 402.912 774.565 416.018 773.793C396.214 768.188 376.705 760.647 357.427 753.439C358.182 737.125 360.417 720.839 362.187 704.607Q366.216 667.888 369.505 631.095C372.082 600.975 371.511 570.732 373.566 540.591C367.537 544.31 361.788 546.723 354.516 545.132C349.745 544.088 344.538 540.998 341.931 536.759C337.069 528.852 324.801 447.646 324.723 435.501C324.702 432.186 325.75 428.759 326.659 425.599C330.304 412.924 334.631 400.378 338.632 387.807C342.382 376.021 346.678 356.768 353.363 346.922C354.949 344.586 358.351 342.636 360.813 341.281C373.776 334.147 390.494 330.415 404.872 327.101L404.861 317.96Z"/>
	<path fill="#FEFEFE" transform="scale(0.292969 0.292969)" d="M381.472 409.244C381.582 409.393 381.703 409.535 381.801 409.691C383.979 413.15 384.097 473.663 383.193 481.603C382.121 491.018 379.526 500.472 377.427 509.714L376.338 503.439C374.738 492.69 367.623 458.064 368.719 449.699C369.55 443.353 372.497 436.927 374.557 430.877Q378.198 420.119 381.472 409.244Z"/>
	<path fill="#FEFEFE" transform="scale(0.292969 0.292969)" d="M425.795 228.218Q427.434 228.178 429.069 228.282Q430.705 228.386 432.325 228.633Q433.946 228.881 435.538 229.27Q437.13 229.659 438.682 230.186C450.554 234.255 458.216 243.558 463.578 254.505C453.42 253.915 440.63 254.588 431.296 250.274C427.876 248.694 425.182 244.814 422.315 243.715C421.568 243.428 421.226 243.756 420.534 244.021C418.063 246.775 418.885 250.444 418.349 253.843L418.216 254.643C417.133 257.078 415.943 259.368 414.203 261.409C407.252 269.565 396.233 271.928 386.044 272.675C387.42 261.326 389.357 251.225 396.954 242.228C404.464 233.334 414.376 229.187 425.795 228.218Z"/>
	<path fill="#FEFEFE" transform="scale(0.292969 0.292969)" d="M426.498 258.236C439.407 263.123 453.546 263.006 467.175 263.72C468.024 273.089 466.962 282.45 462.512 290.848C456.989 301.273 448.474 306.996 437.401 310.366C437.485 316.756 439.075 324.842 436.726 330.865C435.265 334.611 432.939 336.052 429.422 337.684C428.449 337.902 427.496 337.958 426.501 337.998C422.967 338.143 419.501 337.798 416.867 335.188C411.464 329.836 412.892 318.337 413.015 311.325Q410.458 309.964 407.94 308.532C397.251 302.391 391.241 293.235 388.062 281.482C392.171 281.48 396.151 281.062 400.125 279.989C412.292 276.703 420.306 268.902 426.498 258.236Z"/>
	<path fill="#FEFEFE" transform="scale(0.292969 0.292969)" d="M435.19 590.843C436.228 591.976 436.588 593.285 437.005 594.745C442.615 614.414 447.333 634.377 452.84 654.091Q462.882 689.775 472.437 725.592C476.845 741.707 481.517 757.76 485.456 773.998L449.75 774.021L427.908 774.012L431.401 770.241Q416.246 764.749 401.362 758.558C402.777 753.207 403.604 747.539 404.678 742.097Q407.899 725.574 411.289 709.084Q424.009 650.119 435.19 590.843Z"/>
	<path fill="#FEFEFE" transform="scale(0.292969 0.292969)" d="M383.524 518.476C413.388 518.79 444.599 517.386 474.219 519.108C475.807 530.286 478.827 541.539 480.821 552.699Q489.245 601.521 498.489 650.193L511.004 717.836C513.113 729.373 514.585 741.07 517.362 752.47C509.212 756.383 501.457 761.091 493.13 764.625Q471.245 688.432 451.063 611.771C445.033 591.767 440.369 571.314 434.45 551.253C429.605 570.27 426.473 589.78 422.566 609.012C412.607 658.029 403.429 707.299 392.017 755.997C384.245 752.273 375.96 749.504 367.856 746.611C368.281 733.74 369.829 720.799 371.091 707.988C373.687 681.619 376.823 655.294 378.991 628.885C380.381 611.944 380.477 594.938 381.011 577.957Q381.943 548.203 383.524 518.476Z"/>
</svg>
