<?xml version="1.0" encoding="utf-8" ?>
<svg xmlns="http://www.w3.org/2000/svg" xmlns:xlink="http://www.w3.org/1999/xlink" width="300" height="300">
	<path fill="white" transform="scale(0.292969 0.292969)" d="M0 0L1024 0L1024 1024L0 1024L0 0Z"/>
	<path fill="#1F5399" transform="scale(0.292969 0.292969)" d="M356.328 921.394C359.525 921.232 364.387 922.11 367.002 923.984C368.038 924.727 368.868 925.739 368.95 927.065C369.077 929.105 367.595 930.582 366.361 931.998C363.087 931.965 359.443 931.12 356.662 929.332C355.345 928.485 354.091 927.282 353.981 925.616C353.856 923.705 355.06 922.576 356.328 921.394Z"/>
	<path fill="#1F5399" transform="scale(0.292969 0.292969)" d="M199.408 241.951C201.072 242.184 203.181 242.424 204.4 243.712C205.267 244.628 205.561 245.705 205.404 246.932C204.885 250.976 198.68 256.916 195.495 259.154C193.969 259.028 192.007 258.755 190.887 257.556C189.949 256.552 189.716 255.797 189.794 254.439C190.024 250.437 196.636 244.697 199.408 241.951Z"/>
	<path fill="#1F5399" transform="scale(0.292969 0.292969)" d="M449.577 939.53C454.679 939.349 481.5 939.594 484.412 942.862C484.924 943.436 485.228 944.065 485.064 944.818C484.64 946.771 482.987 947.916 481.443 948.994Q480.893 949.085 480.34 949.149C475.06 949.761 450.996 949.658 447.709 946.262C446.683 945.202 446.646 944.878 446.613 943.497C447.472 941.851 448.092 940.675 449.577 939.53Z"/>
	<path fill="#1F5399" transform="scale(0.292969 0.292969)" d="M698.753 880.484C699.083 880.471 699.414 880.451 699.745 880.443C701.48 880.4 703.534 880.899 704.682 882.307C705.626 883.464 705.66 884.552 705.648 885.945C703.113 890.995 684.31 899.862 678.647 902.29C678.417 902.344 678.193 902.43 677.957 902.451C676.527 902.577 675.559 902.376 674.463 901.46C673.349 900.528 672.969 899.597 672.806 898.164C673.288 896.392 674.023 895.251 675.42 894.035C679.264 890.689 693.092 884.083 698.753 880.484Z"/>
	<path fill="#1F5399" transform="scale(0.292969 0.292969)" d="M243.806 203.867C243.945 203.89 244.086 203.901 244.223 203.936C245.582 204.286 246.876 205.431 247.469 206.695C247.898 207.61 247.858 208.767 247.522 209.703C246.038 213.831 225.308 230.44 220.87 232.474C219.614 231.816 218.621 231.204 217.693 230.108C216.589 228.803 216.543 227.765 216.741 226.136C219.067 222.355 239.769 205.209 243.806 203.867Z"/>
	<path fill="#1F5399" transform="scale(0.292969 0.292969)" d="M534.361 937.206C535.585 936.988 537.949 936.779 539.084 937.289C540.606 937.973 541.631 939.965 542.075 941.466C542.006 942.224 541.939 942.767 541.443 943.392C537.91 947.844 518.747 948.397 512.879 948.606C511.059 948.814 508.542 949.264 506.824 948.409C505.217 947.61 504.675 945.945 504.329 944.327C504.494 943.344 504.628 942.809 505.275 942.01C508.09 938.541 529.546 937.712 534.361 937.206Z"/>
	<path fill="#1F5399" transform="scale(0.292969 0.292969)" d="M860.116 713.384C861.813 713.357 863.702 713.27 865.065 714.474C866.044 715.338 866.35 716.466 866.422 717.723C866.7 722.55 854.419 743.178 850.544 747.128C848.812 747.015 847.26 746.727 845.821 745.678C844.674 744.841 843.852 743.503 843.839 742.049C843.818 739.77 857.692 716.588 860.116 713.384Z"/>
	<path fill="#1F5399" transform="scale(0.292969 0.292969)" d="M648.796 905.475C649.933 905.441 650.949 905.485 652.025 905.87C653.492 906.395 654.076 907.508 654.729 908.799C654.812 909.782 654.809 910.305 654.371 911.224C651.86 916.497 630.276 923.185 624.134 925.217L622.24 925.376C620.856 924.929 619.892 923.77 619.173 922.533C618.587 921.524 618.268 920.822 618.708 919.678C619.274 918.206 621.117 916.946 622.445 916.207C626.439 913.982 631.302 912.626 635.588 911.033C640.095 909.359 644.418 907.461 648.796 905.475Z"/>
	<path fill="#1F5399" transform="scale(0.292969 0.292969)" d="M747.82 847.462C750.095 847.386 751.679 847.92 753.422 849.346C753.951 850.662 754.123 851.276 753.604 852.648C751.174 859.073 733.967 870.433 727.582 873.786C725.95 873.931 724.602 873.878 723.381 872.616C722.465 871.668 722.085 870.336 722.14 869.04C722.198 867.681 722.856 866.126 723.844 865.172C725.979 863.109 729.247 861.632 731.697 859.859Q739.906 853.853 747.82 847.462Z"/>
	<path fill="#1F5399" transform="scale(0.292969 0.292969)" d="M398.65 126.517C399.687 126.446 400.711 126.487 401.75 126.511C402.793 127.043 404.006 127.896 404.416 129.078C404.806 130.204 404.746 131.105 404.146 132.146C401.328 137.045 379.201 142.445 373.26 144.318C372.265 144.431 371.47 144.489 370.503 144.14C369.276 143.696 368.199 142.64 367.734 141.413C367.282 140.223 367.412 139.196 368.037 138.105C370.732 133.405 393.048 128.21 398.65 126.517Z"/>
	<path fill="#1F5399" transform="scale(0.292969 0.292969)" d="M345.042 145.018C345.275 145.044 345.51 145.055 345.741 145.094C347.397 145.371 348.986 146.28 349.726 147.856C350.017 148.475 350.047 149.172 349.785 149.796C347.807 154.51 324.085 164.259 318.604 166.645C317.748 166.733 317.148 166.939 316.329 166.584C315.198 166.095 314.568 165.32 314.089 164.196C313.455 162.705 313.349 160.996 314.149 159.538C315.937 156.277 340.173 146.293 345.042 145.018Z"/>
	<path fill="#1F5399" transform="scale(0.292969 0.292969)" d="M793.078 807.941C794.704 808.201 796.676 808.511 797.745 809.912C798.552 810.971 798.755 812.102 798.453 813.374C797.077 819.165 780.165 833.972 774.802 837.257C773.004 837.571 771.429 836.92 769.847 836.109C769.197 835.01 769.04 834.412 769.244 833.129C770.131 827.549 787.982 811.745 793.078 807.941Z"/>
	<path fill="#1F5399" transform="scale(0.292969 0.292969)" d="M593.939 924.588L595.583 924.834C597.041 925.803 598.093 926.886 598.409 928.694C598.598 929.781 598.299 930.741 597.642 931.609C594.263 936.067 572.379 939.898 566.1 941.071C565.524 940.932 565.04 940.834 564.481 940.602C563.281 940.102 562.195 939.069 561.761 937.816C561.258 936.363 561.531 934.592 562.255 933.247C562.791 932.249 563.104 931.856 564.202 931.5C567.206 930.527 570.814 930.24 573.933 929.567Q584.003 927.346 593.939 924.588Z"/>
	<path fill="#1F5399" transform="scale(0.292969 0.292969)" d="M391.236 930.94C394.688 930.527 423.583 935.287 426.288 937.211C427.152 937.826 427.943 939.088 428.029 940.149C428.194 942.169 426.875 943.518 425.526 944.77C419.895 945.35 393.558 941.504 390.089 937.868C389.239 936.977 388.799 936.118 388.925 934.857C389.092 933.194 390.139 932.083 391.236 930.94Z"/>
	<path fill="#1F5399" transform="scale(0.292969 0.292969)" d="M830.408 762.363C831.277 762.367 832.225 762.323 833.083 762.455C834.393 762.656 834.865 763.143 835.677 764.135C836.096 765.399 836.225 766.248 835.949 767.569C834.68 773.647 820.615 791.787 815.381 795.031C813.284 795.054 811.737 795.074 810.206 793.421C809.512 792.67 809.217 791.494 809.282 790.474C809.341 789.541 809.617 788.809 810.084 787.998C812.414 783.952 816.501 780.005 819.423 776.301C822.991 771.778 826.162 766.247 830.408 762.363Z"/>
	<path fill="#1F5399" transform="scale(0.292969 0.292969)" d="M291.814 170.421C293.345 170.425 295.988 171.445 297.043 172.555C297.591 173.132 297.688 174.13 297.493 174.87C296.29 179.421 272.306 193.031 267.615 196.098C267.296 196.064 266.975 196.046 266.658 195.995C264.664 195.676 262.725 194.585 261.695 192.895C261.618 191.967 261.646 191.461 262.026 190.582C264.107 185.757 285.981 172.956 291.814 170.421Z"/>
	<path fill="#1F5399" transform="scale(0.292969 0.292969)" d="M695.962 164.79C702.321 164.659 719.445 174.8 724.985 178.705C726.537 179.8 728.263 181.005 728.359 183.101C728.453 185.153 727.122 186.971 725.976 188.539C724.93 188.574 723.807 188.587 722.815 188.208C717.927 186.342 699.331 175.911 694.939 172.742C694.126 172.156 693.577 170.646 693.523 169.65C693.402 167.457 694.524 166.224 695.962 164.79Z"/>
	<path fill="#1F5399" transform="scale(0.292969 0.292969)" d="M745.532 194.334C746.186 194.314 747.063 194.234 747.72 194.378C752.326 195.387 772.876 211.732 775.878 216.045C776.781 217.343 777.504 218.818 777.053 220.436C776.644 221.903 775.578 222.56 774.399 223.358C773.672 223.459 772.946 223.556 772.213 223.615C771.279 223.69 770.749 223.725 769.907 223.242C766.15 221.082 762.349 216.858 758.866 214.049C754.211 210.294 749.117 206.933 744.661 202.955C743.348 201.783 742.459 201.147 742.507 199.273C742.564 196.999 744.013 195.803 745.532 194.334Z"/>
	<path fill="#1F5399" transform="scale(0.292969 0.292969)" d="M792.584 232.46C796.595 233.48 799.205 236.526 801.975 239.429C805.676 243.307 821.069 258.263 820.468 262.633C820.187 264.675 818.751 265.882 817.135 266.937C815.875 266.826 814.503 266.732 813.39 266.066C811.26 264.792 794.866 246.279 791.486 242.548C789.976 240.882 788.527 239.038 788.947 236.631C789.294 234.647 791.025 233.47 792.584 232.46Z"/>
	<path fill="#1F5399" transform="scale(0.292969 0.292969)" d="M831.233 277.944C833.204 277.76 835.293 277.539 836.934 278.917C841.681 282.903 856.751 304.616 857.354 310.382C856.995 312.057 855.926 312.958 854.782 314.14C852.984 314.501 851.569 314.736 849.868 313.777C848.278 312.881 829.335 284.617 829.087 282.566C828.875 280.81 830.209 279.196 831.233 277.944Z"/>
	<path fill="#1F5399" transform="scale(0.292969 0.292969)" d="M534.816 68.1956C535.127 68.1585 535.438 68.1104 535.751 68.0843C567.199 65.4582 595.118 77.6397 618.326 98.0736C622.205 91.8468 625.584 85.3263 629.45 79.1088C630.361 77.6432 631.156 76.2202 632.938 75.8081L633.948 76.4592C636.714 81.76 636.16 93.1503 636.509 99.2566C641.677 99.9256 658.633 100.406 661.779 104.04L661.607 105.094C659.135 107.714 655.68 109.237 652.801 111.396C647.006 115.743 641.746 120.657 635.465 124.344C636.805 126.266 637.941 128.43 639.038 130.498C651.605 154.172 654.831 183.877 646.693 209.562C637.763 237.744 617.835 259.87 591.887 273.48Q587.917 275.478 583.791 277.128Q579.664 278.779 575.411 280.069Q571.158 281.359 566.81 282.279Q562.462 283.199 558.051 283.743Q556.735 283.908 555.415 284.04Q554.096 284.173 552.773 284.273Q551.451 284.373 550.126 284.44Q548.802 284.508 547.476 284.543Q546.15 284.578 544.824 284.58Q543.497 284.583 542.172 284.553Q540.846 284.522 539.521 284.46Q538.196 284.397 536.873 284.302Q535.55 284.207 534.23 284.079Q532.91 283.952 531.593 283.792Q530.277 283.632 528.964 283.439Q527.652 283.247 526.345 283.023Q525.038 282.798 523.737 282.542Q522.435 282.285 521.141 281.997Q519.846 281.709 518.559 281.389Q517.272 281.069 515.993 280.717Q514.714 280.366 513.444 279.983Q512.175 279.6 510.915 279.186Q509.655 278.772 508.405 278.328Q507.155 277.883 505.917 277.408Q504.679 276.933 503.453 276.427Q502.227 275.922 501.013 275.386Q499.8 274.851 498.6 274.286Q497.4 273.721 496.214 273.127Q495.029 272.532 493.858 271.909Q492.687 271.286 491.532 270.634Q490.377 269.982 489.238 269.302Q488.1 268.622 486.978 267.915Q485.856 267.207 484.752 266.472Q483.648 265.737 482.563 264.975Q481.477 264.213 480.41 263.425Q479.344 262.636 478.297 261.822Q477.219 260.959 476.162 260.07Q475.106 259.18 474.072 258.265Q473.038 257.35 472.027 256.409Q471.016 255.468 470.028 254.503Q469.041 253.538 468.078 252.548Q467.114 251.559 466.176 250.546Q465.237 249.533 464.324 248.497Q463.411 247.461 462.524 246.402Q461.637 245.344 460.776 244.264Q459.915 243.184 459.082 242.083Q458.248 240.982 457.442 239.861Q456.636 238.74 455.858 237.599Q455.079 236.458 454.33 235.298Q453.58 234.139 452.859 232.961Q452.139 231.783 451.447 230.587Q450.756 229.392 450.095 228.18Q449.433 226.967 448.802 225.739Q448.17 224.511 447.57 223.268Q446.969 222.024 446.399 220.766Q445.83 219.508 445.291 218.236Q444.753 216.965 444.246 215.68Q443.74 214.396 443.265 213.099Q442.79 211.802 442.348 210.494Q441.905 209.186 441.495 207.867Q441.085 206.548 440.708 205.22Q440.331 203.891 439.987 202.554Q439.642 201.217 439.331 199.871Q439.021 198.526 438.743 197.173Q438.465 195.82 438.221 194.461Q437.978 193.102 437.767 191.737Q437.557 190.372 437.381 189.002Q437.204 187.633 437.062 186.259C433.86 157.771 442.635 131.261 460.376 109.04C479.111 85.5744 505.016 71.6165 534.816 68.1956Z"/>
	<path fill="#698EB0" transform="scale(0.292969 0.292969)" d="M631.247 83.8415C632.652 89.5994 632.263 96.9825 632.618 102.942C639.661 104.756 647.388 105.056 654.622 105.701C640.414 114.85 626.265 125.703 614.537 137.926C602.129 150.857 590.934 165.08 578.736 178.242C562.823 195.413 545.845 212.1 531.081 230.268C524.082 217.826 516.651 205.63 509.498 193.276Q501.629 179.07 493.539 164.989C499.325 159.538 504.897 153.966 510.404 148.23Q518.949 160.72 527.312 173.332C531.502 179.722 535.502 186.825 540.602 192.533C547.046 187.346 552.889 180.485 558.748 174.576C570.421 162.802 581.699 150.777 592.858 138.514C600.037 130.625 607.727 122.552 613.835 113.795C620.461 104.294 624.982 93.5606 631.247 83.8415Z"/>
	<path fill="#698EB0" transform="scale(0.292969 0.292969)" d="M536.013 73.6983C544.58 72.3886 554.341 73.4854 562.755 75.1746C578.709 78.3777 592.298 84.781 605.434 94.2736C608.844 96.7379 612.712 99.4279 615.062 102.972Q611.171 109.551 607.434 116.218C593.675 100.58 573.22 90.7 552.504 88.7828Q551.449 88.6817 550.392 88.6068Q549.334 88.5319 548.276 88.4833Q547.217 88.4347 546.157 88.4123Q545.098 88.39 544.038 88.394Q542.978 88.398 541.918 88.4283Q540.859 88.4586 539.801 88.5152Q538.742 88.5718 537.686 88.6546Q536.629 88.7375 535.575 88.8465Q534.52 88.9556 533.469 89.0907Q532.418 89.2259 531.37 89.3872Q530.323 89.5484 529.279 89.7356Q528.236 89.9228 527.198 90.1358Q526.16 90.3489 525.127 90.5876Q524.094 90.8264 523.068 91.0907Q522.042 91.355 521.022 91.6447Q520.002 91.9344 518.99 92.2493Q517.978 92.5642 516.974 92.9042Q515.971 93.2441 514.975 93.6089Q513.98 93.9736 512.994 94.363Q512.009 94.7524 511.033 95.1661Q510.057 95.5798 509.092 96.0176Q508.126 96.4554 507.172 96.917Q506.218 97.3786 505.276 97.8638Q504.334 98.349 503.404 98.8574Q502.474 99.3658 501.556 99.8972Q500.639 100.429 499.736 100.982Q498.832 101.536 497.943 102.113Q497.053 102.689 496.178 103.287Q495.303 103.885 494.443 104.505Q493.583 105.124 492.739 105.765Q491.895 106.406 491.067 107.068Q490.238 107.729 489.427 108.411C471.534 123.462 459.06 145.623 457.213 169.074C455.45 191.459 462.823 215.433 477.49 232.51C492.738 250.263 514.923 262.009 538.353 263.684Q539.42 263.754 540.489 263.798Q541.557 263.842 542.626 263.86Q543.695 263.878 544.765 263.869Q545.834 263.861 546.903 263.826Q547.972 263.791 549.039 263.73Q550.107 263.669 551.173 263.582Q552.239 263.495 553.302 263.381Q554.365 263.268 555.426 263.128Q556.486 262.988 557.542 262.823Q558.599 262.657 559.651 262.466Q560.703 262.274 561.75 262.057Q562.797 261.84 563.839 261.597Q564.88 261.354 565.915 261.085Q566.95 260.817 567.978 260.523Q569.007 260.229 570.027 259.91Q571.048 259.591 572.06 259.247Q573.073 258.903 574.077 258.534Q575.08 258.165 576.075 257.772Q577.069 257.378 578.054 256.96Q579.038 256.543 580.012 256.101Q580.986 255.659 581.948 255.194Q582.911 254.728 583.862 254.239Q584.813 253.75 585.752 253.237Q586.69 252.725 587.616 252.19Q588.542 251.654 589.454 251.097Q590.367 250.539 591.265 249.959Q592.163 249.378 593.047 248.776Q593.931 248.174 594.8 247.551Q595.668 246.927 596.522 246.282Q597.375 245.638 598.212 244.972Q599.049 244.307 599.869 243.621Q600.69 242.935 601.493 242.229C619.28 226.573 629.439 205.169 630.862 181.624C631.757 165.343 627.249 152.136 620.833 137.49C623.847 134.383 627.271 131.654 630.597 128.891C637.88 139.668 642.627 153.141 644.28 166.007C647.752 193.025 640.292 218.818 623.497 240.233C606.462 261.954 582.397 274.717 555.126 277.976C529.785 281.004 502.565 273.661 482.474 257.751Q481.438 256.933 480.422 256.089Q479.407 255.245 478.412 254.376Q477.418 253.507 476.446 252.613Q475.473 251.72 474.523 250.803Q473.573 249.886 472.647 248.945Q471.72 248.005 470.816 247.042Q469.913 246.078 469.034 245.093Q468.155 244.108 467.301 243.101Q466.446 242.094 465.617 241.066Q464.788 240.038 463.985 238.99Q463.182 237.942 462.405 236.875Q461.628 235.807 460.877 234.721Q460.127 233.634 459.404 232.529Q458.681 231.424 457.985 230.302Q457.29 229.179 456.623 228.04Q455.955 226.901 455.316 225.745Q454.677 224.589 454.067 223.418Q453.457 222.247 452.877 221.061Q452.296 219.875 451.745 218.675Q451.194 217.475 450.672 216.262Q450.151 215.049 449.66 213.823Q449.169 212.597 448.709 211.36Q448.249 210.122 447.819 208.873Q447.39 207.625 446.992 206.366Q446.593 205.107 446.226 203.838Q445.859 202.57 445.524 201.293Q445.189 200.016 444.885 198.73Q444.582 197.445 444.31 196.153Q444.038 194.861 443.799 193.562Q443.56 192.264 443.353 190.96Q443.145 189.656 442.971 188.347Q442.796 187.038 442.654 185.725C439.816 159.784 448.268 132.571 464.587 112.302C482.553 89.9883 507.615 76.8679 536.013 73.6983Z"/>
	<path fill="white" transform="scale(0.292969 0.292969)" d="M539.359 94.7223C556.512 93.5768 575.024 98.5446 589.339 108.031C594.536 111.474 599.156 115.636 603.848 119.721C584.137 142.874 562.528 164.67 541.646 186.766L511.373 141.26C507.406 144.721 503.755 148.589 499.911 152.191C495.616 156.214 491.148 160.006 487.051 164.238C501.897 188.535 514.784 213.992 529.521 238.347C538.38 230.385 546.196 220.53 554.159 211.654L588.849 173.509C598.028 163.024 607.635 152.798 615.785 141.477C620.377 151.064 623.66 161.182 624.568 171.81C626.358 192.775 618.996 213.039 605.492 228.935C591.243 245.708 572.268 255.663 550.234 257.381C529.255 259.017 507.316 251.472 491.37 237.837C475.952 224.653 465.223 204.461 463.689 184.17C462.037 162.299 468.713 139.585 483.153 122.854Q483.815 122.095 484.495 121.352Q485.176 120.609 485.874 119.882Q486.572 119.156 487.288 118.447Q488.003 117.738 488.736 117.047Q489.469 116.355 490.218 115.682Q490.968 115.009 491.733 114.354Q492.499 113.699 493.28 113.063Q494.061 112.427 494.858 111.81Q495.654 111.193 496.466 110.596Q497.277 109.999 498.103 109.421Q498.928 108.844 499.768 108.287Q500.607 107.73 501.46 107.194Q502.313 106.657 503.178 106.142Q504.044 105.626 504.922 105.132Q505.8 104.638 506.689 104.165Q507.579 103.692 508.48 103.241Q509.381 102.79 510.292 102.362Q511.204 101.933 512.126 101.526Q513.047 101.12 513.979 100.736Q514.91 100.352 515.851 99.9908Q516.791 99.6296 517.74 99.2915Q518.689 98.9534 519.646 98.6385Q520.603 98.3236 521.568 98.0321Q522.532 97.7406 523.503 97.4727Q524.474 97.2047 525.452 96.9605Q526.429 96.7164 527.412 96.496Q528.395 96.2757 529.383 96.0794Q530.371 95.8831 531.364 95.711Q532.357 95.5388 533.353 95.3908Q534.35 95.2429 535.349 95.1192Q536.349 94.9956 537.352 94.8963Q538.354 94.7971 539.359 94.7223Z"/>
	<path fill="#1F5399" transform="scale(0.292969 0.292969)" d="M798.318 324.537C802.653 324.409 806.782 324.496 810.057 327.757C815.596 333.272 813.259 350.821 813.14 358.549L897.982 358.957C898.011 351.96 895.857 333.86 900.232 328.879C902.491 326.307 905.961 324.947 909.328 324.741C912.786 324.53 916.38 325.179 918.952 327.662C924.558 333.074 922.56 351.068 922.528 358.646C935.778 358.507 953.428 356.012 964.913 363.753C971.201 367.991 976.508 375.834 977.723 383.382C979.352 393.497 978.45 404.925 978.484 415.217L978.745 474.441L978.569 595.543Q978.888 627.742 978.691 659.942C978.692 669.715 979.017 679.584 978.716 689.348C978.652 691.424 978.442 692.716 977.204 694.389C975.434 695.204 973.177 695.268 971.238 695.345C953.371 696.057 935.175 695.334 917.283 695.319L802.375 695.064L686.43 695.007L650.46 695.234C643.502 695.302 636.429 695.651 629.481 695.279C627.181 695.156 624.526 695.249 622.876 693.435C621.4 691.814 621.497 686.693 621.414 684.483C620.992 673.224 621.347 661.812 621.345 650.538L621.41 580.847L621.296 391.242C621.317 382.589 624.228 373.883 630.59 367.766C639.7 359.009 650.028 358.513 661.946 358.505L680.244 358.531C679.948 351.284 678.836 342.613 680.075 335.493C680.683 331.994 682.187 328.657 685.272 326.684C688.189 324.819 692.211 324.47 695.535 325.238C699.865 326.239 702.323 329.616 704.444 333.225C704.696 341.786 704.484 350.411 704.488 358.979C732.594 358.17 760.87 358.874 788.997 358.882C788.932 351.46 787.031 336.578 790.337 330.348C792.137 326.955 794.777 325.622 798.318 324.537Z"/>
	<path fill="white" transform="scale(0.292969 0.292969)" d="M908.97 334.782C910.11 334.899 910.995 335.057 912.061 335.485C912.854 337.461 912.665 340.168 912.672 342.304C912.691 348.314 913.428 385.186 912.169 387.648C911.912 388.151 911.373 388.449 910.975 388.85C910.577 388.708 909.892 388.482 909.543 388.277C908.385 387.601 908.252 386.828 908.104 385.59C906.906 375.59 907.63 364.584 907.678 354.493C907.705 348.831 907.194 342.447 907.971 336.86C908.097 335.955 908.404 335.47 908.97 334.782Z"/>
	<path fill="white" transform="scale(0.292969 0.292969)" d="M799.088 334.478C800.689 334.461 802.027 334.233 803.218 335.39C804.089 342.922 804.066 381.02 802.881 387.579C801.472 387.613 800.413 387.646 799.077 387.095C797.87 384.879 798.106 337.833 799.088 334.478Z"/>
	<path fill="white" transform="scale(0.292969 0.292969)" d="M691.292 334.301C692.838 334.711 693.549 334.741 694.697 335.893C695.739 344.411 694.794 353.892 694.736 362.541C694.684 370.071 695.334 378.279 694.469 385.71C694.339 386.828 693.977 387.641 693.453 388.621C692.347 388.258 691.261 387.987 690.383 387.182C689.133 386.036 689.551 347.975 689.575 343.644C689.593 340.501 688.95 336.612 691.292 334.301Z"/>
	<path fill="#698EB0" transform="scale(0.292969 0.292969)" d="M812.487 367.593Q855.326 368.057 898.167 367.894L898.158 376.416C895.2 379.48 893.033 382.414 892.293 386.75C891.489 391.456 892.909 396.284 895.804 400.031Q896.365 400.758 896.994 401.425Q897.624 402.093 898.316 402.696Q899.009 403.299 899.757 403.83Q900.505 404.362 901.302 404.817Q902.099 405.272 902.937 405.646Q903.775 406.021 904.646 406.311Q905.517 406.601 906.412 406.804Q907.307 407.007 908.218 407.121C912.857 407.681 917.669 406.545 921.273 403.49C923.841 401.313 925.507 398.304 926.5 395.122C928.755 387.898 927.007 384.017 923.913 377.61C923.416 376.582 922.671 375.388 922.462 374.257C922.132 372.471 922.426 370.286 922.533 368.476C930.142 368.325 937.779 368.058 945.39 368.163C952.193 368.257 958.917 369.848 963.726 375.017C972.249 384.176 969.312 408.949 969.08 421.134C958.016 421.903 946.706 421.409 935.611 421.386L881.589 421.358L733.375 421.332L630.436 421.049L630.407 403.682C630.404 393.036 629.868 382.531 637.965 374.256C640.209 371.963 643.031 370.141 646.132 369.259C653.132 367.265 671.983 368.126 680.287 368.005C680.307 370.361 680.174 372.725 680.087 375.08C680.023 375.141 679.96 375.203 679.896 375.264C676.565 378.409 674.285 381.754 673.614 386.426C672.872 391.592 674.531 397.009 677.803 401.042C681.094 405.099 685.872 407.413 691.064 407.728C695.679 408.008 700.5 406.678 703.869 403.408C706.116 401.227 707.593 398.401 708.472 395.419C711.354 385.646 706.271 382.661 704.684 374.3C704.328 372.421 704.45 370.292 704.45 368.381C715.973 367.78 727.646 368.102 739.184 368.075L789.335 367.973C789.312 370.252 789.168 372.542 789.082 374.821C785.698 378.544 783.421 382.874 783.143 387.979Q783.086 388.873 783.118 389.769Q783.149 390.665 783.269 391.553Q783.388 392.441 783.595 393.313Q783.802 394.185 784.093 395.032Q784.385 395.88 784.759 396.694Q785.133 397.509 785.585 398.283Q786.037 399.056 786.563 399.782Q787.09 400.507 787.685 401.177C790.966 404.817 795.547 406.833 800.424 407.014C805.136 407.189 809.907 405.637 813.313 402.314C816.923 398.793 819.022 393.277 818.852 388.252C818.679 383.171 816.288 379.312 812.731 375.859L812.487 367.593Z"/>
	<path fill="white" transform="scale(0.292969 0.292969)" d="M724.414 430.248Q846.795 429.907 969.17 430.817Q970.021 510.337 969.632 589.861L969.589 648.359C969.553 660.994 969.812 673.707 968.974 686.317C938.128 687.105 907.117 686.247 876.25 686.267L630.536 686.396C630.253 658.436 630.644 630.439 630.648 602.475L630.543 430.47C661.737 429.49 693.184 430.45 724.414 430.248Z"/>
	<path fill="#1F5399" transform="scale(0.292969 0.292969)" d="M701.187 466.3C701.812 466.412 702.637 466.502 703.228 466.781C704.524 467.392 704.856 468.326 705.346 469.572C704.967 475.209 688.09 490.293 683.598 495.088C681.097 493.104 678.994 490.872 676.828 488.54C675.864 487.437 674.884 486.325 674.017 485.143C672.744 483.407 672.438 482.112 672.775 480.01C673.703 478.983 673.88 478.742 675.349 478.632C678.78 478.374 681.402 481.535 683.634 483.672C689.701 478.119 694.868 471.584 701.187 466.3Z"/>
	<path fill="#1F5399" transform="scale(0.292969 0.292969)" d="M785.635 499.275C786.873 499.58 788.089 499.942 789.245 500.491C790.71 501.187 792.171 502.699 792.529 504.333C792.846 505.775 792.647 506.191 792.057 507.457C790.52 508.767 789.153 509.254 787.143 509.51C781.114 510.277 774.292 509.5 768.163 509.438L736.375 509.391C735.303 509.417 734.037 509.351 733.062 508.86C732.001 508.326 731.3 507.149 731.144 505.99C730.946 504.528 731.258 503.721 732.033 502.521C734.773 500.318 743.553 501.444 747.245 501.46C753.809 501.489 778.565 502.375 783.143 501.338C784.117 501.118 784.932 499.972 785.635 499.275Z"/>
	<path fill="#1F5399" transform="scale(0.292969 0.292969)" d="M732.967 453.145C743.525 452.637 754.267 453.016 764.844 452.976C772.34 452.947 780.632 452.223 788.051 453.165C789.581 453.359 790.461 453.592 791.371 454.922C792.967 457.256 792.426 463.308 791.797 465.956C791.397 467.641 790.54 467.909 789.168 468.733C787.678 468.411 786.619 468.227 785.437 467.177C784.343 465.281 784.557 463.118 784.516 460.986C778.425 460.965 734.835 461.839 732.39 460.429C731.497 459.913 730.859 458.715 730.833 457.715C730.779 455.647 731.65 454.572 732.967 453.145Z"/>
	<path fill="#1F5399" transform="scale(0.292969 0.292969)" d="M662.472 453.079C670.719 452.489 679.268 452.886 687.541 452.852C694.559 452.823 702.136 452.236 709.107 453.005C710.757 453.187 711.919 453.475 713.358 454.3C713.722 454.831 714.293 455.37 714.302 456.036C714.317 457.199 713.695 458.197 712.899 458.997C711.536 460.367 709.638 461.066 707.742 461.278C703.833 461.715 699.237 460.948 695.25 460.906Q681.621 460.841 667.997 461.246L667.759 501.777L679.25 501.737C685.303 501.678 707.622 500.408 711.833 502.556C713.267 503.287 713.698 504.185 714.165 505.659C713.968 506.667 713.909 507.367 713.251 508.193C712.468 509.177 710.301 509.547 709.088 509.68C700.985 510.568 692.182 509.611 683.978 509.596C678.031 509.586 671.675 510.366 665.783 509.692C663.849 509.471 662.401 509.081 660.899 507.833C659.201 504.224 659.889 467.578 660.168 460.453C660.282 457.543 660.235 455.159 662.472 453.079Z"/>
	<path fill="#1F5399" transform="scale(0.292969 0.292969)" d="M664.885 519.701C673.949 519.677 707.286 518.486 713.639 520.651C714.466 521.346 714.945 522.065 715.092 523.173C715.412 525.583 713.065 527.826 711.54 529.362L714.484 534.083C714.565 536.158 714.725 538.308 714.484 540.374C714.277 542.148 713.89 543.251 712.473 544.364C711.879 544.369 711.775 544.408 711.135 544.209C709.734 543.772 708.915 542.506 708.36 541.251C708.301 541.119 708.248 540.984 708.193 540.851C703.331 542.441 690.734 562.725 685.16 563.539C682.186 562.182 677.188 556.997 675.693 554.066C674.994 552.695 674.777 551.477 675.258 549.985C676.269 549.079 676.501 548.868 677.935 548.834C681.224 548.756 683.408 551.939 685.322 554.145C692.501 545.229 700.868 535.666 709.339 527.949C705.435 527.707 701.497 527.715 697.585 527.637Q682.787 527.48 667.99 527.668L667.9 568.506L697.966 568.562C702.198 568.564 707.076 567.931 711.225 568.662C712.749 568.93 713.9 569.355 714.808 570.68C715.092 572.281 714.652 573.077 713.97 574.466C712.963 575.455 712.043 575.661 710.691 575.856C705.729 576.574 700.37 576.164 695.371 576.121C686.712 576.046 678.125 575.922 669.474 576.278C666.784 576.389 663.706 576.327 661.659 574.317C660.898 573.57 660.361 572.761 660.078 571.725C659.019 567.848 660.145 529.797 660.199 522.61C661.73 521.244 662.876 520.22 664.885 519.701Z"/>
	<path fill="#1F5399" transform="scale(0.292969 0.292969)" d="M662.544 654.591C678.012 653.822 934.342 654.283 935.859 655.008C937.146 655.623 937.236 655.963 937.779 657.198C937.722 658.964 937.119 659.96 936.233 661.463L745.856 661.537C720.187 661.511 694.393 662.076 668.741 661.469C666.992 661.427 664.327 661.483 662.801 660.626C661.749 660.035 661.174 659.192 661.043 657.997C660.887 656.579 661.749 655.625 662.544 654.591Z"/>
	<path fill="#1F5399" transform="scale(0.292969 0.292969)" d="M663.444 586.505C673.856 586.056 684.397 586.263 694.818 586.271C701.123 586.276 707.838 585.831 714.099 586.545C716.308 586.797 718.333 587.166 720.227 588.364C720.825 589.641 720.92 590.816 721.009 592.203C721.456 599.126 720.8 606.38 720.784 613.339C720.769 620.019 721.348 626.782 721.108 633.445C721.048 635.114 720.987 637.115 720.366 638.687C719.732 640.29 718.594 640.753 717.143 641.461L683.86 641.618C677.772 641.676 671.343 642.149 665.286 641.632C663.518 641.481 662.426 641.24 661.291 639.753C660.281 638.43 659.876 636.712 659.713 635.084C659.15 629.475 659.888 623.21 659.925 617.534C659.981 608.735 659.139 599.086 660.246 590.393C660.529 588.172 661.788 587.714 663.444 586.505Z"/>
	<path fill="white" transform="scale(0.292969 0.292969)" d="M667.476 594.013C682.65 593.975 697.9 593.741 713.063 594.285L713.502 633.904C698.157 633.791 682.8 633.982 667.455 634.063C667.324 620.717 667.451 607.36 667.476 594.013Z"/>
	<path fill="#1F5399" transform="scale(0.292969 0.292969)" d="M731.957 586.535C740.486 586.105 749.176 586.457 757.722 586.437C766.559 586.416 775.47 586.061 784.3 586.326C786.616 586.396 790.376 586.343 791.964 588.069C793.97 595.722 792.464 611.44 792.515 619.973C792.551 625.879 793.379 632.034 792.72 637.895C792.482 640.008 791.817 640.511 790.252 641.756C783.642 642.539 775.891 641.589 769.172 641.569C757.94 641.537 746.246 642.273 735.064 641.549C733.779 641.466 732.779 641.435 731.695 640.652C730.141 639.529 729.718 637.996 729.538 636.172C728.854 629.259 729.589 621.803 729.63 614.83C729.676 606.995 728.51 597.85 729.97 590.208C730.26 588.695 730.981 587.693 731.957 586.535Z"/>
	<path fill="white" transform="scale(0.292969 0.292969)" d="M737.472 594.023L785.024 593.941L785.013 633.975Q761.208 634.103 737.405 633.725C737.275 620.496 737.432 607.254 737.472 594.023Z"/>
	<path fill="#1F5399" transform="scale(0.292969 0.292969)" d="M732.391 519.513L764.966 519.492C773.093 519.484 783.585 518.303 791.352 520.592C793.257 524.303 792.7 561.339 792.651 567.329C792.624 570.719 792.658 573.292 790.093 575.795C781.987 576.394 773.444 575.761 765.293 575.787C755.862 575.817 745.967 576.529 736.584 575.782C734.474 575.614 732.575 575.353 730.677 574.355C728.775 568.353 730.084 553.747 730.093 546.845C730.101 541.377 729.846 535.916 729.745 530.45C729.667 526.308 729.335 522.681 732.391 519.513Z"/>
	<path fill="white" transform="scale(0.292969 0.292969)" d="M740.022 527.259C754.952 526.866 769.951 527.028 784.886 527.197C784.914 533.67 786.091 564.387 784.526 568.272L783.125 568.515L737.549 568.432C737.487 562.478 736.26 530.104 737.99 527.504L740.022 527.259Z"/>
	<path fill="#1F5399" transform="scale(0.292969 0.292969)" d="M876.948 586.025C886.427 585.601 896.084 585.96 905.587 585.968C914.405 585.975 923.372 585.629 932.176 586.017C934.42 586.116 936.105 586.293 937.71 588.039C938.449 590.273 938.555 635.22 937.78 638.786C937.448 640.318 936.701 640.951 935.401 641.695C923.986 641.974 912.539 641.813 901.12 641.805C894.338 641.801 887.215 642.234 880.474 641.635C878.529 641.462 876.972 641.139 875.226 640.269C874.412 638.656 874.328 636.815 874.311 635.033C874.258 629.458 873.88 591.632 874.797 589.009C875.225 587.785 876.068 586.939 876.948 586.025Z"/>
	<path fill="white" transform="scale(0.292969 0.292969)" d="M882.452 593.554Q906.438 593.327 930.422 593.691L930.216 633.885C914.341 634.256 898.402 633.936 882.52 633.893C882.312 620.457 882.47 606.993 882.452 593.554Z"/>
	<path fill="#1F5399" transform="scale(0.292969 0.292969)" d="M876.518 519.707C885.259 519.277 932.375 518.426 937.716 521.016C937.851 521.441 937.968 521.759 938.05 522.187C938.427 524.176 938.163 568.735 937.758 571.538C937.529 573.128 936.649 574.343 935.74 575.624C924.448 575.817 913.123 575.633 901.828 575.636C895.145 575.638 888.105 576.136 881.483 575.433C879.103 575.18 877.175 574.802 875.138 573.522C873.618 570.269 874.642 537.497 874.588 530.721C874.559 527.137 873.849 522.415 876.518 519.707Z"/>
	<path fill="white" transform="scale(0.292969 0.292969)" d="M882.502 527.148C898.288 526.89 914.401 526.636 930.168 527.345C930.87 540.849 930.356 554.605 930.32 568.138L882.47 568.152C882.434 554.495 882.207 540.802 882.502 527.148Z"/>
	<path fill="#1F5399" transform="scale(0.292969 0.292969)" d="M827.486 586.254C835.422 586.217 857.182 584.726 863.416 586.61C864.314 587.589 864.624 588.517 864.92 589.783C866.218 595.33 866.423 637.258 864.238 640.938C859.072 642.989 845.367 641.852 839.25 641.812C831.259 641.81 810.204 643.04 803.699 641.446C803.185 640.949 802.838 640.494 802.584 639.817C800.52 634.315 800.775 592.538 803.042 587.081C805.214 585.353 823.572 586.238 827.486 586.254Z"/>
	<path fill="white" transform="scale(0.292969 0.292969)" d="M809.429 593.91C825.471 593.647 841.561 593.927 857.607 593.948L857.685 633.941C841.621 633.979 825.548 633.521 809.488 633.858L809.429 593.91Z"/>
	<path fill="#1F5399" transform="scale(0.292969 0.292969)" d="M877.976 453.236C884.361 453.081 935.452 452.399 937.069 453.893C939.136 460.651 938.35 492.664 938.258 501.508C938.222 505.013 938.566 507.051 935.964 509.613L893.706 509.455C888.831 509.444 882.634 510.487 877.934 509.271C876.371 508.866 875.603 508.268 874.774 506.851C874.122 501.335 873.9 457.741 875.417 454.993C876.082 453.79 876.777 453.657 877.976 453.236Z"/>
	<path fill="white" transform="scale(0.292969 0.292969)" d="M883.293 461.238C898.919 460.414 914.815 460.992 930.471 461.058C930.488 466.258 931.303 499.478 929.893 501.619L882.493 501.537C882.486 496.271 881.59 463.232 883.293 461.238Z"/>
	<path fill="#1F5399" transform="scale(0.292969 0.292969)" d="M805.563 452.557C815.997 454.316 859.61 450.598 864.948 454.914C865.863 457.886 865.898 504.323 864.934 507.207C864.43 508.715 863.413 509.186 862.109 509.912C848.842 508.701 834.908 509.507 821.565 509.495C816.318 509.491 810.365 510.063 805.249 508.867C804.449 508.679 803.272 508.431 802.876 507.659C802.131 506.208 802.087 504.298 802.012 502.686C801.671 495.368 802.111 487.972 802.071 480.64C802.031 473.329 800.482 463.061 802.199 456.238C802.72 454.165 803.844 453.567 805.563 452.557Z"/>
	<path fill="white" transform="scale(0.292969 0.292969)" d="M809.322 461.096Q833.479 460.75 857.634 461.187L857.758 485.992C857.774 491.071 858.076 496.464 857.418 501.498C841.45 501.516 825.121 500.836 809.204 501.909Q809.014 481.502 809.322 461.096Z"/>
	<path fill="#1F5399" transform="scale(0.292969 0.292969)" d="M803.731 519.52C815.339 519.328 826.97 519.443 838.58 519.434C845.23 519.429 852.325 518.933 858.927 519.646C861.129 519.884 863.049 520.232 864.895 521.489C865.422 522.891 865.569 524.192 865.662 525.686C866.087 532.472 865.494 539.57 865.45 546.387C865.405 553.448 865.888 560.519 865.801 567.572C865.762 570.772 865.728 573.129 863.337 575.506Q844.958 575.84 826.576 575.801C820.663 575.818 814.242 576.342 808.374 575.715C806.535 575.518 804.26 575.182 802.783 573.988C801.898 573.272 801.672 571.452 801.556 570.354C800.818 563.354 801.633 555.758 801.632 548.689C801.631 540.609 800.379 531.147 801.734 523.239C801.987 521.765 802.83 520.671 803.731 519.52Z"/>
	<path fill="white" transform="scale(0.292969 0.292969)" d="M809.341 527.124Q833.633 526.923 857.926 527.046Q858.042 547.694 857.88 568.342L809.482 568.307C809.209 554.589 808.884 540.84 809.341 527.124Z"/>
	<path fill="#1F5399" transform="scale(0.292969 0.292969)" d="M271.275 269.214C277.1 268.666 283.236 268.892 289.083 268.976Q292.927 269.042 296.767 269.232Q300.606 269.422 304.438 269.737Q308.269 270.051 312.089 270.49Q315.908 270.929 319.711 271.491Q323.514 272.053 327.297 272.739Q331.08 273.424 334.838 274.231Q338.597 275.039 342.328 275.968Q346.058 276.897 349.757 277.946Q353.455 278.996 357.117 280.165Q360.78 281.333 364.402 282.62Q368.025 283.907 371.604 285.311Q375.183 286.715 378.715 288.234Q382.246 289.753 385.727 291.385Q389.207 293.018 392.633 294.763Q396.059 296.507 399.426 298.362Q402.794 300.217 406.099 302.18Q408.842 303.813 411.537 305.524Q414.232 307.236 416.877 309.025Q419.521 310.814 422.112 312.678Q424.703 314.543 427.239 316.482Q429.776 318.421 432.254 320.433Q434.733 322.445 437.153 324.527Q439.572 326.61 441.931 328.762Q444.289 330.914 446.584 333.134Q448.878 335.353 451.108 337.638Q453.338 339.923 455.5 342.272Q457.662 344.62 459.756 347.031Q461.849 349.441 463.872 351.911Q465.895 354.381 467.845 356.909Q469.795 359.436 471.671 362.019Q473.547 364.602 475.348 367.238Q477.149 369.875 478.872 372.562C483.348 379.525 488.097 386.666 490.111 394.785L489.334 395.264C480.022 401.077 460.69 406.265 449.324 410.809C390.324 434.396 330.25 455.208 271.244 478.799C276.807 495.149 284.195 511.192 290.805 527.167L326.333 612.762C331.681 625.59 338.136 638.372 342.615 651.497C352.058 648.106 363.665 644.649 373.568 647.119C379.087 629.123 387.984 609.236 399.145 594.082C407.522 582.708 415.405 576.707 429.533 574.625C425.716 565.46 424.794 555.565 427.478 545.97C431.434 531.827 440.537 524.647 452.77 517.693C443.481 506.43 440.89 498.954 442 484.32C442.179 481.954 442.591 478.278 444.727 476.791C445.688 476.122 446.793 476.061 447.908 476.242C450.09 476.595 464.878 487.422 468.525 489.495Q476.92 494.16 485.852 497.69C497.656 502.345 511.133 505.718 518.782 516.695C524.854 525.41 524.701 534.679 522.92 544.647C528.289 546.995 558.232 561.277 559.802 565.484C560.57 567.541 559.741 570.364 558.905 572.249C555.154 580.708 549.897 588.849 545.531 597.032L517.978 648.755Q482.302 714.517 448.02 781.017L488.608 795.686C498.703 799.265 509.413 802.441 519.022 807.211C549.135 799.873 578.573 789.316 608.509 781.188C615.049 779.413 621.376 776.084 628.099 774.989C630.304 774.631 633.94 774.492 635.71 776.202C636.831 777.286 636.803 777.672 636.889 779.136C636.32 780.483 635.646 781.282 634.458 782.111C629.095 785.857 606.04 791.176 597.943 793.605L507.201 820.805L341.091 871.98C329.691 875.412 318.206 878.759 306.859 882.342C298.963 884.836 291.079 887.712 283.069 889.801C281.48 890.215 279.479 890.868 277.853 890.35C276.712 889.986 275.771 889.017 275.317 887.931C274.683 886.417 274.768 884.766 275.359 883.268C276.612 882.12 277.858 881.465 279.465 880.903C293.763 875.907 308.645 872.323 323.102 867.785L468.505 822.863L431.259 810.86C431.144 810.998 431.033 811.14 430.914 811.275C427.564 815.089 423.404 817.615 418.792 819.626C413.466 821.948 337.76 845.291 333.873 845.114C332.725 845.062 331.799 844.578 331.01 843.739C329.928 842.589 329.567 840.689 329.804 839.17C330.011 837.84 331.24 836.953 332.228 836.172C336.956 832.437 342.433 829.251 347.39 825.796C360.859 816.409 374.399 807.145 387.582 797.355C376.249 792.288 363.987 788.698 352.313 784.446C338.819 779.531 325.487 774.17 312.017 769.183C298.974 764.353 285.781 759.894 272.864 754.734C274.005 773.243 277.053 791.628 278.541 810.112C277.697 811.31 276.833 812.639 275.792 813.675C274.611 814.852 273.341 815.371 271.72 815.642C266.276 816.553 260.246 816.019 254.715 816.005L222.66 815.905C219.357 815.674 207.918 813.816 205.346 814.948C204.973 815.887 205.05 816.429 205.197 817.393C205.964 822.414 206.165 826.869 206.022 831.948L226.188 831.74C233.768 831.68 241.31 830.74 247.079 836.725C248.892 838.606 250.191 840.812 250.712 843.386C252.264 851.057 251.402 860.241 251.409 868.075Q251.472 892.551 251.196 917.025Q321.073 896.786 390.504 875.069L514.658 837.701Q553.99 825.35 593.628 814.024C606.72 810.142 619.742 805.636 632.989 802.321C635.337 801.734 637.896 801.268 640.309 801.66C641.943 801.926 642.713 802.453 643.655 803.777C643.661 805.121 643.482 806.031 642.794 807.211C640.936 810.397 635.425 811.185 632.153 812.158Q527.518 842.948 423.198 874.797L331.187 902.945C313.363 908.515 295.59 914.045 277.668 919.31C268.837 921.904 260.013 924.706 251.049 926.809C251.031 932.52 250.597 938.026 246.695 942.582C242.802 947.127 238.217 948.212 232.527 948.514C224.409 948.944 216.079 948.529 207.941 948.518L159.438 948.496L126.897 948.521C121.084 948.52 114.574 949.019 108.843 948.007C105.582 947.431 102.426 945.392 100.034 943.18C95.3809 938.878 94.5141 933.617 94.4258 927.556C94.1624 909.463 94.4121 891.336 94.4344 873.238C94.4449 864.784 93.3479 855.028 94.824 846.729C95.4813 843.034 97.099 839.519 99.7875 836.863C106.937 829.802 123.909 832.051 133.529 832.151C133.006 826.412 132.373 820.442 135.384 815.215C137.594 811.379 141.29 808.944 145.518 807.82C150.306 806.547 187.247 806.559 193.535 807.328C195.125 807.522 196.378 808.23 197.746 809.026L201.58 811.26C201.355 809.747 201.234 808.264 201.151 806.738C203.799 801.801 231.082 790.572 237.902 787.373C236.31 772.069 233.708 756.312 230.759 741.208C223.37 750.275 216.367 759.803 209.385 769.191C204.617 775.6 197.298 788.636 190.804 792.783C188.129 792.353 185.616 790.64 183.442 789.068C175.003 782.965 167.362 775.304 159.561 768.389C153.119 762.676 146.086 757.2 140.02 751.132C138.842 749.954 138.016 748.671 138.189 746.916C138.406 744.72 140.284 742.91 142.047 741.8Q142.724 741.365 143.455 741.03Q144.185 740.695 144.956 740.467Q145.727 740.238 146.523 740.12Q147.318 740.002 148.122 739.997C153.418 740.006 176.462 746.529 183.338 748.198C191.798 732.873 202.254 718.413 211.491 703.527C217.534 693.79 234.476 661.646 241.756 655.061C248.515 654.188 262.899 661.731 270.044 663.72L270.666 663.887C276.504 660.184 285.117 658.818 291.96 659.274C296.036 659.546 300.231 660.406 304.31 660.198C310.645 659.875 317.248 657.666 323.394 656.155C314.845 637.702 307.71 618.457 300.069 599.609C284.681 561.648 269.261 523.169 252.277 485.912C234.034 493.69 214.854 499.628 196.252 506.489L140.136 527.64C110.84 538.384 81.2775 548.788 52.33 560.44C48.1628 546.59 45.6603 531.765 44.8078 517.34C41.114 454.838 65.5806 392.571 106.953 346.255C148.896 299.3 208.847 272.806 271.275 269.214Z"/>
	<path fill="white" transform="scale(0.292969 0.292969)" d="M441.807 588.645C443.201 589.253 444.446 589.756 445.591 590.792C445.879 592.217 445.561 592.343 444.821 593.622C444.695 593.672 444.572 593.729 444.443 593.771C443.139 594.188 442.942 594.382 441.751 593.799C441.054 592.137 441.542 590.367 441.807 588.645Z"/>
	<path fill="white" transform="scale(0.292969 0.292969)" d="M155.296 750.848C162.167 752.648 169.904 754.057 176.468 756.756C171.658 759.362 167.623 756.525 163.01 755.251L162.602 755.142C160.081 753.811 157.615 752.517 155.296 750.848Z"/>
	<path fill="#E1CDC3" transform="scale(0.292969 0.292969)" d="M519.121 559.183C518.877 557.307 518.542 556.388 519.29 554.621C520.271 554.285 520.524 554.188 521.54 554.632C523.116 555.322 524.714 556.739 526.066 557.801L522.937 563.596L520.946 563.084C519.631 562.08 519.494 560.703 519.121 559.183Z"/>
	<path fill="#477CCB" transform="scale(0.292969 0.292969)" d="M143.492 816.161C145.454 814.755 147.844 813.56 150.336 813.742C150.532 813.756 150.723 813.811 150.916 813.846L151.363 814.734L150.735 815.043C148.08 816.38 146.786 817.6 145.179 820.036Q143.515 826.361 141.742 832.656C141.431 827.006 140.511 821.247 143.492 816.161Z"/>
	<path fill="white" transform="scale(0.292969 0.292969)" d="M358.605 724.325C361.567 732.56 362.645 742.464 364.406 751.08L360.38 749.707C357.551 748.704 354.783 747.483 352.008 746.339C353.946 738.95 355.958 731.495 358.605 724.325Z"/>
	<path fill="white" transform="scale(0.292969 0.292969)" d="M168.449 872.52Q173.038 872.552 177.626 872.682C178.018 878.941 177.991 885.286 178.132 891.558Q173.447 891.815 168.759 892.005C168.458 885.526 168.513 879.006 168.449 872.52Z"/>
	<path fill="#61AAF1" transform="scale(0.292969 0.292969)" d="M162.602 755.142L163.01 755.251C167.623 756.525 171.658 759.362 176.468 756.756C176.542 756.78 176.616 756.805 176.691 756.827C182.229 758.45 190.952 767.961 195.414 772.21L189.753 780.285C180.411 772.156 171.45 763.803 162.602 755.142Z"/>
	<path fill="#61AAF1" transform="scale(0.292969 0.292969)" d="M244.123 796.079C244.9 795.855 245.129 795.915 245.92 796.108C252.39 797.694 261.533 797.343 268.091 796.573C268.385 799.235 268.47 801.935 268.625 804.608C261.599 805.322 254.193 804.763 247.125 804.618C237.714 804.49 228.349 804.202 218.969 805.124C227.435 802.331 235.439 798.243 244.123 796.079Z"/>
	<path fill="white" transform="scale(0.292969 0.292969)" d="M361.564 679.69C362.895 679.524 363.944 679.497 365.293 679.658L365.04 681.092L364.972 680.092L364.789 680.36C365.232 681.537 359.441 695.404 358.572 697.753C352.251 695.476 345.985 693.014 339.702 690.63Q333.999 688.695 328.385 686.515C339.499 684.407 350.29 681.057 361.564 679.69Z"/>
	<path fill="#E1CDC3" transform="scale(0.292969 0.292969)" d="M402.034 721.253C405.437 722.193 408.777 723.437 412.115 724.584C414.921 730.608 417.067 737.294 418.652 743.739C420.467 751.119 420.948 756.451 416.921 763.144L413.566 767.58C410.265 751.582 407.849 736.657 402.034 721.253Z"/>
	<path fill="white" transform="scale(0.292969 0.292969)" d="M241.533 461.318C244.788 462.989 247.708 473.402 248.931 476.865C239.725 479.864 230.67 483.645 221.567 486.974L215.248 489.184C222.66 478.386 230.625 468.737 241.533 461.318Z"/>
	<path fill="white" transform="scale(0.292969 0.292969)" d="M151.052 822.632L190.252 822.567C190.307 824.86 190.451 827.21 190.294 829.498C190.211 830.72 190.368 830.986 189.409 831.829C176.063 832.012 162.701 831.921 149.352 831.959C149.303 828.576 148.802 825.412 151.052 822.632Z"/>
	<path fill="white" transform="scale(0.292969 0.292969)" d="M364.395 708.744C367.512 709.49 370.488 710.522 373.509 711.581C377.487 727.013 380.9 742.509 383.14 758.295C380.144 757.333 377.197 756.083 374.259 754.954C372.713 749.63 371.827 743.923 370.682 738.486L364.395 708.744Z"/>
	<path fill="#698EB0" transform="scale(0.292969 0.292969)" d="M404.03 802.456C407.781 801.932 417.638 806.177 421.568 807.482C408.27 814.412 390.986 818.466 376.54 823.088Q369.139 825.418 361.634 827.389C374.317 817.568 389.332 808.892 404.03 802.456Z"/>
	<path fill="#E1CDC3" transform="scale(0.292969 0.292969)" d="M382.344 714.822C385.668 715.726 388.87 716.874 392.104 718.057C398.532 732.038 401.283 749.491 403.24 764.652C399.67 763.278 395.875 762.353 392.193 761.31C390.956 745.219 386.818 730.239 382.344 714.822Z"/>
	<path fill="#698EB0" transform="scale(0.292969 0.292969)" d="M519.121 559.183C519.494 560.703 519.631 562.08 520.946 563.084L522.937 563.596C514.585 580.104 506.641 596.947 497.268 612.908Q496.805 611.839 496.288 610.794C490.959 600.15 479.398 600.201 469.642 596.976C481.049 595.878 484.793 590.257 494.405 586.56C501.197 583.946 505.27 586.505 511.752 580.048C517.305 574.518 519.089 566.74 519.121 559.183Z"/>
	<path fill="white" transform="scale(0.292969 0.292969)" d="M287.385 445.715C298.849 445.131 311.125 447.028 322.329 449.399C310.708 453.105 299.353 457.811 287.883 461.977C280.987 464.393 274.233 467.23 267.335 469.663C264.743 463.67 262.512 457.707 259.564 451.859C268.356 447.847 277.827 446.419 287.385 445.715Z"/>
	<path fill="#698EB0" transform="scale(0.292969 0.292969)" d="M223.158 701.818C225.261 708.747 226.59 721.52 228.084 729.41C218.94 740.713 209.918 752.367 201.603 764.289L198.01 761.173Q194.102 757.831 190.325 754.341C193.834 749.66 196.837 744.361 199.951 739.393C207.768 726.923 215.179 714.186 223.158 701.818Z"/>
	<path fill="white" transform="scale(0.292969 0.292969)" d="M373.324 681.98C380.836 684.1 388.138 687.131 395.422 689.925C408.063 694.773 420.777 699.809 433.605 704.142C440.498 706.47 444.626 705.255 450.929 702.133Q446.41 709.924 441.985 717.768C440.738 719.996 439.297 722.136 437.937 724.297Q402.71 711.312 367.012 699.681C368.722 693.671 371.283 687.889 373.324 681.98Z"/>
	<path fill="white" transform="scale(0.292969 0.292969)" d="M158.273 498.209C167.506 497.156 178.126 498.35 187.127 500.37C179.924 502.563 172.97 505.804 165.856 508.296Q128.153 521.362 90.8392 535.5L67.6142 544.369Q68.6832 543.139 69.7813 541.935Q70.8795 540.731 72.0063 539.554Q73.1331 538.377 74.2878 537.228Q75.4425 536.078 76.6246 534.956Q77.8066 533.835 79.0152 532.742Q80.2238 531.649 81.4583 530.585Q82.6928 529.522 83.9525 528.488Q85.2122 527.454 86.4964 526.451Q87.7805 525.448 89.0884 524.476Q90.3963 523.504 91.7272 522.564Q93.058 521.624 94.4111 520.716Q95.7641 519.808 97.1386 518.933Q98.5131 518.057 99.9082 517.215Q101.303 516.373 102.718 515.565Q104.133 514.757 105.567 513.983Q107.001 513.209 108.453 512.469Q109.905 511.73 111.375 511.026Q112.844 510.322 114.33 509.653Q115.816 508.984 117.317 508.351Q118.819 507.718 120.335 507.122Q121.852 506.525 123.382 505.965Q124.912 505.405 126.455 504.882Q127.999 504.359 129.554 503.873Q131.109 503.387 132.676 502.938Q134.242 502.49 135.819 502.079Q137.396 501.669 138.982 501.296Q140.569 500.923 142.164 500.589Q143.758 500.254 145.361 499.958Q146.963 499.662 148.572 499.405Q150.181 499.147 151.796 498.929Q153.411 498.71 155.03 498.53Q156.65 498.35 158.273 498.209Z"/>
	<path fill="white" transform="scale(0.292969 0.292969)" d="M473.634 609.114C477.055 608.615 480.675 608.954 483.796 610.538C486.553 611.938 488.307 614.427 489.12 617.37C489.968 620.44 489.779 623.67 488.946 626.721C486.679 635.033 474.846 657.424 470.255 665.875L464.397 662.962Q455.238 658.007 445.844 653.513L456.113 631.995C458.687 626.553 460.866 619.986 464.703 615.348C467.271 612.244 470.005 610.634 473.634 609.114Z"/>
	<path fill="white" transform="scale(0.292969 0.292969)" d="M437.947 393.713C447.126 393.417 456.387 394.193 465.552 394.704C452.57 399.908 439.311 404.49 426.252 409.504C406.786 416.978 387.399 424.851 367.617 431.466C360.787 433.822 354.065 436.645 347.307 439.215C349.817 435.864 352.505 432.529 355.332 429.439C376.649 406.141 406.96 395.214 437.947 393.713Z"/>
	<path fill="white" transform="scale(0.292969 0.292969)" d="M450.508 487.823C461.534 496.595 474.044 502.027 487.022 507.201C492.648 509.444 498.566 511.453 503.819 514.483C509.337 517.667 513.207 522.201 514.719 528.479C516.737 536.858 513.548 544.719 509.35 551.794C508.633 552.526 508.477 552.587 507.482 552.853C502.53 551.352 497.946 550.444 492.755 550.438C494.186 547.481 497.33 543.868 497.306 540.515C497.294 538.733 496.713 537.652 495.444 536.483C492.745 533.998 488.925 532.128 485.797 530.198C477.605 525.146 468.671 520.081 461.677 513.419C454.069 506.172 450.702 498.282 450.508 487.823Z"/>
	<path fill="white" transform="scale(0.292969 0.292969)" d="M365.176 655.672C367.199 655.36 369.054 655.709 370.993 656.308C377.7 658.379 384.397 661.533 390.916 664.148C405.222 669.888 419.387 675.704 434.045 680.518C437.556 674.491 440.352 667.953 443.308 661.634L461.052 670.608C457.055 676.838 450.279 693.534 444.078 696.16C441.935 697.068 439.454 697.137 437.202 696.623C432.728 695.603 428.122 693.136 423.841 691.448Q412.663 687.163 401.436 683.007C389.513 678.626 374.258 671.541 361.745 670.795C354.175 670.345 323.57 678.392 314.324 680.577C304.312 677.355 293.778 673.331 284.267 668.861C291.945 667.201 298.919 670.201 306.459 668.998C326.199 665.848 345.422 658.486 365.176 655.672Z"/>
	<path fill="white" transform="scale(0.292969 0.292969)" d="M458.976 526.574C460.336 526.464 461.983 526.221 463.311 526.602C467.361 527.766 483.222 539.404 488.168 542.506C486.07 544.632 483.828 547.255 482.779 550.088C482.278 551.44 482.13 552.974 482.935 554.253C486.133 559.335 496.105 558.945 501.348 560.091C505.038 560.898 506.459 562.548 508.486 565.625C507.519 568.498 506.445 570.876 504.875 573.466C503.009 574.622 501.204 575.551 499.168 576.372L498.705 575.521L498.708 575.591C500.276 573.438 503.378 570.115 503.285 567.423C502.571 566.611 502.06 565.957 501.003 565.577C499.693 565.106 498.39 565.332 497.14 565.844C494.054 567.108 491.847 569.597 490.593 572.617C490.761 573.792 490.863 574.748 490.749 575.941C487.861 580.389 478.819 585.176 473.823 586.701C466.077 589.067 457.799 587.798 450.777 583.912C443.381 579.82 437.518 572.781 435.375 564.549C433.305 556.598 435.346 547.7 439.385 540.679C443.834 532.944 450.61 528.797 458.976 526.574Z"/>
	<path fill="#698EB0" transform="scale(0.292969 0.292969)" d="M269.85 725.14C288.815 732.056 307.373 740.204 326.235 747.426C352.826 757.607 379.696 766.794 406.497 776.366C425.304 783.083 443.86 790.278 462.844 796.529C476.956 801.177 494.082 808.823 508.381 810.892L501.716 812.997C495.503 814.666 489.335 816.56 483.145 818.316C475.844 814.836 466.934 812.731 459.186 810.155C439.002 803.444 418.641 797.225 398.49 790.424C355.885 776.045 313.98 759.424 271.586 744.401L269.85 725.14Z"/>
	<path fill="#698EB0" transform="scale(0.292969 0.292969)" d="M534.502 562.585C539.666 564.157 544.5 566.76 549.143 569.468C545.371 577.662 540.923 585.595 536.709 593.57Q526.441 613.228 515.774 632.672L482.214 695.482C477.346 704.51 472.779 713.698 467.92 722.73C463.908 730.187 459.621 737.488 455.732 745.012C450.065 755.974 444.948 767.468 438.418 777.938C433.388 776.32 428.358 774.729 423.536 772.553C425.213 769.108 427.35 765.82 429.193 762.453C434.645 752.49 440.165 742.483 445.432 732.422L511.798 605.742C519.311 591.318 527.18 577.114 534.502 562.585Z"/>
	<path fill="white" transform="scale(0.292969 0.292969)" d="M429.296 583.659C431.295 583.509 433.368 583.587 435.375 583.555C434.006 588.053 432.499 593.817 434.8 598.284C435.521 599.684 436.638 600.601 438.184 600.981C443.876 602.379 449.425 598.442 454.006 595.675C458.08 596.908 456.371 599.602 458.295 602.257C459.119 603.394 461.356 604.407 462.575 605.113C460.535 606.644 458.707 608.231 457.187 610.3C451.314 618.299 440.163 643.744 436.204 653.688C434.133 658.889 432.973 664.979 429.466 669.44C427.997 669.858 426.98 669.309 425.528 668.901C410.82 663.287 396.333 656.487 381.723 650.531C385.306 636.782 398.506 609.051 407.209 597.83C412.939 590.442 419.814 584.895 429.296 583.659Z"/>
	<path fill="#698EB0" transform="scale(0.292969 0.292969)" d="M112.969 840.69C154.064 840.497 195.289 839.841 236.376 840.637C237.78 841.408 239.213 842.168 240.338 843.332C243.503 846.602 242.005 872.992 241.961 878.551L219.625 878.77Q203.064 878.736 186.503 878.893C186.454 875.024 186.987 870.967 186.389 867.142C185.53 866.175 184.641 865.761 183.437 865.358C178.198 863.607 166.432 863.41 161.54 865.877C159.485 868.323 160.452 875.357 160.526 878.597C141.587 879.347 122.489 878.941 103.532 878.96C103.49 872.459 101.989 847.797 105.44 843.396C107.29 841.036 110.242 840.949 112.969 840.69Z"/>
	<path fill="#698EB0" transform="scale(0.292969 0.292969)" d="M244.805 665.32C281.912 677.383 317.593 693.473 354.41 706.364C351.496 718.933 347.303 731.347 343.963 743.832L282.635 719.978C276.846 717.585 269.693 713.601 263.424 713.141C262.54 713.498 261.875 713.795 261.209 714.517C260.287 715.516 260.148 716.407 260.093 717.722C259.842 723.752 260.96 730.335 261.513 736.355C263.077 753.393 265.396 770.426 266.64 787.48L247.76 787.395C241.855 755.258 238.197 722.27 230.127 690.581C235.196 682.457 240.695 673.953 244.805 665.32Z"/>
	<path fill="white" transform="scale(0.292969 0.292969)" d="M146.5 322.976C146.684 323.18 146.678 323.498 146.744 323.765Q142.02 329.825 137.609 336.116C125.814 353.264 117.788 371.237 112.312 391.299C102.198 428.363 103.649 462.628 110.695 500.09C90.8841 508.604 75.1568 524.437 59.2943 538.444L58.3125 539.295L57.5121 539.182C53.3441 531.748 54.3904 496.932 55.266 487.056C59.5243 439.021 80.2456 389.725 112.755 353.851C123.096 342.44 134.727 332.84 146.5 322.976Z"/>
	<path fill="#698EB0" transform="scale(0.292969 0.292969)" d="M186.443 887.104C204.926 886.804 223.447 887.045 241.934 887.041L242.054 915.365C242.072 920.324 242.549 925.76 241.765 930.645C241.355 933.199 240.313 936.043 238.457 937.909C234.443 941.943 220.385 940.19 214.796 940.089L116.7 940.006C112.546 940.002 109.234 939.919 106.2 936.72C105.142 935.605 104.313 934.409 103.993 932.882C102.9 927.65 103.471 921.498 103.474 916.137L103.528 887.383C117.407 886.92 131.397 887.258 145.288 887.251L160.426 887.181C160.377 890.663 160.284 895.093 162.966 897.732C165.38 900.108 169.509 900.102 172.671 900.116C176.233 900.133 181.6 900.447 184.24 897.572C186.793 894.793 186.452 890.601 186.443 887.104Z"/>
	<path fill="white" transform="scale(0.292969 0.292969)" d="M275.08 278.722Q278.226 278.61 281.374 278.582Q284.522 278.555 287.67 278.612Q290.818 278.669 293.963 278.81Q297.108 278.952 300.248 279.178Q303.388 279.404 306.521 279.714Q309.654 280.024 312.778 280.419Q315.901 280.813 319.013 281.291Q322.125 281.769 325.222 282.33Q328.32 282.892 331.402 283.536Q334.483 284.181 337.547 284.908Q340.61 285.635 343.652 286.444Q346.695 287.253 349.715 288.143Q352.734 289.033 355.729 290.005Q358.724 290.976 361.691 292.027Q364.659 293.079 367.597 294.209Q370.535 295.34 373.442 296.549C406.226 309.998 433.53 331.317 456.282 358.259C463.616 366.944 470.704 375.834 475.126 386.407C465.856 385.053 456.66 384.489 447.309 384.068C431.388 383.765 417.492 385.553 402.25 389.965C393.81 374.969 383.004 360.952 371.806 347.925C340.725 311.77 295.32 284.672 247.219 281.091C256.494 279.757 265.724 279.153 275.08 278.722Z"/>
	<path fill="#698EB0" transform="scale(0.292969 0.292969)" d="M181.591 302.914C182.905 303.527 180.014 309.025 179.455 310.376C173.659 324.385 171.107 340.953 169.979 356.048C166.464 403.09 179.552 449.102 196.669 492.398C180.457 486.636 159.317 488.193 142.549 490.661C134.857 491.824 127.451 493.701 119.983 495.839C113.622 475.313 113.452 437.758 116.442 416.258C122.519 372.561 146.364 329.586 181.591 302.914Z"/>
	<path fill="#698EB0" transform="scale(0.292969 0.292969)" d="M222.387 289.71C237.125 288.182 252.799 290.313 267.19 293.687C321.941 306.523 364.61 346.572 393.593 393.191C380.224 397.085 366.951 405.663 356.447 414.628C347.358 422.685 341.532 431.023 334.166 440.415C328.979 428.262 324.401 415.946 318.619 404.034C299.966 365.603 272.849 328.169 236.496 304.731C228.215 299.391 219.488 295.122 210.531 291.054C214.435 290.408 218.45 290.13 222.387 289.71Z"/>
	<path fill="white" transform="scale(0.292969 0.292969)" d="M194.279 296.244C197.877 296.941 201.465 298.12 204.905 299.375C243.445 313.438 277.585 349.571 297.691 384.724C303.343 394.607 308.689 404.935 313.357 415.327C316.954 423.335 320.107 431.53 323.784 439.505C304.109 435.883 285.02 434.474 265.394 439.333C239.821 447.305 218.335 463.568 205.656 487.352Q205.379 486.865 205.12 486.368C200.725 477.934 197.892 468.063 194.924 459.058C181.537 418.44 174.671 376.019 182.669 333.474C185.108 320.496 190.328 308.722 194.279 296.244Z"/>
</svg>
