<?xml version="1.0" encoding="utf-8" ?>
<svg xmlns="http://www.w3.org/2000/svg" xmlns:xlink="http://www.w3.org/1999/xlink" width="300" height="300">
	<path fill="#FEFEFE" transform="scale(0.292969 0.292969)" d="M0 0L1024 0L1024 1024L0 1024L0 0Z"/>
	<path fill="#A1655D" transform="scale(0.292969 0.292969)" d="M527.169 86.498C537.167 86.4549 547.196 87.3404 557.151 88.1811Q556.105 97.2545 555.392 106.36C555.371 106.384 555.355 106.412 555.33 106.433C553.11 108.265 530.588 105.854 527.036 105.568L527.169 86.498Z"/>
	<path fill="#2B4C6A" transform="scale(0.292969 0.292969)" d="M476.762 86.6943C478.365 86.3633 480.22 86.378 481.864 86.2347C482.308 92.4709 482.167 98.6051 481.989 104.847Q468.314 106.28 454.73 108.407L451.681 108.844C449.985 105.038 449.296 94.5345 448.36 89.6901C457.822 89.0884 467.333 87.7241 476.762 86.6943Z"/>
	<path fill="#2B4C6A" transform="scale(0.292969 0.292969)" d="M863.051 720.513C868.123 724.204 872.959 727.796 878.7 730.409C873.1 740.105 866.822 749.287 860.493 758.513C855.155 754.773 849.821 751.228 844.191 747.942C849.865 738.543 857.04 729.77 863.051 720.513Z"/>
	<path fill="#2B4C6A" transform="scale(0.292969 0.292969)" d="M430.255 93.5899C431.173 93.4877 431.5 93.4946 432.356 93.682C435.208 97.484 435.683 106.884 436.529 111.695L405.538 118.785C403.424 116.855 399.932 104.828 398.635 101.385Q414.392 97.2711 430.255 93.5899Z"/>
	<path fill="#2B4C6A" transform="scale(0.292969 0.292969)" d="M901.787 631.813C908.269 633.296 914.674 635.444 921.043 637.361L910.457 667.851C904.369 667.708 896.818 663.596 891.113 661.342C895.391 651.66 898.773 641.951 901.787 631.813Z"/>
	<path fill="#A1655D" transform="scale(0.292969 0.292969)" d="M573.682 90.0451C585.017 92.6042 596.409 94.4572 607.885 96.2338L603.764 114.766C595.752 115.056 579.727 110.518 570.75 109.255C571.635 102.841 572.422 96.3987 573.682 90.0451Z"/>
	<path fill="#2B4C6A" transform="scale(0.292969 0.292969)" d="M919.558 533.798L939.598 534.027C937.93 545.36 937.376 556.986 936.1 568.386C933.599 570.128 920.307 566.951 916.964 566.386C917.243 555.478 919.349 544.688 919.558 533.798Z"/>
	<path fill="#A1655D" transform="scale(0.292969 0.292969)" d="M720.287 140.423C731.022 145.455 741.093 152.372 750.948 158.908C747.329 163.7 744.095 168.741 740.815 173.767L740.417 174.134C738.2 173.894 715.121 159.327 711.284 157.123C713.886 151.382 717.205 145.919 720.287 140.423Z"/>
	<path fill="#2B4C6A" transform="scale(0.292969 0.292969)" d="M292.008 146.431C295.207 148.483 300.395 159.682 302.408 163.347Q288.491 172.298 274.415 180.998C270.424 176.173 267.012 170.713 263.472 165.542C272.692 158.747 282.391 152.641 292.008 146.431Z"/>
	<path fill="#2B4C6A" transform="scale(0.292969 0.292969)" d="M383.451 105.549C386.914 108.029 388.904 119.124 390.055 123.313C379.711 127.7 368.884 130.809 358.59 135.317Q354.582 126.414 350.922 117.363Q367.058 111.103 383.451 105.549Z"/>
	<path fill="#2B4C6A" transform="scale(0.292969 0.292969)" d="M335.977 123.957L337.099 124.253C340.399 129.207 342.643 135.289 345.137 140.72C335.086 145.77 325.29 151.515 314.99 156.028C311.478 150.655 308.528 144.667 305.262 139.111C315.475 133.975 325.592 128.749 335.977 123.957Z"/>
	<path fill="#2B4C6A" transform="scale(0.292969 0.292969)" d="M836.248 760.282C841.255 763.998 846.026 768.013 850.832 771.982C842.341 780.854 835.041 790.786 826.368 799.494C822.85 798.537 815.199 789.663 812.383 786.851C821.002 778.48 828.787 769.692 836.248 760.282Z"/>
	<path fill="#A1655D" transform="scale(0.292969 0.292969)" d="M674.403 118.075C685.242 121.812 695.774 127.573 706.065 132.62Q701.914 140.926 697.984 149.338C693.67 149.541 671.891 138.342 666.742 135.928Q670.172 126.83 674.403 118.075Z"/>
	<path fill="#A1655D" transform="scale(0.292969 0.292969)" d="M624.819 100.867C636.362 103.922 647.62 107.555 658.881 111.519C656.403 117.435 654.237 123.477 652.006 129.489C648.291 128.903 644.112 127.007 640.502 125.823Q629.786 122.282 618.958 119.099C621.127 113.099 622.924 106.958 624.819 100.867Z"/>
	<path fill="#2B4C6A" transform="scale(0.292969 0.292969)" d="M250.185 174.954C254.834 179.401 258.532 185.212 262.276 190.424C257.994 193.773 239.389 211.507 236.635 211.877Q229.961 204.542 223.098 197.385C232.471 190.324 241.298 182.608 250.185 174.954Z"/>
	<path fill="#2B4C6A" transform="scale(0.292969 0.292969)" d="M885.306 676.25C891.41 678.409 897.067 681.595 903.237 683.647Q896.206 699.917 887.452 715.329L887.003 715.767C883.874 715.923 873.385 708.873 870.304 707.072Q878.47 691.985 885.306 676.25Z"/>
	<path fill="#2B4C6A" transform="scale(0.292969 0.292969)" d="M913.754 582.605C920.355 583.554 926.936 585.058 933.479 586.357Q929.866 603.704 925.574 620.895C919.139 620.594 912.418 617.858 906.31 615.936C909.62 605.141 911.801 593.717 913.754 582.605Z"/>
	<path fill="#A1655D" transform="scale(0.292969 0.292969)" d="M763.208 168.214C774.652 173.597 785.306 184.295 794.856 192.576C790.803 196.868 786.859 201.162 783.14 205.75L782.048 206.434C778.403 206.052 757 187.637 752.819 184.272L763.208 168.214Z"/>
	<path fill="#2B4C6A" transform="scale(0.292969 0.292969)" d="M39.7954 505.421C53.6902 505.169 67.5713 505.477 81.4658 505.497L161.498 505.51L161.488 518.181C120.996 517.558 80.4586 518.587 39.9446 518.082L39.7954 505.421Z"/>
	<path fill="#2B4C6A" transform="scale(0.292969 0.292969)" d="M860.022 505.503C901.802 506.039 943.632 505.254 985.422 505.433L985.251 517.959C943.509 518.313 901.781 517.442 860.04 518.41L860.022 505.503Z"/>
	<path fill="#2B4C6A" transform="scale(0.292969 0.292969)" d="M762.283 752.283C770.514 759.049 776.923 767.871 784.498 775.327L820.014 810.775C830.171 820.824 840.463 830.604 850.253 841.033C847.082 843.734 844.15 846.643 841.2 849.58L840.514 849.574C832.403 840.93 823.923 832.695 815.645 824.215Q797.416 805.285 778.973 786.563C770.721 778.295 761.15 771.156 753.788 762.063C756.738 758.918 759.483 755.562 762.283 752.283Z"/>
	<path fill="#2B4C6A" transform="scale(0.292969 0.292969)" d="M840.333 173.851C843.605 176.722 846.698 179.878 849.858 182.878Q807.116 226.65 763.632 269.684C759.989 267.955 756.863 264.076 754.063 261.192C772.426 242.33 791.346 224.056 809.825 205.319C820.09 194.91 829.629 183.832 840.333 173.851Z"/>
	<path fill="#2B4C6A" transform="scale(0.292969 0.292969)" d="M183.119 174.367C187.921 177.393 195.244 186 199.712 190.295C223.773 213.425 246.462 238.115 270.849 260.866C267.812 263.842 264.934 266.974 262.032 270.081C251.227 261.023 241.479 250.166 231.436 240.242C212.307 221.339 193.155 202.539 174.725 182.948L183.119 174.367Z"/>
	<path fill="#2B4C6A" transform="scale(0.292969 0.292969)" d="M261.436 753.425L270.588 762.243C262.787 771.26 254.211 779.516 245.816 787.968L218.727 815.484C207.633 826.634 196.933 839.176 184.752 849.094C181.523 847.838 177.6 843.206 174.98 840.826C182.003 834.471 188.381 827.285 194.971 820.481L230.581 784.078C240.695 773.63 250.42 762.948 261.436 753.425Z"/>
	<path fill="#2B4C6A" transform="scale(0.292969 0.292969)" d="M505.282 39.7384L518.996 39.5885L518.798 119.331C518.796 133.824 519.638 148.401 518.542 162.867C514.308 163.266 509.857 163.027 505.595 163.061L505.282 39.7384Z"/>
	<path fill="#2B4C6A" transform="scale(0.292969 0.292969)" d="M505.103 860.942L518.995 861.015C519.067 902.23 519.402 943.488 518.871 984.698C514.455 984.892 510.009 984.85 505.588 984.907Q505.851 922.923 505.103 860.942Z"/>
	<path fill="#2B4C6A" transform="scale(0.292969 0.292969)" d="M787.443 812.304C792.377 814.593 797.659 822.199 801.236 826.308C792.87 833.787 784.481 841.324 775.665 848.274Q771.205 851.817 766.651 855.236Q762.096 858.656 757.45 861.95Q752.803 865.243 748.069 868.409Q743.334 871.575 738.515 874.61Q733.696 877.645 728.795 880.548Q723.895 883.45 718.917 886.218Q713.939 888.985 708.888 891.616Q703.836 894.246 698.715 896.738Q693.593 899.229 688.405 901.58Q683.218 903.931 677.968 906.139Q672.718 908.347 667.409 910.411Q662.101 912.475 656.738 914.393Q651.376 916.311 645.962 918.082Q640.549 919.853 635.09 921.475Q629.63 923.098 624.129 924.57Q618.627 926.043 613.087 927.365C590.03 932.712 566.724 935.903 543.214 938.441C538.469 938.504 533.697 938.91 528.958 939.18L529.017 920.561L529.948 920.55C544.839 920.315 560.023 918.572 574.728 916.327Q580.308 915.486 585.862 914.486Q591.417 913.485 596.94 912.327Q602.463 911.169 607.951 909.853Q613.439 908.537 618.887 907.066Q624.335 905.594 629.739 903.967Q635.143 902.341 640.498 900.56Q645.853 898.78 651.156 896.848Q656.458 894.915 661.703 892.832Q666.948 890.749 672.131 888.517Q677.314 886.286 682.432 883.906Q687.549 881.528 692.597 879.003Q697.644 876.479 702.617 873.812Q707.591 871.145 712.486 868.337Q717.381 865.529 722.194 862.582Q727.007 859.635 731.734 856.552Q736.461 853.47 741.098 850.253C757.794 838.826 773.335 826.83 787.443 812.304Z"/>
	<path fill="#2B4C6A" transform="scale(0.292969 0.292969)" d="M197.849 222.33C202.776 225.785 206.957 230.24 211.226 234.453C159.303 293.085 124.633 361.047 109.772 438.125C107.688 448.934 105.739 459.959 104.864 470.936C104.189 479.409 105.036 488.677 103.006 496.915C101.653 497.75 100.695 497.533 99.1251 497.541Q91.7932 497.407 84.464 497.645Q84.8416 487.076 85.7705 476.541Q86.6994 466.006 88.1771 455.534Q89.6547 445.062 91.677 434.681Q93.6994 424.301 96.2609 414.04Q97.8347 407.368 99.6208 400.75Q101.407 394.131 103.404 387.574Q105.4 381.016 107.606 374.525Q109.811 368.034 112.222 361.617Q114.634 355.2 117.249 348.864Q119.864 342.527 122.68 336.277Q125.497 330.027 128.511 323.871Q131.526 317.714 134.736 311.657Q137.945 305.6 141.347 299.648Q144.749 293.697 148.339 287.857Q151.929 282.017 155.703 276.295Q159.478 270.573 163.434 264.974Q167.39 259.375 171.522 253.906Q175.655 248.436 179.96 243.102Q184.265 237.767 188.739 232.573Q193.212 227.379 197.849 222.33Z"/>
	<path fill="#2B4C6A" transform="scale(0.292969 0.292969)" d="M233.868 811.859C249.762 823.769 264.218 837.469 280.61 848.75Q283.577 850.792 286.579 852.781Q289.581 854.77 292.617 856.706Q295.654 858.641 298.724 860.523Q301.794 862.406 304.897 864.233Q308 866.061 311.135 867.834Q314.269 869.607 317.435 871.324Q320.6 873.041 323.795 874.703Q326.99 876.364 330.214 877.969Q333.438 879.574 336.689 881.121Q339.941 882.669 343.219 884.16Q346.498 885.65 349.802 887.082Q353.106 888.515 356.435 889.889Q359.763 891.263 363.116 892.578Q366.468 893.893 369.844 895.149Q373.219 896.405 376.615 897.601Q380.012 898.797 383.429 899.934Q386.846 901.07 390.283 902.146Q393.72 903.222 397.175 904.237Q400.63 905.252 404.103 906.207Q407.575 907.161 411.064 908.054Q414.552 908.947 418.056 909.778Q421.56 910.61 425.078 911.379Q428.596 912.149 432.127 912.857Q435.658 913.564 439.201 914.209Q442.744 914.855 446.298 915.437Q449.852 916.02 453.415 916.54Q456.978 917.06 460.55 917.518Q464.122 917.975 467.702 918.369Q471.282 918.764 474.867 919.095Q478.453 919.426 482.045 919.694Q485.636 919.962 489.231 920.167Q492.827 920.372 496.425 920.513L496.077 939.657L486.272 938.562C467.938 938.53 448.743 934.92 430.799 931.393C348.491 915.216 283.521 880.801 221.593 824.677C225.477 820.194 229.673 816.046 233.868 811.859Z"/>
	<path fill="#2B4C6A" transform="scale(0.292969 0.292969)" d="M85.3811 527.014L103.118 526.933C108.45 610.04 132.281 684.201 181.431 752.033C191.185 765.493 201.999 778.035 212.866 790.593C210.557 792.73 208.33 794.971 206.071 797.163C204.064 799.484 201.969 801.717 199.868 803.954C189.03 793.62 179.959 781.354 170.939 769.441Q168.486 766.181 166.095 762.874Q163.705 759.567 161.378 756.215Q159.051 752.864 156.788 749.468Q154.526 746.072 152.329 742.634Q150.132 739.196 148.001 735.716Q145.87 732.237 143.806 728.717Q141.742 725.197 139.745 721.639Q137.749 718.08 135.82 714.484Q133.892 710.888 132.033 707.256Q130.174 703.624 128.385 699.957Q126.596 696.289 124.877 692.589Q123.158 688.888 121.51 685.156Q119.862 681.423 118.286 677.659Q116.71 673.896 115.206 670.103Q113.702 666.31 112.271 662.488Q110.839 658.667 109.482 654.82Q108.124 650.972 106.839 647.099Q105.555 643.226 104.345 639.329Q103.135 635.432 102 631.513Q100.865 627.594 99.8048 623.654Q98.7447 619.714 97.7601 615.754Q96.7755 611.794 95.8667 607.816Q94.9579 603.838 94.1253 599.844Q93.2927 595.849 92.5366 591.84Q91.7805 587.83 91.1012 583.807Q90.4218 579.783 89.8195 575.748Q89.2172 571.712 88.6921 567.666Q88.167 563.619 87.7193 559.564Q87.2717 555.508 86.9016 551.445Q86.5315 547.381 86.2391 543.311Q85.9468 539.241 85.7323 535.167Q85.5177 531.092 85.3811 527.014Z"/>
	<path fill="#2B4C6A" transform="scale(0.292969 0.292969)" d="M824.91 221.423C839.863 239.158 854.996 256.257 868.004 275.565C873.488 283.706 878.326 292.265 883.152 300.808Q885.635 305.118 888.015 309.485Q890.395 313.852 892.671 318.274Q894.948 322.696 897.119 327.171Q899.29 331.645 901.355 336.17Q903.421 340.695 905.378 345.267Q907.336 349.839 909.185 354.456Q911.034 359.073 912.773 363.733Q914.513 368.392 916.142 373.092Q917.771 377.791 919.289 382.527Q920.806 387.264 922.211 392.035Q923.617 396.806 924.909 401.608Q926.201 406.411 927.38 411.243Q928.558 416.075 929.622 420.934Q930.686 425.792 931.635 430.675Q932.584 435.557 933.417 440.46Q934.251 445.363 934.968 450.285C937.34 465.952 939.16 481.636 939.513 497.491L926.745 497.48L920.548 497.409C920.62 481.298 918.079 464.779 915.571 448.903C902.524 366.321 867.284 296.444 811.776 234.409Q818.198 227.769 824.91 221.423Z"/>
	<path fill="#2B4C6A" transform="scale(0.292969 0.292969)" d="M497.896 171.221C497.948 171.216 498.001 171.211 498.053 171.208Q502.11 171.027 506.17 170.944Q510.23 170.861 514.29 170.877Q518.351 170.893 522.41 171.007Q526.469 171.121 530.524 171.333Q534.58 171.546 538.629 171.856Q542.677 172.167 546.718 172.576Q550.758 172.984 554.787 173.491Q558.816 173.997 562.831 174.601Q566.847 175.205 570.847 175.906Q574.846 176.607 578.828 177.405Q582.81 178.203 586.771 179.097Q590.732 179.991 594.67 180.98Q598.609 181.97 602.522 183.055Q606.435 184.14 610.321 185.319Q614.206 186.499 618.062 187.772Q621.918 189.045 625.742 190.412Q629.566 191.778 633.356 193.236Q637.146 194.695 640.899 196.245Q644.652 197.795 648.367 199.435Q652.082 201.076 655.755 202.806Q659.429 204.536 663.06 206.354Q666.691 208.173 670.276 210.079Q673.862 211.985 677.401 213.977Q680.939 215.969 684.428 218.047Q687.917 220.124 691.355 222.286Q694.793 224.447 698.177 226.691Q701.561 228.935 704.891 231.26Q708.219 233.586 711.491 235.991Q714.763 238.397 717.975 240.881Q721.188 243.365 724.339 245.926Q727.49 248.487 730.578 251.124Q733.667 253.76 736.69 256.471C807.94 319.719 846.767 404.029 852.215 498.896C856.223 568.67 834.249 642.65 795.939 700.753C786.802 714.61 776.139 727.634 765.104 740.011Q763.136 742.198 761.131 744.35Q759.125 746.502 757.083 748.619Q755.041 750.737 752.962 752.818Q750.884 754.9 748.77 756.945Q746.656 758.991 744.506 761Q742.357 763.008 740.174 764.979Q737.99 766.951 735.773 768.884Q733.555 770.817 731.305 772.712Q729.055 774.606 726.772 776.462Q724.489 778.317 722.175 780.133Q719.86 781.949 717.515 783.724Q715.169 785.5 712.793 787.234Q710.417 788.969 708.012 790.662Q705.607 792.356 703.172 794.007Q700.738 795.659 698.275 797.268Q695.813 798.877 693.323 800.444Q690.833 802.01 688.316 803.534Q685.8 805.057 683.257 806.536Q680.715 808.016 678.147 809.451Q675.579 810.887 672.987 812.277Q670.395 813.668 667.779 815.014Q665.163 816.36 662.525 817.66Q659.886 818.961 657.225 820.216Q654.565 821.47 651.883 822.679Q649.201 823.887 646.498 825.049Q643.796 826.211 641.073 827.326Q638.351 828.441 635.61 829.509Q632.869 830.577 630.11 831.598Q627.351 832.618 624.575 833.591Q621.799 834.563 619.006 835.488Q616.213 836.412 613.405 837.288Q610.597 838.165 607.774 838.992C580.825 846.698 553.628 850.681 525.691 852.29Q521.559 852.45 517.424 852.509Q513.289 852.568 509.153 852.528Q505.018 852.487 500.885 852.346Q496.752 852.205 492.624 851.964Q488.495 851.723 484.374 851.381Q480.252 851.04 476.14 850.599Q472.029 850.159 467.929 849.618Q463.829 849.078 459.743 848.438Q455.657 847.799 451.588 847.06Q447.519 846.322 443.469 845.485Q439.419 844.648 435.391 843.714Q431.363 842.779 427.358 841.747Q423.353 840.715 419.375 839.586Q415.397 838.457 411.447 837.232Q407.497 836.008 403.578 834.687Q399.659 833.367 395.773 831.952Q391.887 830.538 388.036 829.029Q384.186 827.52 380.373 825.919Q376.56 824.318 372.788 822.624Q369.015 820.931 365.284 819.147Q361.553 817.362 357.867 815.488Q354.18 813.614 350.541 811.651Q346.901 809.688 343.309 807.637Q339.718 805.587 336.178 803.45Q332.637 801.313 329.15 799.091Q325.662 796.868 322.229 794.562Q318.796 792.256 315.42 789.868Q312.044 787.479 308.727 785.01Q305.41 782.54 302.154 779.991Q298.898 777.441 295.705 774.814Q292.511 772.186 289.382 769.482Q286.253 766.778 283.191 763.999Q280.046 761.154 276.974 758.232Q273.901 755.31 270.902 752.312Q267.904 749.314 264.981 746.242Q262.058 743.17 259.212 740.026Q256.367 736.882 253.601 733.668Q250.835 730.454 248.15 727.172Q245.465 723.89 242.862 720.542Q240.26 717.194 237.742 713.782Q235.224 710.37 232.792 706.897Q230.36 703.423 228.016 699.89Q225.671 696.357 223.416 692.766Q221.16 689.175 218.995 685.53Q216.829 681.884 214.756 678.185Q212.682 674.486 210.701 670.737Q208.721 666.988 206.834 663.19Q204.947 659.392 203.156 655.549Q201.365 651.705 199.67 647.818Q197.976 643.931 196.379 640.003Q194.781 636.075 193.283 632.109Q191.784 628.142 190.385 624.139Q188.986 620.136 187.687 616.1Q186.388 612.063 185.19 607.995Q183.993 603.928 182.897 599.831Q181.801 595.735 180.808 591.613Q179.814 587.49 178.924 583.344Q178.034 579.198 177.248 575.032Q176.461 570.865 175.779 566.68Q175.097 562.495 174.52 558.294Q173.942 554.093 173.47 549.879Q172.997 545.665 172.63 541.44Q172.263 537.216 172.001 532.984Q171.74 528.751 171.584 524.514C167.635 437.438 201.366 347.866 259.963 283.726C322.357 215.431 405.278 175.391 497.896 171.221Z"/>
	<path fill="#FEFEFE" transform="scale(0.292969 0.292969)" d="M499.84 185.713C500.336 185.636 500.131 185.655 500.68 185.63C585.645 181.724 669.608 215.159 732.039 272.155Q734.977 274.861 737.849 277.639Q740.72 280.417 743.522 283.264Q746.324 286.112 749.055 289.027Q751.787 291.942 754.446 294.923Q757.105 297.905 759.69 300.951Q762.275 303.996 764.785 307.105Q767.294 310.213 769.727 313.382Q772.159 316.551 774.513 319.778Q776.867 323.006 779.142 326.29Q781.416 329.575 783.609 332.914Q785.801 336.253 787.912 339.646Q790.022 343.038 792.048 346.48Q794.075 349.923 796.016 353.415Q797.957 356.906 799.812 360.444Q801.667 363.983 803.435 367.565Q805.202 371.148 806.882 374.773Q808.561 378.397 810.151 382.062Q811.74 385.727 813.24 389.43Q814.739 393.133 816.147 396.872Q817.555 400.61 818.871 404.382Q820.186 408.154 821.409 411.957Q822.632 415.761 823.761 419.593Q824.891 423.425 825.925 427.283Q826.96 431.142 827.9 435.024Q828.84 438.907 829.684 442.812Q830.528 446.717 831.277 450.641Q832.025 454.565 832.676 458.507Q833.328 462.448 833.883 466.404Q834.437 470.36 834.895 474.329Q835.352 478.298 835.712 482.276Q836.072 486.255 836.334 490.241Q836.597 494.227 836.761 498.219Q836.907 501.623 836.982 505.028Q837.057 508.434 837.062 511.841Q837.066 515.248 836.999 518.654Q836.933 522.06 836.796 525.464Q836.658 528.867 836.45 532.268Q836.242 535.668 835.963 539.063Q835.684 542.459 835.335 545.847Q834.986 549.236 834.566 552.617Q834.146 555.997 833.656 559.369Q833.166 562.74 832.606 566.1Q832.046 569.461 831.416 572.809Q830.786 576.157 830.087 579.491Q829.388 582.825 828.619 586.144Q827.851 589.463 827.013 592.765Q826.176 596.067 825.27 599.351Q824.364 602.635 823.39 605.899Q822.416 609.164 821.374 612.407Q820.333 615.651 819.224 618.872Q818.115 622.093 816.939 625.291Q815.764 628.488 814.522 631.66Q813.28 634.832 811.972 637.978Q810.664 641.124 809.292 644.242Q807.919 647.359 806.481 650.448Q805.044 653.537 803.543 656.595Q802.042 659.653 800.477 662.679Q798.912 665.705 797.285 668.698Q795.658 671.691 793.969 674.649Q792.28 677.608 790.53 680.531Q788.779 683.453 786.969 686.339Q785.158 689.224 783.288 692.072Q781.417 694.919 779.488 697.727Q777.559 700.535 775.572 703.302C769.194 712.112 762.571 720.894 755.189 728.898Q752.445 731.914 749.628 734.862Q746.811 737.809 743.922 740.687Q741.033 743.564 738.074 746.37Q735.115 749.175 732.088 751.907Q729.062 754.639 725.968 757.296Q722.875 759.953 719.718 762.532Q716.56 765.112 713.34 767.613Q710.12 770.115 706.84 772.536Q703.559 774.958 700.22 777.298Q696.881 779.638 693.485 781.895Q690.09 784.152 686.639 786.325Q683.189 788.498 679.687 790.586Q676.184 792.673 672.631 794.674Q669.079 796.675 665.478 798.588Q661.877 800.5 658.23 802.324Q654.583 804.148 650.892 805.881Q647.202 807.615 643.47 809.257Q639.738 810.899 635.966 812.449Q632.195 813.999 628.386 815.455Q624.578 816.912 620.735 818.274Q616.892 819.637 613.017 820.905Q609.141 822.172 605.236 823.344Q601.331 824.516 597.398 825.592Q593.465 826.667 589.506 827.646Q585.548 828.625 581.567 829.505Q577.586 830.386 573.584 831.169Q569.583 831.952 565.563 832.636Q561.543 833.32 557.508 833.905Q553.473 834.49 549.425 834.976Q545.376 835.461 541.317 835.847Q537.258 836.233 533.191 836.519Q529.123 836.805 525.05 836.991C511.782 837.131 498.407 837.184 485.179 836.032Q481.996 835.755 478.818 835.416Q475.641 835.077 472.471 834.677Q469.3 834.276 466.138 833.814Q462.977 833.353 459.824 832.829Q456.672 832.306 453.53 831.722Q450.389 831.138 447.259 830.492Q444.13 829.847 441.013 829.141Q437.897 828.436 434.794 827.67Q431.692 826.903 428.605 826.077Q425.519 825.251 422.449 824.365Q419.378 823.479 416.326 822.534Q413.274 821.588 410.24 820.584Q407.207 819.579 404.194 818.516Q401.18 817.453 398.188 816.331Q395.196 815.21 392.226 814.031Q389.256 812.851 386.31 811.614Q383.364 810.378 380.442 809.084Q377.52 807.79 374.624 806.44Q371.728 805.09 368.858 803.683Q365.989 802.277 363.147 800.816Q360.306 799.354 357.493 797.838Q354.681 796.321 351.898 794.75Q349.115 793.179 346.364 791.555Q343.612 789.93 340.892 788.253Q338.173 786.575 335.486 784.845Q332.8 783.115 330.147 781.333Q327.495 779.551 324.878 777.718Q322.26 775.885 319.679 774.001Q317.098 772.118 314.553 770.184Q312.009 768.251 309.503 766.269Q306.997 764.286 304.53 762.256Q302.062 760.225 299.635 758.147Q297.382 756.222 295.165 754.256Q292.947 752.291 290.766 750.284Q288.585 748.278 286.441 746.232Q284.298 744.187 282.192 742.102Q280.086 740.017 278.019 737.894Q275.952 735.771 273.924 733.61Q271.896 731.449 269.908 729.252Q267.92 727.054 265.973 724.82Q264.025 722.587 262.119 720.317Q260.214 718.048 258.35 715.745Q256.486 713.441 254.664 711.104Q252.843 708.766 251.065 706.396Q249.287 704.025 247.552 701.622Q245.818 699.219 244.128 696.785Q242.438 694.351 240.793 691.886Q239.148 689.422 237.548 686.927Q235.949 684.432 234.396 681.909Q232.842 679.385 231.335 676.834Q229.828 674.282 228.369 671.703Q226.909 669.125 225.497 666.519Q224.085 663.914 222.72 661.284Q221.356 658.653 220.041 655.998Q218.725 653.342 217.458 650.664Q216.192 647.985 214.974 645.283Q213.757 642.581 212.59 639.857Q211.422 637.134 210.305 634.389Q209.187 631.645 208.121 628.88Q207.054 626.115 206.038 623.332Q205.022 620.548 204.058 617.746Q203.093 614.944 202.18 612.125Q201.267 609.306 200.406 606.47Q199.545 603.635 198.736 600.784C193.353 582.293 189.285 563.343 187.815 544.111C185.974 520.011 185.893 495.607 188.894 471.596C196.867 407.782 225.745 346.13 267.588 297.593Q269.78 295.073 272.023 292.599Q274.266 290.124 276.559 287.696Q278.853 285.268 281.195 282.887Q283.537 280.506 285.927 278.173Q288.317 275.841 290.755 273.557Q293.192 271.274 295.675 269.041Q298.158 266.807 300.687 264.625Q303.215 262.443 305.787 260.313Q308.36 258.183 310.975 256.105Q313.59 254.028 316.247 252.004Q318.904 249.981 321.602 248.012Q324.3 246.043 327.037 244.13Q329.774 242.216 332.55 240.359Q335.326 238.502 338.139 236.701Q340.952 234.901 343.801 233.158Q346.651 231.416 349.535 229.732Q352.419 228.048 355.337 226.423Q358.255 224.798 361.205 223.233Q364.155 221.668 367.137 220.163Q370.119 218.658 373.131 217.215Q376.142 215.771 379.183 214.39Q382.224 213.008 385.292 211.688Q388.36 210.369 391.454 209.112Q394.549 207.856 397.668 206.662Q400.787 205.469 403.93 204.34Q407.073 203.21 410.239 202.145Q413.404 201.08 416.591 200.08Q419.777 199.079 422.984 198.144Q426.19 197.209 429.414 196.339Q432.639 195.47 435.881 194.666Q439.122 193.863 442.38 193.125Q445.637 192.388 448.909 191.717C465.709 188.356 482.782 186.986 499.84 185.713Z"/>
	<path fill="#A8A7A7" transform="scale(0.292969 0.292969)" d="M759.551 524.021L812.979 524.019C811.963 535.905 811.073 547.713 809.193 559.508C800.202 615.901 776.376 662.92 740.642 707.018Q736.766 711.534 732.832 716C719.513 703.846 707.788 690.108 694.595 677.802Q695.307 677.19 695.985 676.541C701.909 670.871 706.981 664.041 711.91 657.502C740.493 619.583 758.306 571.6 759.551 524.021Z"/>
	<path fill="#A8A7A7" transform="scale(0.292969 0.292969)" d="M210.162 524.538Q237.316 524.262 264.459 525.054C267.373 567.787 278.99 609.424 302.543 645.57C309.831 656.756 318.236 667.152 326.83 677.346Q317.525 687.421 307.75 697.041L289.19 715.577C278.363 705.89 269.763 693.104 261.752 681.069C228.219 630.7 214.648 584.541 210.162 524.538Z"/>
	<path fill="#A8A7A7" transform="scale(0.292969 0.292969)" d="M734.37 307.845C741.252 315.088 747.186 323.121 753.2 331.082C791.888 382.3 809.893 436.8 813.563 500.489L775.333 500.489C770.239 500.504 765.191 500.35 760.105 500.101C755.93 457.415 745.596 416.446 721.756 380.247C713.957 368.404 705.058 357.538 695.999 346.656C709.225 334.222 722.378 321.484 734.37 307.845Z"/>
	<path fill="#A8A7A7" transform="scale(0.292969 0.292969)" d="M344.536 695.369C349.754 697.813 354.399 702.738 358.848 706.377C363.446 710.137 368.283 713.738 373.328 716.878C414.971 742.798 451.659 755.127 500.499 758.945L500.494 812.53C489.523 812.622 478.616 811.353 467.75 809.989C409.41 802.061 350.605 773.396 308.219 732.476C320.007 719.799 332.863 708.132 344.536 695.369Z"/>
	<path fill="#A8A7A7" transform="scale(0.292969 0.292969)" d="M291.336 307.8C302.494 315.051 319.8 335.247 329.613 345.591C288.272 393.522 270.337 436.416 264.597 499.401L248.643 499.486L210.46 499.488C215.702 423.838 240.014 364.025 291.336 307.8Z"/>
	<path fill="#A8A7A7" transform="scale(0.292969 0.292969)" d="M677.561 693.981C683.148 697.768 687.915 703.826 692.613 708.72C700.199 716.623 707.826 724.446 715.232 732.522C672.626 773.773 615.047 798.699 557.045 808.606C545.854 810.173 534.686 811.407 523.449 812.553L523.5 758.145C573.291 756.232 641.279 727.788 677.561 693.981Z"/>
	<path fill="#A8A7A7" transform="scale(0.292969 0.292969)" d="M523.006 209.391C538.65 211.135 554.074 212.112 569.6 214.985C626.303 225.477 672.241 252.806 715.714 289.582C709.57 296.7 702.83 303.225 696.062 309.741C689.666 316.221 683.564 322.954 677.057 329.338C671.151 324.035 665.34 318.687 659.017 313.876C619.501 283.809 572.64 268.601 523.43 265.626C523.501 246.893 523.892 228.105 523.006 209.391Z"/>
	<path fill="#A8A7A7" transform="scale(0.292969 0.292969)" d="M491.799 210.703C494.734 210.27 497.948 210.348 500.925 210.192C502.641 228.43 501.497 247.55 501.413 265.897C451.992 267.322 406.205 283.961 366.415 313.149C359.264 318.394 352.519 324.312 345.7 329.982C341.18 325.203 336.412 320.624 331.75 315.98C323.542 307.675 314.66 300.006 306.763 291.404C318.502 281.211 330.355 271.026 343.165 262.184C386.856 232.026 439.066 214.956 491.799 210.703Z"/>
	<path fill="#2B4C6A" transform="scale(0.292969 0.292969)" d="M496.615 283.21C553.3 279.615 607.389 296.434 652.667 330.626C700.711 366.907 732.845 419.127 741.083 479.027C749.564 540.693 734.257 599.516 696.56 649.063C655.092 703.566 595.373 732.4 528.483 741.455C461.838 745.686 406.79 726.318 356.531 682.17C312.486 643.482 285.818 586.451 282.069 528.243C278.052 465.867 299.325 406.553 340.541 359.829Q342.383 357.737 344.277 355.691Q346.17 353.644 348.113 351.645Q350.056 349.646 352.047 347.695Q354.038 345.743 356.077 343.842Q358.115 341.94 360.2 340.089Q362.284 338.238 364.414 336.439Q366.543 334.639 368.716 332.893Q370.889 331.146 373.104 329.453Q375.319 327.76 377.575 326.122Q379.83 324.484 382.126 322.902Q384.421 321.32 386.754 319.795Q389.088 318.269 391.458 316.802Q393.828 315.334 396.234 313.925Q398.639 312.516 401.078 311.166Q403.518 309.816 405.989 308.526Q408.461 307.237 410.963 306.008Q413.466 304.78 415.998 303.613Q418.53 302.446 421.089 301.342Q423.649 300.238 426.235 299.196Q428.821 298.155 431.432 297.178Q434.043 296.2 436.677 295.287Q439.311 294.374 441.966 293.526Q444.622 292.677 447.298 291.894Q449.973 291.111 452.667 290.394Q455.361 289.677 458.072 289.026Q460.783 288.376 463.509 287.792Q466.235 287.207 468.974 286.69Q471.714 286.173 474.465 285.723Q477.216 285.274 479.978 284.892Q482.739 284.509 485.509 284.195Q488.279 283.881 491.056 283.634Q493.833 283.388 496.615 283.21Z"/>
	<path fill="#FEFEFE" transform="scale(0.292969 0.292969)" d="M500.034 292.29C510.006 291.314 520.72 292.222 530.677 293.229Q534.83 293.611 538.966 294.144Q543.102 294.677 547.216 295.359Q551.329 296.042 555.416 296.874Q559.502 297.705 563.556 298.685Q567.609 299.664 571.625 300.79Q575.64 301.917 579.612 303.188Q583.583 304.459 587.506 305.874Q591.429 307.289 595.298 308.845Q599.167 310.401 602.977 312.097Q606.787 313.793 610.532 315.626Q614.278 317.459 617.955 319.427Q621.631 321.395 625.234 323.495Q628.837 325.595 632.361 327.825Q635.885 330.054 639.326 332.411Q642.767 334.767 646.119 337.246Q649.472 339.726 652.733 342.326Q654.824 343.999 656.873 345.722Q658.923 347.445 660.929 349.219Q662.936 350.992 664.898 352.814Q666.86 354.636 668.777 356.506Q670.694 358.375 672.564 360.292Q674.435 362.208 676.258 364.169Q678.08 366.131 679.854 368.137Q681.629 370.142 683.353 372.191Q685.077 374.24 686.75 376.33Q688.424 378.421 690.045 380.552Q691.667 382.683 693.235 384.853Q694.804 387.023 696.319 389.231Q697.834 391.439 699.294 393.683Q700.754 395.928 702.159 398.208Q703.564 400.487 704.912 402.801Q706.26 405.115 707.551 407.461Q708.842 409.807 710.075 412.184Q711.308 414.561 712.482 416.967Q713.656 419.374 714.771 421.808Q715.886 424.243 716.94 426.704Q717.995 429.166 718.989 431.652Q719.983 434.139 720.915 436.649Q721.848 439.159 722.718 441.691Q723.589 444.224 724.396 446.777Q725.204 449.329 725.95 451.901Q726.695 454.473 727.376 457.063Q728.058 459.652 728.676 462.258Q729.293 464.863 729.847 467.483Q730.401 470.103 730.89 472.736Q731.379 475.369 731.803 478.012Q732.228 480.656 732.587 483.31Q732.946 485.963 733.24 488.625Q733.525 491.258 733.745 493.898Q733.965 496.538 734.12 499.182Q734.275 501.826 734.364 504.473Q734.454 507.121 734.478 509.769Q734.502 512.418 734.461 515.066Q734.42 517.715 734.314 520.361Q734.207 523.008 734.036 525.651Q733.864 528.294 733.627 530.932Q733.39 533.571 733.089 536.202Q732.787 538.834 732.42 541.457Q732.053 544.08 731.622 546.694Q731.191 549.307 730.695 551.909Q730.2 554.511 729.64 557.1Q729.081 559.689 728.458 562.263Q727.834 564.838 727.148 567.396Q726.461 569.954 725.712 572.495Q724.962 575.035 724.15 577.556Q723.338 580.078 722.465 582.578Q721.591 585.079 720.655 587.557Q719.72 590.035 718.724 592.489Q717.728 594.944 716.672 597.373Q715.615 599.802 714.499 602.204Q713.383 604.606 712.209 606.98Q711.034 609.354 709.801 611.698Q708.568 614.042 707.277 616.356Q705.987 618.669 704.64 620.949Q703.292 623.23 701.889 625.476Q700.486 627.723 699.028 629.935Q697.57 632.146 696.058 634.321Q694.546 636.495 692.981 638.632Q691.416 640.769 689.798 642.866Q688.181 644.964 686.512 647.021C646.3 696.804 588.506 725.682 525.385 732.432C467.361 735.152 416.081 717.881 371.185 681.078Q369.123 679.414 367.102 677.7Q365.082 675.986 363.104 674.223Q361.127 672.46 359.193 670.648Q357.26 668.837 355.371 666.978Q353.483 665.12 351.641 663.215Q349.8 661.31 348.005 659.361Q346.211 657.411 344.465 655.418Q342.72 653.425 341.024 651.389Q339.328 649.354 337.683 647.277Q336.037 645.2 334.444 643.083Q332.85 640.966 331.31 638.811Q329.769 636.655 328.282 634.463Q326.795 632.27 325.362 630.041Q323.929 627.812 322.552 625.549Q321.175 623.285 319.854 620.988Q318.533 618.692 317.269 616.363Q316.005 614.034 314.799 611.675Q313.593 609.316 312.446 606.928Q311.298 604.54 310.21 602.124Q309.122 599.708 308.094 597.266Q307.065 594.824 306.098 592.358Q305.13 589.892 304.223 587.402Q303.316 584.912 302.472 582.401Q301.627 579.89 300.844 577.359Q300.061 574.827 299.341 572.278Q298.621 569.728 297.964 567.161Q297.307 564.594 296.714 562.012Q296.12 559.43 295.591 556.834Q295.061 554.238 294.596 551.629Q294.13 549.021 293.729 546.402Q293.329 543.783 292.992 541.155Q292.656 538.527 292.385 535.891Q292.117 533.158 291.916 530.418Q291.715 527.679 291.582 524.936Q291.449 522.193 291.384 519.447Q291.319 516.701 291.322 513.955Q291.324 511.208 291.395 508.463Q291.465 505.717 291.604 502.974Q291.742 500.231 291.948 497.492Q292.154 494.754 292.428 492.021Q292.702 489.288 293.043 486.563Q293.384 483.837 293.792 481.121Q294.201 478.405 294.676 475.7Q295.151 472.995 295.693 470.303Q296.235 467.61 296.844 464.932Q297.452 462.254 298.126 459.591Q298.801 456.929 299.541 454.284Q300.281 451.639 301.086 449.013Q301.891 446.387 302.76 443.782Q303.63 441.177 304.564 438.594Q305.497 436.011 306.495 433.452Q307.492 430.893 308.552 428.359Q309.612 425.826 310.735 423.319Q311.857 420.812 313.042 418.334Q314.226 415.856 315.47 413.408Q316.715 410.96 318.02 408.543Q319.325 406.127 320.69 403.743Q322.054 401.359 323.477 399.01Q324.9 396.661 326.38 394.347Q327.861 392.034 329.398 389.758Q330.935 387.482 332.528 385.244Q334.121 383.007 335.768 380.81Q337.416 378.612 339.117 376.456Q340.819 374.3 342.573 372.187C371.266 337.46 411.446 310.609 455.226 299.328C469.827 295.565 485.049 293.701 500.034 292.29Z"/>
	<path fill="#2B4C6A" transform="scale(0.292969 0.292969)" d="M500.452 545.308C500.93 545.28 501.765 545.212 502.22 545.279C503.556 545.476 503.792 545.958 504.494 546.976C504.846 549.41 503.888 551.834 503.237 554.167C503.024 554.225 502.811 554.047 502.606 553.965C501.738 551.16 500.578 548.255 500.452 545.308Z"/>
	<path fill="#2B4C6A" transform="scale(0.292969 0.292969)" d="M389.546 512.68C391.303 513.023 392.72 513.246 393.982 514.534C394.574 516.849 393.021 520.072 392.337 522.378L391.996 523.472C390.305 520.951 389.97 515.718 389.546 512.68Z"/>
	<path fill="#2B4C6A" transform="scale(0.292969 0.292969)" d="M448.053 363.721C450.233 363.457 452.024 363.07 453.986 364.156C455.608 367.314 452.946 372.812 451.975 376.128C451.27 374.242 449.919 371.229 450.226 369.244C450.539 367.224 451.245 366.646 452.912 365.553C451.305 364.897 449.688 364.301 448.053 363.721Z"/>
	<path fill="#2B4C6A" transform="scale(0.292969 0.292969)" d="M632.963 405.611C634.588 406.049 636.255 406.456 637.688 407.374C640.327 409.064 642.129 412.181 642.78 415.198C643.877 420.284 642.846 426.682 639.957 431.037C637.828 434.247 635.642 435.559 631.938 436.346C630.602 436.171 629.184 435.955 628.005 435.26C624.663 433.293 622.612 429.406 621.74 425.75C620.647 421.164 620.682 415.67 623.264 411.564C625.749 407.611 628.668 406.623 632.963 405.611Z"/>
	<path fill="#2B4C6A" transform="scale(0.292969 0.292969)" d="M501.218 509.092C502.508 508.996 503.911 509.011 505.186 509.255Q505.78 509.373 506.359 509.553Q506.937 509.733 507.494 509.973Q508.05 510.213 508.578 510.51Q509.106 510.807 509.6 511.158Q510.094 511.509 510.549 511.91Q511.003 512.31 511.412 512.757Q511.822 513.203 512.182 513.691Q512.543 514.178 512.85 514.7C515.249 518.785 515.125 523.999 513.872 528.432C512.478 533.368 509.958 536.585 505.49 539.024C503.939 539.051 502.201 539.072 500.739 538.497C497.313 537.149 494.924 533.49 493.703 530.176C491.957 525.437 491.262 519.404 493.589 514.743C495.312 511.294 497.677 510.197 501.218 509.092Z"/>
	<path fill="#2B4C6A" transform="scale(0.292969 0.292969)" d="M391.184 478.556C392.762 478.608 394.391 478.712 395.898 479.214C399.172 480.305 401.739 482.848 403.107 485.99C405.061 490.478 404.618 495.618 402.746 500.055C401.19 503.742 398.593 507.07 394.86 508.65C393.091 508.866 390.738 508.869 389.093 508.1C385.99 506.649 383.858 503.199 382.827 500.063C381.209 495.145 381.224 489.184 383.657 484.528C385.394 481.204 387.659 479.62 391.184 478.556Z"/>
	<path fill="#2B4C6A" transform="scale(0.292969 0.292969)" d="M448.494 330.08C449.887 329.999 451.36 330.005 452.744 330.174C455.611 330.524 458.275 332.214 459.91 334.577C462.495 338.315 462.614 343.406 461.776 347.721C460.634 353.595 457.899 357.888 452.931 361.171C451.608 361.096 450.184 361.036 448.925 360.597C445.589 359.434 442.959 356.353 441.482 353.25C439.266 348.595 438.832 342.748 440.685 337.901C442.262 333.775 444.508 331.786 448.494 330.08Z"/>
	<path fill="#2B4C6A" transform="scale(0.292969 0.292969)" d="M580.811 525.03C582.109 524.982 583.491 525.075 584.762 525.35C588.469 526.151 591.937 528.751 593.811 532.031C595.831 535.565 596.551 540.256 595.255 544.16C593.512 549.41 589.373 551.62 584.702 553.804C582.296 554.458 579.569 554.683 577.223 553.674C574.037 552.304 572.007 549.108 570.877 545.967C569.306 541.6 568.743 536.257 571.008 532.026C573.202 527.929 576.519 526.312 580.811 525.03Z"/>
	<path fill="#2B4C6A" transform="scale(0.292969 0.292969)" d="M551.733 316.906C560.816 318.271 562.92 333.366 571.072 339.802C567.07 344.446 562.714 347.962 556.863 349.972C553.167 350.629 549.165 351.284 545.474 350.337C542.918 349.681 540.608 348.196 539.31 345.848C537.317 342.24 537.926 337.743 538.932 333.932C540.919 326.405 544.956 320.819 551.733 316.906Z"/>
	<path fill="#2B4C6A" transform="scale(0.292969 0.292969)" d="M588.436 555.38C590.932 555.468 593.361 556.117 595.385 557.638C597.46 559.199 598.469 560.855 599.24 563.287C601.406 570.116 601.138 577.386 602.215 584.418C603.584 593.358 605.959 602.032 606.957 611.054C603.978 616.035 600.464 620.541 596.937 625.138C595.854 633.322 595.858 641.887 595.342 650.139C594.718 660.11 593.629 670.105 593.482 680.094C596.385 681.348 599.21 682.656 601.867 684.38C603.323 685.325 604.712 686.18 605.077 687.954L604.161 688.801C598.462 690.553 591.664 688.923 585.945 687.88C585.505 667.228 583.404 646.41 580.621 625.956C578.353 633.276 577.911 641.515 577.38 649.122Q575.201 668.211 574.97 687.423C568.616 688.506 562.369 688.649 555.946 688.669C559.355 684.241 562.91 682.04 567.911 679.834C566.856 669.377 565.99 658.737 565.481 648.244C565.025 638.854 565.969 627.897 563.246 618.88C561.799 614.089 558.269 610.054 556.403 605.367C556.325 605.17 556.251 604.97 556.175 604.771C557.294 599.217 558.782 593.751 559.81 588.168C560.904 582.232 562.367 567.396 564.64 562.55C565.846 559.98 569.414 556.73 572.247 556.152C573.549 555.887 574.322 556.079 575.39 556.848C579.169 559.569 579.851 572.251 580.463 576.769C581.523 569.913 582.363 559.845 588.436 555.38Z"/>
	<path fill="#FEFEFE" transform="scale(0.292969 0.292969)" d="M593.576 576.862C596.993 580.774 599.341 602.34 599.497 608.188C599.323 608.058 599.13 607.951 598.976 607.798C594.912 603.774 593.41 583.071 593.576 576.862Z"/>
	<path fill="#FEFEFE" transform="scale(0.292969 0.292969)" d="M568.217 576.87C568.495 577.13 568.583 577.163 568.747 577.539C570.854 582.377 566.423 602.931 564.628 608.653C561.932 603.017 566.393 583.345 568.217 576.87Z"/>
	<path fill="#2B4C6A" transform="scale(0.292969 0.292969)" d="M557.196 352.443C559.766 352.496 562.339 353.107 564.527 354.494C566.661 355.849 567.831 357.653 568.616 360.024C571.12 367.584 571.09 376.22 572.177 384.097C573.224 391.683 574.846 399.221 576.332 406.731C573.954 409.739 571.601 412.169 568.544 414.476C567.252 423.717 567.322 433.326 566.529 442.65C565.566 453.978 563.66 465.321 563.418 476.693C567.566 480.144 570.918 483.455 573.9 487.962C567.622 488.03 561.277 487.657 554.998 487.488C555.171 468.094 553.782 447.91 550.383 428.815Q549.728 436.476 548.885 444.118C548.848 449.398 547.806 455.046 547.295 460.328C546.419 469.388 545.944 478.323 545.969 487.425C539.084 487.385 532.187 487.554 525.302 487.641C528.681 482.514 533.166 479.705 537.765 475.857C536.656 455.367 534.7 434.951 533.82 414.442C530.019 412.373 527.222 409.586 524.233 406.523C525.609 396.188 532.502 360.517 540.343 354.369C541.787 353.237 543.476 352.612 545.316 352.972C548.745 353.643 550.541 356.583 552.276 359.291L557.196 352.443Z"/>
	<path fill="#FEFEFE" transform="scale(0.292969 0.292969)" d="M560.934 369.237C561.867 369.808 562.115 369.975 562.571 370.986C564.868 376.081 569.799 403.547 569.643 409.311C569.615 410.348 569.298 411.152 568.888 412.088Q568.323 411.518 568.003 410.783C565.503 405.141 559.447 374.528 560.934 369.237Z"/>
	<path fill="#FEFEFE" transform="scale(0.292969 0.292969)" d="M540.44 368.224L541.49 369.259C543.409 374.622 533.874 404.284 531.669 410.728L530.754 409.875C529.232 403.1 537.776 375.883 540.44 368.224Z"/>
	<path fill="#2B4C6A" transform="scale(0.292969 0.292969)" d="M457.793 361.082C462.216 362.139 467.143 362.97 471.03 365.415C479.905 370.997 482.105 398.783 484.222 409.257C481.125 416.313 476.69 421.975 471.638 427.744C471.15 450.36 467.419 473.356 464.268 495.75C466.384 496.633 468.534 497.493 470.594 498.502C472.645 499.507 475.369 500.997 476.157 503.269L475.664 504.214C471.081 506.586 458.593 504.834 453.107 504.452C453.241 496.188 454.027 450.057 452.121 445.733L451.017 445.383L450.111 445.972C447.915 451.12 448.692 463.119 448.573 468.938Q448.458 486.691 448.663 504.444C440.832 505.114 433.095 505.506 425.235 505.494C428.309 500.403 431.269 498.207 436.614 495.729C436.081 486.252 434.943 476.78 434.193 467.315C433.104 453.586 432.376 439.816 431.394 426.078C426.853 422.24 422.145 417.14 420.172 411.424C416.946 402.082 424.827 375.761 429.407 366.737C431.071 365.591 432.895 364.534 434.744 363.707C437.431 362.505 440.621 361.446 443.481 362.73C448.015 364.767 450.588 379.393 452.519 384.501C453.665 376.721 456.049 368.766 457.793 361.082Z"/>
	<path fill="#FEFEFE" transform="scale(0.292969 0.292969)" d="M469.519 383.781C469.98 384.14 470.247 384.449 470.531 384.983C472.73 389.11 474.927 408.114 473.8 412.71L473.035 412.698C470.555 408.924 469.399 388.515 469.519 383.781Z"/>
	<path fill="#FEFEFE" transform="scale(0.292969 0.292969)" d="M435.563 382.275C436.054 383.245 436.182 384.111 436.167 385.197C436.097 390.106 432.484 409.303 429.369 412.298C427.178 406.106 432.893 388.667 435.563 382.275Z"/>
	<path fill="#2B4C6A" transform="scale(0.292969 0.292969)" d="M496.171 540.979L496.428 541.083C498.8 543.447 502.379 561.207 503.071 565.218Q503.57 561.965 504.259 558.746C505.108 554.834 506.844 543.569 509.968 541.559C513.248 541.419 517.858 544.105 520.444 545.958C523.878 548.418 526.93 551.534 528.929 555.281C533.246 563.376 535.406 584.613 537.035 594.364C533.477 600.145 526.064 609.086 523.831 614.849C521.623 620.546 521.636 640.163 521.108 647.524Q520.205 660.361 518.785 673.151C523.13 676.287 526.369 679.321 529.462 683.708C521.605 682.279 513.445 683.083 505.524 681.812Q505.288 665.594 505.414 649.375C505.477 642.661 506.468 634.727 505.064 628.163C504.702 626.47 504.045 625.26 502.532 624.333L501.664 624.624C498.864 629.346 500 672.706 499.607 681.821C491.035 682.63 482.617 683.835 473.984 683.991C477.656 679.562 481.352 676.35 486.451 673.686C485.058 663.956 484.607 653.923 483.799 644.128C482.894 633.15 481.625 622.049 481.452 611.036C476.919 605.563 473.306 599.735 470.118 593.395C471.288 581.9 472.397 565.845 477.49 555.545C481.515 547.404 488.042 543.866 496.171 540.979Z"/>
	<path fill="#FEFEFE" transform="scale(0.292969 0.292969)" d="M517.561 563.908C517.793 564.095 518.05 564.255 518.255 564.47C521.665 568.044 525.51 592.147 525.347 597.638C525.222 597.548 525.088 597.468 524.97 597.368C521.525 594.435 517.72 569.384 517.561 563.908Z"/>
	<path fill="#FEFEFE" transform="scale(0.292969 0.292969)" d="M486.089 566.791C486.657 568.048 486.604 569.304 486.527 570.656C486.225 575.954 484.02 594.521 480.449 597.735C477.933 591.565 483.442 573.418 486.089 566.791Z"/>
	<path fill="#2B4C6A" transform="scale(0.292969 0.292969)" d="M638.376 438.327C642.886 439.061 647.227 439.739 651.228 442.128C664.054 449.786 663.867 472.589 667.127 485.842L667.29 486.486C663.041 492.49 657.818 498.76 654.99 505.545C650.231 516.965 650.442 538.533 649.428 551.308Q648.357 563.922 646.681 576.471C650.946 578.875 653.976 581.687 657.033 585.479C649.211 585.653 641.668 585.337 633.969 583.879C633.211 561.476 634.366 539.084 632.158 516.738C630.398 524.531 630.345 532.45 630.056 540.397C629.705 554.922 628.584 569.419 628.433 583.952C621.69 585.705 615.15 585.945 608.217 585.589C610.476 581.791 612.929 578.506 616.098 575.419L612.925 537.498C612.173 527.756 613.021 516.058 609.564 506.868C606.925 499.851 601.044 493.245 596.733 487.083C598.389 478.385 599.632 469.585 601.914 461.019C603.982 453.255 606.758 445.85 614.223 441.729C617.229 440.07 622.8 438 626.239 439.205C626.426 439.271 626.661 439.305 626.774 439.468C627.389 440.352 627.777 444.216 628.042 445.398C629.148 450.327 630.441 454.919 632.518 459.528C633.943 452.323 636.156 445.317 638.376 438.327Z"/>
	<path fill="#FEFEFE" transform="scale(0.292969 0.292969)" d="M648.501 460.293C648.949 460.585 649.01 460.585 649.401 461.07C652.979 465.521 655.452 486.232 654.727 492.342L653.834 492.235C651.2 487.891 649.231 466.163 648.501 460.293Z"/>
	<path fill="#FEFEFE" transform="scale(0.292969 0.292969)" d="M614.22 459.839C614.464 460.574 614.579 461.224 614.594 462.001C614.674 465.988 610.927 489.673 608.774 491.971C608.417 491.265 608.302 491.102 608.054 490.378C606.483 485.79 611.786 464.487 614.22 459.839Z"/>
	<path fill="#2B4C6A" transform="scale(0.292969 0.292969)" d="M384.923 509.454L385.902 509.616C388.663 514.105 390.643 526.826 392.003 532.592C393.425 524.965 395.608 516.183 398.734 509.095C402.07 510.765 405.425 512.426 408.647 514.311C413.001 516.859 417.149 520.019 419.847 524.36C425.459 533.387 426.623 554.135 429.553 565.254C425.683 573.446 422.218 579.045 414.96 584.581C412.08 606.755 411.056 629.401 409.404 651.702C415.357 653.634 417.772 656.165 420.729 661.521C412.063 661.575 403.536 660.409 395.029 658.888Q395.049 642.425 394.639 625.967C394.422 617.389 396.154 606.539 392.792 598.477L392.251 598.316C389.018 604.171 389.61 649.019 389.596 658.883C380.892 660.847 372.189 661.748 363.328 662.627C364.224 660.778 365.09 658.772 366.308 657.113C368.704 653.85 371.654 653.315 375.391 652.738C374.318 629.815 373.118 606.421 370.391 583.648C364.999 578.276 361.018 572.241 357.318 565.621Q359.46 557.036 360.795 548.29C361.775 541.762 362.261 534.727 364.385 528.459C367.78 518.437 376.069 513.907 384.923 509.454Z"/>
	<path fill="#FEFEFE" transform="scale(0.292969 0.292969)" d="M375.103 538.722C375.433 538.992 375.623 539.092 375.828 539.487C377.831 543.359 371.854 565.261 370.137 570.178C369.992 569.922 369.841 569.669 369.701 569.41C366.516 563.504 373.102 545.253 375.103 538.722Z"/>
	<path fill="#FEFEFE" transform="scale(0.292969 0.292969)" d="M410.02 538.247C410.515 538.614 410.866 538.918 411.204 539.469C414.221 544.384 418.524 565 416.754 570.244L416.117 570.332C413.362 566.871 409.907 543.052 410.02 538.247Z"/>
</svg>
